<svg width="126" height="105" viewBox="0 0 126 105" fill="none" xmlns="http://www.w3.org/2000/svg">
<g opacity="0.13">
<path d="M125.072 68.7516C125.072 68.7516 106.485 92.1669 77.8708 99.8339C49.257 107.501 23.9975 106.016 21.4522 96.5165C18.9069 87.0172 40.0396 73.1012 68.6534 65.4342C97.2672 57.7671 125.072 68.7516 125.072 68.7516Z" fill="#98A8D6"/>
<path d="M6.35142 0.0801931C6.35142 0.0801931 -4.83891 27.723 2.76117 56.0869C10.3613 84.4508 24.2908 105.363 33.8738 102.795C43.4567 100.227 45.0641 75.1522 37.464 46.7883C29.8639 18.4244 6.35142 0.0801931 6.35142 0.0801931Z" fill="#98A8D6"/>
<path d="M78.6306 8.80779C78.6306 8.80779 82.1132 38.3362 67.2542 63.8139C52.3953 89.2916 33.3976 105.972 24.8216 101.071C16.2456 96.1695 21.339 71.5424 36.1979 46.0647C51.0569 20.587 78.6306 8.80779 78.6306 8.80779Z" fill="#98A8D6"/>
</g>
</svg>
