<svg width="196" height="59" viewBox="0 0 196 59" fill="none" xmlns="http://www.w3.org/2000/svg">
<path d="M165.399 31.0002C163.565 31.0002 161.158 31.571 159.21 33.8541V31.6851H156V56.0002H159.324V38.6486C159.324 35.1098 161.846 33.7399 164.597 33.7399C167.577 33.7399 170.443 35.5664 170.443 39.676C170.443 46.1828 165.285 46.297 164.368 46.297C162.648 46.297 161.502 46.0687 160.241 45.4979L162.305 48.5801C163.222 48.8084 164.139 48.9226 165.056 48.9226C171.131 48.9226 173.997 44.4705 173.997 39.3335C174.111 34.9956 171.36 31.0002 165.399 31.0002Z" fill="white"/>
<path d="M130.178 47.7438V33.0002H116.804C118.521 33.8258 118.521 35.4771 118.521 36.7745C118.521 39.4874 118.276 43.6156 115.209 47.7438H113V55.0566L114.84 56.0002C114.718 50.9284 116.558 50.2207 118.153 50.2207H127.601C129.074 50.2207 131.282 50.3386 131.16 56.0002L133 55.0566V47.7438H130.178ZM126.62 47.7438H118.276C120.975 43.6156 121.344 39.0156 121.344 37.6002C121.344 36.8925 121.344 36.1848 121.221 35.4771H126.62V47.7438Z" fill="white"/>
<path d="M137.6 40.5386C137.484 44.231 139.69 47.3463 145.032 47.3463C147.703 47.3463 149.91 46.7694 152 45.6156L149.677 49.1925C147.819 49.7694 146.194 50.0002 144.335 50.0002C138.181 50.0002 134 46.7694 134 40.8848C134 35.6925 137.484 32.0002 143.29 32.0002C149.91 32.0002 151.768 36.9617 151.768 40.654H137.6V40.5386ZM147.703 38.3463C147.471 36.0386 145.729 34.654 143.058 34.654C140.387 34.654 138.413 36.154 137.948 38.3463H147.703Z" fill="white"/>
<path d="M106.632 32.0002C106.16 32.2468 106.042 32.6166 105.688 32.9865L97.4236 45.9317V32.0002H94V50.0002H97.1875C97.6597 49.7536 97.7778 49.3837 98.1319 49.0139L106.396 36.0687V50.0002H109.819V34.5892C109.819 33.6029 110.056 32.7399 111 32.0002H106.632Z" fill="white"/>
<path d="M76.3287 32.0002C77.993 33.0135 77.993 35.0402 77.993 36.3068C77.993 45.4268 76.6853 47.8335 75.021 47.8335C74.3077 47.8335 73.4755 47.3268 73 46.9468L73.3566 50.3668C73.3566 50.3668 73.3566 50.3668 73.4755 50.3668V50.6202C73.9511 50.7469 74.4266 51.0002 75.021 51.0002C80.3706 51.0002 80.8462 42.5135 80.8462 36.9402V34.6602H86.5524V50.4935H90V32.0002H76.3287Z" fill="white"/>
<path d="M114 10C114 15.8974 109.347 20 103.311 20C96.7725 20 93 15.1282 93 10C93 4.23077 97.6527 0 103.689 0C110.228 0 114 4.8718 114 10ZM96.8982 10C96.8982 13.5897 99.1617 17.1795 103.563 17.1795C107.461 17.1795 110.102 14.359 110.102 10C110.102 6.41026 107.838 2.94872 103.437 2.94872C99.5389 2.94872 96.8982 5.76923 96.8982 10Z" fill="white"/>
<path d="M170 10C170 15.3077 166.012 19 160.838 19C155.234 19 152 14.6154 152 10C152 4.80769 155.988 1 161.162 1C166.766 1 170 5.38462 170 10ZM155.341 10C155.341 13.2308 157.174 16.4615 161.054 16.4615C164.395 16.4615 166.659 13.9231 166.659 10C166.659 6.76923 164.826 3.65385 160.946 3.65385C157.605 3.65385 155.341 6.19231 155.341 10Z" fill="white"/>
<path d="M77.1534 18.9692H86.6012C88.0736 18.9692 90.2822 19.0923 90.1595 25L92 24.0154V16.3846H89.0552V1H75.8037C77.3988 1.86154 77.5215 3.58462 77.5215 4.81538C77.5215 7.64615 77.2761 11.9538 74.2086 16.2615H72V23.8923L73.8405 24.8769C73.7178 19.7077 75.5583 18.9692 77.1534 18.9692ZM80.3436 5.8C80.3436 5.06154 80.3436 4.32308 80.2209 3.58462H85.6196V16.3846H77.2761C79.9755 12.0769 80.3436 7.27692 80.3436 5.8Z" fill="white"/>
<path d="M121 1H118V19H121V1Z" fill="white"/>
<path d="M131.934 16.2319L127.028 10.3357C126.538 9.72149 126.292 9.35298 125.679 8.86163L132.792 1H126.783C127.274 1.36851 127.642 1.73703 127.642 2.22838C127.642 2.71973 127.396 3.33392 126.047 4.80798L122 9.47582L128.5 17.5831C129.726 19.18 129.849 19.0572 133.528 18.9343H135C133.406 17.9516 132.67 17.0918 131.934 16.2319Z" fill="white"/>
<path d="M147.702 3.58904C148.191 3.58904 149.534 3.58904 150.145 4.82192L151 1H136.099L135 4.9452C135.977 3.71233 137.198 3.58904 138.298 3.58904H141.107V19H144.649V3.58904H147.702Z" fill="white"/>
<path d="M183.287 1C181.452 1 179.045 1.57078 177.096 3.85388V1.68493H174V26H177.325V8.6484C177.325 5.10959 179.847 3.73973 182.599 3.73973C185.58 3.73973 188.446 5.56621 188.446 9.6758C188.446 16.1826 183.287 16.2968 182.369 16.2968C180.65 16.2968 179.503 16.0685 178.242 15.4977L180.306 18.5799C181.223 18.8082 182.14 18.9224 183.057 18.9224C189.019 18.9224 192 14.3562 192 9.33333C192 4.99543 189.248 1 183.287 1Z" fill="white"/>
<path d="M56 28C56 43.4703 43.4703 56 28 56C12.5297 56 0 43.4703 0 28C0 12.5297 12.5297 0 28 0C43.4703 0 56 12.5297 56 28Z" fill="white" fill-opacity="0.3"/>
<path d="M27.7782 1.02059C27.5222 1.02059 27.5222 1.02059 26.7539 1.02059C26.7539 1.02059 26.7539 1.02059 27.1381 1.02059C27.2661 1.02059 27.2661 1.02059 27.3941 1.02059C27.2661 1.02059 27.01 1.02059 27.01 1.14816C27.01 1.14816 26.882 1.14816 26.7539 1.14816H26.882C26.882 1.14816 26.882 1.14816 27.01 1.02059C27.138 1.02059 27.1381 1.02059 27.3941 1.02059C27.3941 1.02059 27.3941 1.02059 27.2661 1.02059C27.3941 0.893016 27.5222 1.02059 27.7782 1.02059C27.7782 0.893016 27.7782 0.893016 27.7782 0.893016C27.7782 1.02059 27.7782 1.02059 27.7782 1.02059C27.9063 0.893016 27.9063 0.893016 27.9063 0.893016C27.9063 0.893016 27.9063 0.893016 27.7782 0.893016C27.7782 0.893016 27.7782 0.893016 27.6502 0.893016C27.5222 0.765442 27.3941 0.893016 27.2661 0.765442H27.3941H27.5222C27.5222 0.765442 27.5222 0.765442 27.6502 0.765442C27.7782 0.765442 27.7782 0.765442 27.9063 0.765442C27.9063 0.765442 27.9063 0.765442 27.7782 0.765442C27.7782 0.765442 27.7782 0.765442 27.6502 0.765442H27.7782C27.6502 0.765442 27.6502 0.637868 27.5222 0.765442C27.3941 0.765442 27.3941 0.765442 27.2661 0.765442C27.2661 0.765442 27.2661 0.765442 27.3941 0.765442C27.3941 0.765442 27.3941 0.765442 27.2661 0.765442C27.2661 0.765442 27.2661 0.765442 27.3941 0.765442C27.5222 0.637868 27.5222 0.765442 27.6502 0.765442C27.7782 0.765442 27.9063 0.765442 27.9063 0.765442C27.7782 0.765442 27.7782 0.765442 27.6502 0.765442C27.6502 0.765442 27.6502 0.765442 27.7782 0.765442H27.9063H28.0343C28.0343 0.765442 28.0343 0.765442 27.9063 0.765442C27.9063 0.765442 27.9063 0.765442 27.7782 0.765442C27.7782 0.765442 27.7782 0.765442 27.6502 0.765442C27.6502 0.765442 27.6502 0.765442 27.7782 0.765442H27.6502C27.6502 0.765442 27.5222 0.765442 27.5222 0.637868C27.5222 0.637868 27.5222 0.637868 27.3941 0.637868C27.3941 0.637868 27.3941 0.637868 27.2661 0.637868C27.2661 0.637868 27.2661 0.637868 27.5222 0.637868H27.6502C27.5222 0.637868 27.5222 0.637868 27.3941 0.637868C27.3941 0.637868 27.3941 0.637868 27.5222 0.637868C27.5222 0.637868 27.5222 0.637868 27.3941 0.637868C27.3941 0.637868 27.3941 0.637868 27.5222 0.637868C27.5222 0.637868 27.5222 0.637868 27.3941 0.637868C27.3941 0.637868 27.3941 0.637868 27.5222 0.637868H27.3941C27.3941 0.637868 27.3941 0.637868 27.2661 0.637868C27.2661 0.637868 27.2661 0.637868 27.1381 0.637868C27.1381 0.637868 27.138 0.637868 27.01 0.637868H27.1381H27.2661C27.2661 0.637868 27.2661 0.637868 27.1381 0.637868H27.01C27.01 0.637868 27.01 0.637868 26.882 0.637868C26.7539 0.637868 26.7539 0.637868 26.7539 0.637868H26.882C26.7539 0.637868 26.7539 0.637868 26.7539 0.637868C26.7539 0.637868 26.7539 0.637868 26.4979 0.637868C26.4979 0.637868 26.6259 0.637868 26.7539 0.637868H26.6259C26.4979 0.637868 26.1137 0.637868 26.1137 0.637868H26.2418C26.1137 0.637868 25.8577 0.637868 25.8577 0.637868C25.7296 0.637868 25.7296 0.637868 25.7296 0.637868H25.6016C24.7053 0.765442 24.7053 0.765442 24.7053 0.765442C24.7053 0.765442 24.7053 0.765442 24.8333 0.765442C24.8333 0.765442 24.8333 0.765442 24.7053 0.765442C24.7053 0.765442 24.7053 0.765442 24.8333 0.765442C24.8333 0.765442 24.8333 0.765442 24.9614 0.765442C24.9614 0.765442 24.9614 0.765442 24.8333 0.765442C24.8333 0.765442 24.8333 0.765442 24.7053 0.765442C24.4492 0.765442 24.4492 0.765442 24.3212 0.765442C24.3212 0.765442 24.3212 0.765442 24.4492 0.765442C24.4492 0.765442 24.4492 0.765442 24.3212 0.765442C24.3212 0.765442 24.3212 0.765442 24.4492 0.765442C24.3212 0.765442 24.3212 0.765442 24.1932 0.893016C24.3212 0.893016 24.3212 0.893016 24.4492 0.893016C24.4492 0.893016 24.4492 0.893016 24.3212 0.893016C24.4492 0.893016 24.4492 0.893016 24.5773 0.893016C24.5773 0.893016 24.5773 0.893016 24.1932 1.14816C24.1932 1.14816 24.1931 1.14816 24.0651 1.14816C23.9371 1.14816 23.9371 1.14816 23.9371 1.14816C23.809 1.14816 23.809 1.14816 23.809 1.14816C23.809 1.14816 23.809 1.14816 23.681 1.14816H23.553C23.553 1.14816 23.553 1.14816 23.681 1.14816C23.553 1.14816 23.4249 1.14816 23.2969 1.27574C23.4249 1.27574 23.553 1.14816 23.681 1.14816C23.681 1.14816 23.681 1.14816 23.553 1.14816C23.553 1.14816 23.553 1.14816 23.681 1.14816C23.681 1.27574 23.553 1.14816 23.4249 1.27574C23.4249 1.27574 23.4249 1.27574 23.4249 1.40331C23.4249 1.40331 23.4249 1.40331 23.2969 1.40331C23.2969 1.40331 23.2969 1.40331 23.1688 1.40331C23.0408 1.27574 22.9128 1.40331 22.9128 1.40331H23.0408C23.0408 1.40331 23.0408 1.40331 23.1688 1.40331C23.1688 1.40331 23.1688 1.40331 23.0408 1.40331C23.0408 1.40331 23.0408 1.40331 23.1688 1.40331H23.2969C23.2969 1.40331 23.2969 1.40331 23.0408 1.53088C23.0408 1.53088 23.0408 1.53088 23.1688 1.53088C23.1688 1.53088 23.1688 1.53088 23.0408 1.53088C23.0408 1.53088 23.0408 1.53088 22.9128 1.53088C22.9128 1.53088 22.9128 1.53088 22.7847 1.53088H22.6567C22.6567 1.53088 22.6567 1.53088 22.5286 1.53088C22.5286 1.53088 22.5286 1.53088 22.4006 1.53088C22.0165 1.65846 22.0165 1.65846 22.0165 1.65846C22.0165 1.65846 21.8884 1.65846 21.8884 1.78603C21.8884 1.78603 21.7604 1.78603 21.7604 1.91361C21.7604 1.91361 21.7604 2.04118 21.6324 2.04118C21.7604 2.04118 21.7604 2.04118 21.7604 2.04118C21.7604 2.04118 21.7604 2.04118 21.8884 2.04118C21.6324 2.16875 21.6324 2.16875 21.5043 2.16875C21.6324 2.16875 21.7604 2.04118 22.0165 2.04118C21.8884 2.04118 21.8884 2.04118 21.8884 2.04118C21.7604 2.04118 21.7604 2.04118 21.5043 2.16875C21.5043 2.16875 21.5043 2.16875 21.6324 2.16875C21.6324 2.16875 21.6324 2.16875 21.5043 2.16875C21.3763 2.16875 21.3763 2.16875 21.3763 2.29633C21.3763 2.29633 21.3763 2.29633 21.2482 2.29633C21.2482 2.4239 21.2483 2.4239 21.3763 2.4239C21.3763 2.4239 21.3763 2.4239 21.3763 2.55147C21.5043 2.55147 21.6324 2.55147 21.6324 2.55147H21.7604C21.7604 2.67905 21.7604 2.67905 21.7604 2.67905C21.7604 2.67905 21.7604 2.67905 21.8884 2.67905C22.0165 2.67905 22.1445 2.55147 22.1445 2.55147C22.2726 2.55147 22.2726 2.4239 22.4006 2.4239C22.4006 2.4239 22.4006 2.4239 22.5286 2.29633C22.6567 2.29633 22.7847 2.16875 22.7847 2.04118C22.7847 2.04118 22.7847 2.04118 22.9128 2.04118C22.9128 2.04118 22.9128 2.04118 23.0408 2.04118C23.1688 2.04118 23.1688 2.04118 23.2969 1.91361C23.4249 1.91361 23.553 1.65846 23.553 1.65846C23.553 1.65846 23.553 1.65846 23.4249 1.65846C23.4249 1.65846 23.4249 1.65846 23.553 1.65846H23.681C23.681 1.65846 23.681 1.65846 23.809 1.53088C23.809 1.53088 23.809 1.53088 23.681 1.53088C23.681 1.53088 23.681 1.40331 23.809 1.40331H23.9371C23.9371 1.40331 23.9371 1.40331 24.0651 1.40331C24.1931 1.40331 24.1931 1.40331 24.3212 1.40331C24.4492 1.40331 24.4492 1.40331 24.4492 1.27574C24.5773 1.27574 24.5773 1.27574 24.5773 1.27574C24.4492 1.27574 24.4492 1.40331 24.3212 1.40331C24.4492 1.40331 24.4492 1.40331 24.4492 1.40331H24.7053C24.9614 1.27574 25.2175 1.27574 25.3455 1.14816C25.4735 1.14816 25.4735 1.14816 25.6016 1.14816C25.7296 1.14816 25.7296 1.14816 25.8577 1.27574C25.8577 1.27574 25.8577 1.27574 25.9857 1.27574H26.1137C26.1137 1.27574 26.1137 1.27574 26.2418 1.27574C26.2418 1.27574 26.882 1.27574 27.01 1.14816C27.01 1.14816 27.01 1.14816 27.1381 1.14816C27.5222 1.14816 27.6502 1.02059 27.7782 1.02059ZM27.6502 1.02059C27.6502 1.14816 27.6502 1.14816 27.6502 1.02059C27.5222 1.14816 27.5222 1.14816 27.6502 1.02059C27.5222 1.14816 27.5222 1.02059 27.6502 1.02059ZM27.7782 0.510295C27.7782 0.637868 27.7782 0.637868 27.7782 0.510295V0.510295ZM27.6502 0C27.6502 0.127574 27.6502 0.127574 27.6502 0V0ZM27.7782 0.637868C27.7782 0.510295 27.7782 0.510295 27.7782 0.637868V0.637868ZM27.6502 0.637868C27.6502 0.510295 27.6502 0.510295 27.6502 0.637868V0.637868ZM27.3941 0C27.5222 0 27.5222 0 27.3941 0V0ZM27.1381 0.637868C27.2661 0.637868 27.2661 0.637868 27.3941 0.637868C27.3941 0.637868 27.3941 0.637868 27.5222 0.637868C27.2661 0.765442 27.2661 0.765442 27.1381 0.637868ZM27.01 0.765442C27.138 0.765442 27.1381 0.765442 27.1381 0.893016C27.1381 0.893016 27.138 0.893016 27.01 0.765442C26.882 0.765442 26.882 0.765442 27.01 0.765442ZM24.4492 0.382721C24.3212 0.382721 24.3212 0.382721 24.4492 0.382721V0.382721ZM21.8884 2.80662C21.8884 2.93419 21.8884 2.93419 21.8884 2.93419C21.7604 2.93419 21.7604 2.80662 21.8884 2.80662C21.7604 2.67905 21.8884 2.67905 21.8884 2.67905C21.7604 2.80662 21.7604 2.80662 21.8884 2.80662ZM22.7847 1.53088C22.6567 1.53088 22.6567 1.53088 22.7847 1.53088V1.53088ZM22.6567 1.53088C22.5286 1.53088 22.5286 1.53088 22.6567 1.53088V1.53088ZM22.6567 1.53088C22.5286 1.65846 22.6567 1.65846 22.6567 1.53088C22.5286 1.65846 22.5286 1.65846 22.6567 1.53088C22.5286 1.53088 22.5286 1.53088 22.6567 1.53088ZM22.5286 1.53088C22.4006 1.65846 22.5286 1.65846 22.5286 1.53088C22.4006 1.65846 22.4006 1.65846 22.5286 1.53088C22.4006 1.65846 22.4006 1.53088 22.5286 1.53088ZM22.4006 1.78603C22.2726 1.78603 22.2726 1.78603 22.4006 1.78603V1.78603ZM22.2726 1.91361C22.4006 1.91361 22.4006 1.91361 22.2726 1.91361V1.91361ZM22.4006 2.93419C22.2726 2.93419 22.2726 2.93419 22.4006 2.93419C22.4006 3.06177 22.2726 3.06177 22.2726 3.06177V2.93419C22.2726 2.93419 22.2726 2.93419 22.4006 2.93419C22.4006 2.80662 22.4006 2.80662 22.4006 2.93419C22.5286 2.80662 22.5286 2.93419 22.4006 2.93419ZM22.6567 1.65846C22.6567 1.65846 22.5286 1.65846 22.4006 1.65846H22.5286H22.6567C22.7847 1.65846 22.7847 1.65846 22.6567 1.65846C22.7847 1.65846 22.7847 1.65846 22.7847 1.65846H22.6567ZM23.1688 1.53088C23.0408 1.53088 23.0408 1.53088 23.1688 1.53088C23.0408 1.40331 23.0408 1.53088 23.1688 1.53088C23.0408 1.53088 23.0408 1.53088 23.0408 1.53088C23.0408 1.53088 23.0408 1.53088 22.9128 1.53088C22.7847 1.40331 23.0408 1.40331 23.1688 1.53088C23.0408 1.40331 23.0408 1.40331 23.1688 1.53088C23.1688 1.40331 23.1688 1.40331 23.1688 1.53088ZM23.809 2.29633L23.681 2.4239C23.681 2.4239 23.681 2.4239 23.553 2.4239C23.553 2.4239 23.553 2.29633 23.681 2.4239C23.681 2.4239 23.681 2.4239 23.809 2.29633ZM24.4492 0.255147C24.5773 0.255147 24.5773 0.255147 24.4492 0.255147V0.255147ZM24.7053 0.255147C24.5773 0.255147 24.5773 0.255147 24.7053 0.255147V0.255147ZM26.6259 0C26.4979 0 26.4979 0 26.6259 0V0ZM26.6259 0C26.4979 0 26.4979 0 26.6259 0V0Z" fill="white"/>
<path d="M55.9468 24.7493C55.8188 23.346 55.4347 21.9426 55.1786 20.6669C55.1786 20.6669 55.1786 20.6669 55.1786 20.5393V20.4118C55.1786 20.2842 55.1786 20.1566 55.0506 20.1566C55.0506 20.029 55.0506 20.029 54.9225 19.9015C54.9225 19.7739 54.9225 19.7739 54.7945 19.6463C54.7945 19.6463 54.7945 19.6463 54.7945 19.5187C54.6665 18.8809 54.4104 18.243 54.1543 17.7327C54.1543 17.7327 54.1543 17.6051 54.0263 17.4776C54.0263 17.35 53.8982 17.2224 53.8982 17.2224V17.0948C53.8982 16.9673 53.8982 16.9673 53.7702 16.8397C53.5141 16.2018 53.13 15.564 52.8739 14.7985C52.8739 14.7985 52.8739 14.7985 52.8739 14.6709C52.7459 14.5434 52.7459 14.2882 52.6178 14.1606C52.6178 14.1606 52.6178 14.1606 52.6178 14.0331C52.2337 13.2676 51.7216 12.6298 51.3374 11.8643C51.3374 11.8643 51.3374 11.7367 51.2094 11.7367C51.2094 11.7367 51.2094 11.6092 51.0814 11.6092C49.0327 8.80255 46.6 6.25108 43.6551 4.33747V4.46505C42.1186 3.44446 40.4541 2.55144 38.6616 1.786C37.7653 1.40328 37.2531 1.27571 36.3569 1.02056C36.6129 1.14813 36.869 1.14813 37.1251 1.27571C37.1251 1.27571 37.1251 1.27571 36.9971 1.27571H36.869C36.741 1.27571 36.741 1.27571 36.6129 1.14813H36.3569C36.1008 1.02056 36.1008 1.02056 35.9727 1.02056C35.9727 1.02056 35.9727 1.02056 35.8447 1.02056H35.9727C35.9727 1.02056 35.9728 1.02056 36.2288 1.14813C36.6129 1.27571 36.869 1.40328 37.2531 1.53085H36.9971C36.9971 1.53085 36.9971 1.53085 36.869 1.53085C37.1251 1.65843 37.1251 1.65843 37.7653 1.91357C37.6373 1.91357 37.3812 1.786 37.2531 1.786C37.3812 1.91357 37.5092 1.91357 37.6373 1.91357C37.7653 1.91357 37.8933 1.91357 37.8933 2.04115C37.6373 1.91357 37.6373 1.91357 37.5092 1.91357C37.2531 1.786 36.869 1.65843 36.869 1.65843C36.6129 1.53085 36.4849 1.53085 36.4849 1.53085C36.3569 1.53085 36.2288 1.40328 36.1008 1.40328C36.1008 1.40328 36.1008 1.40328 35.9727 1.40328L36.741 1.53085C36.869 1.53085 36.869 1.53085 36.869 1.53085C36.869 1.53085 36.741 1.40328 36.4849 1.27571L36.1008 1.14813C35.9728 1.14813 35.8447 1.14813 35.8447 1.14813C35.5886 1.02056 35.3326 1.02056 34.9484 1.02056C34.8204 1.02056 34.8204 1.02056 34.6924 1.02056C34.6924 1.02056 34.6924 1.02056 34.5643 1.02056C34.5643 1.02056 34.5643 1.02056 34.4363 1.02056H34.3082C34.3082 1.02056 34.3082 1.02056 34.1802 1.02056C34.0522 1.02056 34.0522 1.02056 34.0522 1.02056C34.0522 1.02056 34.0522 1.02056 33.9241 1.02056H34.0522C33.9241 0.892985 33.668 0.892985 33.668 0.892985C33.668 0.892985 33.668 0.892985 33.7961 0.892985H33.668C33.412 0.765411 33.412 0.765411 33.412 0.765411C33.54 0.765411 33.54 0.765411 33.668 0.892985C33.668 0.892985 33.668 0.892985 33.54 0.892985H33.412C33.54 0.892985 33.54 0.892985 33.668 1.02056C33.54 1.02056 33.412 0.892985 33.2839 0.892985C33.2839 0.892985 33.2839 0.892985 33.1559 0.892985H33.2839C33.2839 0.892985 33.2839 0.892985 33.1559 0.892985H33.0279C33.1559 0.892985 33.1559 0.892985 33.2839 1.02056H33.1559C33.1559 1.02056 33.1559 1.02056 33.0279 1.02056C33.0279 1.02056 33.0279 1.02056 33.1559 1.02056C33.1559 1.02056 33.1559 1.02056 33.0279 1.02056H32.8998C33.0279 1.02056 33.0279 1.02056 33.1559 1.14813C33.0279 1.14813 33.0279 1.14813 32.8998 1.02056C32.8998 1.02056 32.8998 1.02056 33.0279 1.02056C32.8998 1.02056 32.8998 1.02056 32.7718 1.02056C32.8998 1.14813 32.8998 1.14813 32.8998 1.14813C32.8998 1.14813 32.8998 1.14813 33.0279 1.14813C33.0279 1.14813 33.0279 1.14813 33.1559 1.14813C33.1559 1.14813 33.1559 1.14813 33.0279 1.14813C33.0279 1.14813 33.0279 1.14813 32.8998 1.14813C32.7718 1.14813 32.7718 1.02056 32.6437 1.02056C32.7718 1.02056 32.7718 1.02056 32.7718 1.02056C32.8998 1.14813 32.8998 1.14813 32.8998 1.14813H33.0279C33.1559 1.14813 33.1559 1.14813 33.1559 1.14813L33.2839 1.27571C33.2839 1.27571 33.2839 1.27571 33.1559 1.27571C34.1802 1.53085 34.1802 1.53085 34.1802 1.65843C34.1802 1.786 34.3082 1.786 34.3082 1.786V1.91357C34.3082 1.91357 34.3082 1.91357 34.1802 1.91357C34.1802 1.91357 34.1802 2.04115 34.3082 2.04115H34.1802L34.3082 2.16872C34.3082 2.16872 34.3082 2.16872 34.1802 2.16872C34.1802 2.16872 34.1802 2.16872 34.0522 2.16872H34.1802C34.1802 2.16872 34.1802 2.16872 34.0522 2.16872H33.9241C34.0522 2.16872 34.0522 2.29629 34.1802 2.29629C34.1802 2.29629 34.1802 2.29629 34.3082 2.29629C34.3082 2.29629 34.4363 2.2963 34.4363 2.42387C34.4363 2.42387 34.4363 2.42387 34.3082 2.42387C34.4363 2.55144 34.4363 2.55144 34.5643 2.55144C34.5643 2.55144 34.5643 2.55144 34.6924 2.55144C34.6924 2.55144 34.6924 2.55144 34.5643 2.42387C34.5643 2.42387 34.5643 2.42387 34.6924 2.42387V2.55144C34.6924 2.55144 34.6924 2.67902 34.8204 2.67902C34.8204 2.67902 34.8204 2.67902 34.8204 2.80659H34.9484C34.9484 2.80659 34.9484 2.80659 35.0765 2.80659C35.0765 2.80659 35.0765 2.80659 35.0765 2.93416C35.0765 2.93416 35.8447 3.44446 35.8447 2.93416C35.8447 2.93416 35.8447 2.93416 35.9727 2.93416C35.9727 2.93416 35.9727 2.80659 35.8447 2.80659C36.3569 2.93416 36.869 3.31688 37.2531 3.57203V3.69961C37.2531 3.69961 37.2531 3.69961 37.3812 3.82718V3.95475C37.3812 3.95475 37.5092 4.08233 37.6373 4.08233L37.7653 4.2099C37.7653 4.2099 37.7653 4.2099 37.6373 4.2099C37.6373 4.33747 37.7653 4.33747 37.7653 4.33747C37.7653 4.33747 37.7653 4.33747 37.7653 4.2099L37.6373 4.08233C37.6373 4.08233 37.6373 4.08233 37.7653 4.08233L37.6373 3.95475C37.7653 3.95475 37.8933 4.2099 38.0214 4.08233C38.0214 3.95475 37.8933 3.95475 37.8933 3.82718H38.0214C38.0214 3.82718 38.0214 3.82718 38.1494 3.82718C38.1494 3.69961 38.0214 3.57203 37.8933 3.44446C37.7653 3.31688 37.7653 3.31688 37.6373 3.31688L37.5092 3.18931H37.3812C37.3812 3.18931 37.3812 3.18931 37.3812 3.06174C37.2531 2.93416 37.2531 2.93416 37.1251 2.93416H36.9971C37.1251 2.93416 37.2531 2.93416 37.2531 2.93416C37.2531 2.93416 37.2531 2.93416 37.3812 2.93416C37.3812 2.93416 37.3812 3.06174 37.5092 3.06174C37.5092 3.06174 37.5092 3.06174 37.5092 2.93416C37.3812 2.80659 37.3812 2.80659 37.2531 2.80659C37.1251 2.67902 36.9971 2.67902 36.9971 2.67902C36.9971 2.67902 36.9971 2.80659 37.1251 2.80659C37.1251 2.80659 37.1251 2.80659 36.9971 2.80659C36.9971 2.67902 36.9971 2.67902 36.6129 2.42387C36.6129 2.42387 36.6129 2.42387 36.3569 2.16872C36.3569 2.16872 36.3569 2.16872 36.4849 2.16872H36.3569C36.4849 1.786 35.9727 1.91357 35.8447 1.65843H35.9727C35.9727 1.65843 35.9728 1.65843 36.2288 1.65843C36.3569 1.65843 36.3569 1.786 36.4849 1.786C36.4849 1.786 36.4849 1.786 36.6129 1.786C36.6129 1.786 36.6129 1.786 36.4849 1.786C36.6129 1.91357 36.741 1.91357 36.869 2.04115C36.869 2.04115 36.869 2.16872 36.9971 2.16872C36.741 2.2963 36.741 2.2963 36.869 2.42387C36.9971 2.55144 37.1251 2.55144 37.3812 2.67902C37.5092 2.80659 37.6373 2.80659 37.6373 2.80659C37.7653 2.80659 38.0214 2.93416 38.1494 2.93416C38.1494 2.93416 38.1494 2.93416 38.1494 2.80659H38.2775C38.2775 2.80659 38.2775 2.80659 38.1494 2.80659H38.2775C38.4055 2.80659 38.6616 2.93416 38.7896 2.93416H38.9177C38.7896 2.93416 38.7896 2.93416 38.7896 2.93416H38.5335C38.5335 2.93416 38.5335 2.93416 38.5335 3.06174C38.6616 3.18931 38.9176 3.31688 39.0457 3.31688L39.3018 3.57203C39.3018 3.57203 39.3018 3.57203 39.3018 3.69961C39.1737 3.69961 38.9176 3.57203 38.7896 3.44446C39.0457 3.82718 39.0457 3.82718 39.4298 4.08233L39.5578 4.2099H39.4298C39.4298 4.2099 39.4298 4.2099 39.4298 4.33747C39.4298 4.33747 39.4298 4.33747 39.5578 4.33747C39.5578 4.33747 39.5578 4.46505 39.4298 4.46505C39.3018 4.33747 38.9177 4.33747 38.9177 4.33747C38.9177 4.33747 38.9176 4.33747 38.6616 4.59262C38.6616 4.59262 38.6616 4.59262 38.6616 4.72019H38.5335C38.2775 4.59262 38.2775 4.59262 38.2775 4.59262C38.2775 4.59262 38.2775 4.59262 38.2775 4.46505H38.1494C38.1494 4.46505 38.1494 4.46505 38.1494 4.59262H37.8933C37.8933 4.59262 37.8933 4.59262 37.7653 4.59262L37.6373 4.46505C37.6373 4.46505 37.6373 4.46505 37.5092 4.46505C37.2531 4.33747 37.2531 4.33747 37.2531 4.33747H37.1251C37.1251 4.33747 37.1251 4.2099 36.9971 4.2099C36.9971 4.2099 36.9971 4.2099 36.9971 4.08233C36.9971 4.08233 36.9971 4.08233 37.3812 4.2099C37.3812 4.2099 37.3812 4.2099 37.3812 4.08233C37.2531 3.95475 37.1251 3.95475 37.1251 3.95475L36.9971 3.82718C36.9971 3.82718 36.9971 3.82718 37.1251 3.82718C37.1251 3.82718 37.1251 3.82718 37.1251 3.69961H36.9971C36.741 3.69961 36.741 3.69961 36.6129 3.57203L36.4849 3.44446C36.4849 3.44446 36.4849 3.44446 36.3569 3.44446V3.57203C36.2288 3.57203 36.2288 3.57203 36.1008 3.57203C36.1008 3.69961 36.1008 3.69961 36.741 4.2099C36.741 4.2099 36.869 4.2099 36.869 4.33747C36.869 4.33747 36.869 4.33747 36.869 4.46505C36.9971 4.59262 37.1251 4.59262 37.2531 4.72019H37.1251C36.9971 4.72019 36.9971 4.72019 36.9971 4.72019C36.9971 4.72019 36.9971 4.72019 36.869 4.72019C36.741 4.59262 36.741 4.59262 36.6129 4.59262C36.6129 4.59262 36.741 4.59262 36.741 4.72019C36.4849 4.72019 36.4849 4.72019 36.4849 4.72019C36.3569 4.72019 36.3569 4.72019 36.2288 4.72019H36.3569L36.4849 4.84777C36.869 4.97534 36.741 5.10292 36.741 5.10292V5.23049C36.741 5.23049 36.741 5.23049 36.6129 5.23049C36.6129 5.23049 36.741 5.23049 36.741 5.35806C36.741 5.35806 36.741 5.35806 36.6129 5.35806L36.741 5.48564C36.741 5.48564 36.741 5.48564 36.6129 5.48564L36.4849 5.35806C36.4849 5.35806 36.4849 5.35806 36.4849 5.48564C36.3569 5.61321 36.3569 5.61321 36.2288 5.61321H36.1008V5.74078C36.1008 5.74078 36.1008 5.86836 36.2288 5.86836C36.2288 5.86836 36.2288 5.86836 36.2288 5.99593C35.9728 6.12351 35.9727 6.12351 35.9727 6.12351V6.25108H35.8447C35.7167 6.25108 35.5886 6.25108 35.4606 6.25108C35.4606 6.25108 35.4606 6.25108 35.4606 6.12351H35.3326C35.3326 6.25108 35.4606 6.25108 35.5886 6.37865C35.5886 6.37865 35.5886 6.37865 35.2045 6.50623C35.0765 6.37865 35.0765 6.37865 34.9484 6.37865C34.8204 6.37865 34.6924 6.37865 34.5643 6.37865H34.6924L34.8204 6.50623C34.9484 6.50623 34.9484 6.50623 34.9484 6.50623C35.2045 6.6338 35.3326 6.50623 35.5886 6.6338L36.1008 7.01652L36.2288 7.14409C36.2288 7.14409 36.2288 7.14409 36.1008 7.01652C36.1008 7.14409 36.2288 7.27167 36.3569 7.39924C36.3569 7.65439 36.741 7.90954 36.3569 8.03711C36.2288 8.03711 36.2288 8.03711 36.2288 8.03711C36.1008 8.03711 36.1008 8.03711 35.9727 8.03711C35.8447 8.03711 35.5886 8.03711 35.4606 8.03711C35.2045 7.90954 34.4363 8.03711 34.4363 8.03711H34.3082C34.3082 8.03711 34.3082 8.03711 34.3082 7.90954C34.3082 7.90954 34.3082 7.90954 34.1802 7.90954C34.1802 8.03711 33.9241 8.03711 33.7961 8.16468C33.9241 8.29226 33.9241 8.29226 34.0522 8.29226C34.0522 8.93013 34.1802 9.18527 34.1802 9.568C34.1802 9.69557 34.1802 9.69557 34.1802 9.82314C34.0522 9.95072 34.0522 10.2059 34.1802 10.2059C34.1802 10.2059 34.1802 10.3334 34.3082 10.3334H34.4363C34.5643 10.461 34.4363 10.461 34.5643 10.5886V10.7162C34.5643 10.8437 34.5643 10.8437 34.6924 10.8437H34.8204C35.0765 10.9713 35.0765 10.8437 35.0765 10.8437C35.2045 10.8437 35.3326 10.8437 35.3326 10.8437C35.5886 10.9713 35.7167 11.354 35.9727 11.354H36.1008C36.1008 11.0989 36.4849 11.0989 36.4849 11.0989H36.9971C37.1251 11.0989 37.1251 11.0989 37.1251 11.0989C37.2531 11.0989 37.2531 11.0989 37.2531 11.0989C37.3812 10.9713 37.2531 10.9713 37.3812 10.8437C37.5092 10.7162 37.6373 10.8437 37.6373 10.7162C37.6373 10.5886 37.6373 10.5886 37.6373 10.461C37.6373 10.3334 37.7653 10.3334 37.8933 10.3334L37.5092 10.0783C37.5092 9.95072 37.5092 9.82314 37.6373 9.69557C37.7653 9.44042 38.2775 9.44042 38.4055 9.0577C38.5335 8.80255 38.1494 8.67498 38.1494 8.54741C38.2775 8.41983 38.2775 8.41983 39.0457 8.54741C39.3018 8.54741 39.5578 8.29226 39.6859 8.03711C39.942 8.03711 39.942 8.03711 40.5822 8.41983C40.9663 8.93013 42.5027 9.44042 42.5027 9.44042C42.6308 9.44042 42.6308 9.44042 42.7588 9.568C42.7588 9.568 42.8869 9.69557 42.8869 9.568H43.0149C43.0149 9.568 43.0149 9.69557 43.1429 9.69557C43.1429 9.69557 43.271 9.69557 43.271 9.82314C43.271 9.82314 43.271 9.82314 43.271 9.95072C43.271 9.95072 43.271 9.95072 43.399 10.0783V10.3334C43.399 10.3334 43.399 10.461 43.5271 10.3334C43.5271 10.3334 43.5271 10.3334 43.5271 10.2059C43.5271 10.2059 43.5271 10.0783 43.5271 9.95072C43.6551 9.95072 43.6551 9.95072 43.6551 9.82314C43.5271 9.69557 43.5271 9.69557 43.399 9.568C43.399 9.568 43.399 9.568 43.271 9.31285V9.18527C43.399 9.18527 43.399 9.18527 43.5271 9.31285H43.6551L43.9112 9.568V9.44042C43.6551 9.18527 43.1429 9.18527 42.8869 8.93013C42.8869 8.80255 42.8869 8.67498 42.7588 8.80255C42.1186 8.54741 41.0943 7.78196 41.0943 7.78196C41.0943 7.78196 41.0943 7.78196 41.0943 7.65439C41.0943 7.65439 41.0943 7.65439 40.8382 7.39924C41.0943 7.27167 41.0943 7.27167 41.2224 7.27167C41.2224 7.39924 41.3504 7.52682 41.4784 7.52682V7.39924C41.4784 7.39924 41.4784 7.39924 41.4784 7.27167C41.6065 7.27167 42.5027 7.90954 42.6308 8.03711C42.6308 8.03711 42.6308 8.03711 42.7588 8.03711C43.6551 8.54741 43.6551 8.54741 43.7831 8.54741C44.0392 8.67498 44.1673 9.0577 44.2953 9.18527C44.4233 9.18527 44.4233 9.31285 44.5514 9.31285C44.4233 9.44042 44.5514 9.44042 44.5514 9.44042C44.5514 9.44042 44.6794 9.568 44.8074 9.568C44.8074 9.568 44.9355 9.69557 45.0635 9.69557C45.0635 9.82314 45.0635 9.82314 45.0635 9.82314L45.1916 9.95072C45.3196 10.0783 45.3196 10.0783 45.3196 9.95072C45.4476 9.95072 45.4476 9.95072 45.4476 9.95072H45.5757L45.8318 10.0783C45.8318 10.0783 45.8318 10.0783 45.7037 10.0783C45.3196 9.95072 45.3196 9.95072 45.3196 9.95072C45.1916 9.95072 45.3196 9.95072 45.3196 10.0783C45.3196 10.0783 45.3196 10.0783 45.3196 10.2059C45.3196 10.3334 45.4476 10.3334 45.5757 10.3334C45.5757 10.3334 45.5757 10.461 45.7037 10.461L45.8318 10.5886C45.8318 10.5886 45.8318 10.5886 45.8318 10.461C45.8318 10.461 45.9598 10.461 45.9598 10.5886C46.0878 10.7162 46.0878 10.5886 46.0878 10.5886C46.0878 10.5886 46.0878 10.5886 46.2159 10.5886C46.2159 10.5886 46.2159 10.5886 46.3439 10.5886C46.3439 10.5886 46.3439 10.5886 46.0878 10.2059C46.0878 10.2059 46.3439 10.3334 46.3439 10.2059C46.3439 10.2059 46.3439 10.2059 46.2159 10.2059L46.0878 10.0783H46.2159C46.3439 10.2059 46.3439 10.2059 46.3439 10.2059L45.7037 10.461C45.7037 10.2059 45.3196 10.0783 45.1916 10.0783C45.1916 9.95072 45.0635 9.95072 45.0635 9.95072C45.0635 9.95072 45.1916 10.0783 45.1916 9.95072C45.0635 9.82314 44.8074 9.69557 44.6794 9.568V9.44042C44.8074 9.568 44.8074 9.568 44.8074 9.568C44.8074 9.44042 44.8074 9.44042 44.6794 9.31285H44.8074C44.8074 9.31285 44.8074 9.31285 44.8074 9.18527H44.9355C45.1916 9.18527 45.1916 9.18527 45.1916 9.18527L45.3196 9.31285C45.3196 9.31285 45.3196 9.31285 45.4476 9.31285C45.4476 9.31285 45.4476 9.31285 45.5757 9.31285C45.5757 9.31285 45.5757 9.31285 45.5757 9.18527H45.7037C45.8318 9.18527 45.8318 9.18527 45.9598 9.31285C45.9598 9.31285 45.9598 9.31285 45.9598 9.44042L45.8318 9.568C45.8318 9.568 45.8318 9.568 45.8318 9.69557C45.8318 9.69557 45.8318 9.69557 45.7037 9.69557C45.7037 9.69557 45.7037 9.69557 45.5757 9.69557C45.5757 9.69557 45.5757 9.69557 45.4476 9.69557C45.4476 9.69557 45.4476 9.69557 45.4476 9.82314C45.7037 9.568 45.7037 9.568 45.7037 9.568L45.8318 9.82314C45.9598 9.82314 45.9598 9.82314 45.9598 9.95072C45.9598 9.95072 45.9598 9.95072 46.2159 10.2059C46.2159 10.2059 46.2159 10.3334 46.3439 10.3334C46.3439 10.461 46.3439 10.461 46.472 10.461C46.6 10.5886 46.728 10.5886 46.728 10.5886L46.8561 10.7162C46.8561 10.7162 46.9841 10.7162 46.9841 10.8437V10.9713H47.1122C47.1122 11.0989 47.1122 11.0989 47.2402 11.0989C47.3682 11.0989 47.4963 11.0989 47.4963 11.2265C47.6243 11.354 47.7523 11.354 47.7523 11.354C47.7523 11.354 47.7523 11.354 47.6243 11.0989C47.6243 11.0989 47.6243 11.0989 48.0084 11.2265C48.2645 11.2265 48.2645 11.2265 48.2645 11.2265H48.3925C48.3925 11.0989 48.3925 11.0989 48.3925 10.9713C48.5206 10.9713 48.5206 10.9713 48.6486 11.0989V10.9713C48.7767 11.0989 48.7767 11.2265 48.9047 11.354C48.9047 11.4816 48.9047 11.4816 49.1608 11.6092C49.2888 11.7367 49.2888 11.7367 49.4169 11.8643C49.5449 12.3746 49.929 12.7573 49.929 13.2676V13.3952C49.801 13.3952 49.801 13.3952 49.6729 13.3952C49.5449 13.3952 49.5449 13.3952 49.5449 13.3952C49.5449 13.2676 49.5449 13.2676 49.1608 13.1401C49.1608 13.2676 49.1608 13.2676 49.0327 13.3952L48.9047 13.5228H48.7767C48.7767 13.5228 47.8804 13.1401 47.7523 13.2676C47.7523 13.1401 47.6243 13.1401 47.6243 13.0125H47.4963C47.2402 12.8849 47.1122 12.8849 46.9841 12.8849C46.728 12.3746 46.2159 12.6298 46.2159 12.8849C46.0878 13.2676 46.6 13.3952 46.472 13.7779C46.472 13.9055 46.3439 13.9055 46.3439 13.9055C45.8318 13.6504 45.3196 13.2676 44.6794 13.0125C44.1673 12.7573 43.399 13.0125 43.0149 12.5022H42.8869C42.7588 12.5022 42.6308 12.3746 42.6308 12.3746C42.6308 12.3746 42.5027 12.247 42.5027 12.1195C42.5027 12.1195 42.6308 12.1195 42.6308 11.9919C42.6308 11.8643 42.6308 11.8643 42.7588 11.7367C42.6308 11.4816 42.3747 11.4816 42.2467 11.2265C42.3747 11.0989 42.3747 11.0989 42.2467 10.8437C42.2467 10.8437 42.1186 10.9713 41.9906 10.9713C41.9906 10.8437 41.8625 10.8437 41.8625 10.7162C41.7345 10.7162 41.7345 10.7162 41.7345 10.7162C41.7345 10.7162 41.7345 10.5886 41.6065 10.5886C41.2224 10.8437 41.2224 10.8437 41.2224 10.8437H40.9663C40.8382 10.8437 40.8382 10.8437 40.7102 10.8437C40.5822 10.8437 40.5822 10.8437 40.4541 10.7162C40.4541 10.7162 40.4541 10.7162 40.4541 10.8437C40.3261 10.8437 40.3261 10.8437 40.198 10.9713C40.198 10.9713 40.198 10.9713 40.07 10.9713C39.6859 10.7162 39.3018 10.9713 39.3018 10.9713C39.0457 10.9713 38.1494 11.0989 37.6373 11.7367H37.5092C37.3812 11.7367 37.2531 11.7367 37.1251 11.6092C36.9971 11.6092 36.869 11.6092 36.869 11.6092C36.741 11.6092 36.6129 11.6092 36.6129 11.7367C36.4849 11.7367 36.1008 11.4816 36.1008 11.4816C36.1008 11.4816 36.1008 11.4816 35.9727 11.6092C35.8447 11.8643 35.9728 12.1195 35.7167 12.3746C35.4606 12.6298 35.0765 12.6298 34.9484 12.8849C34.8204 13.0125 34.6924 13.6504 34.6924 13.6504C34.6924 13.7779 34.6924 13.7779 34.6924 13.7779V13.9055L34.8204 14.0331C34.8204 14.1606 34.6924 14.4158 34.4363 14.6709L33.1559 15.6915C33.1559 15.9467 32.8998 15.9467 32.7718 15.9467C32.7718 15.9467 32.7718 15.9467 32.7718 16.0743C32.5157 16.5845 32.5157 16.5845 32.5157 16.8397C32.1316 17.2224 32.0035 17.35 32.0035 17.4776C32.0035 17.4776 32.0035 17.4776 32.0035 17.6051L31.4914 18.6257C31.4914 18.7533 31.4914 18.7533 31.4914 18.8809C31.6194 18.8809 31.7475 19.0084 31.7475 19.0084C31.7475 19.136 31.8755 19.2636 31.8755 19.3912V19.5187C31.6194 20.029 32.2596 20.4118 32.0035 20.9221C31.8755 21.3048 31.8755 21.6875 31.6194 22.0702C31.4914 22.1978 31.4914 22.1978 31.3633 22.3254L31.4914 22.4529C31.8755 22.8357 31.8755 23.0908 31.8755 23.0908H32.0035V23.2184H31.8755C31.8755 23.346 31.8755 23.4735 31.8755 23.6011C32.0035 23.6011 32.0035 23.6011 32.1316 23.7287V23.8562C32.1316 23.8562 32.2596 23.9838 32.3877 23.9838H32.5157L32.6437 23.8562V23.9838H32.7718C32.7718 23.9838 32.6437 23.9838 32.6437 24.1114L34.0522 25.6423L33.9241 25.7699H34.0522C34.0522 25.8974 34.1802 26.1526 35.3326 26.6629V26.7904C35.9727 26.918 36.1008 28.0662 36.9971 27.811C38.6616 27.1732 38.6616 27.1732 38.9177 27.4283H39.0457V27.3007H39.1737C39.1737 27.4283 39.1737 27.4283 39.3018 27.5559C39.4298 27.5559 39.4298 27.5559 39.8139 27.6835C40.4541 27.1732 41.3504 27.1732 41.9906 26.7904C42.3747 26.918 42.8869 26.5353 43.1429 27.0456H43.271V27.1732H43.399C43.5271 27.4283 43.5271 27.6835 43.6551 27.811H43.7831C43.9112 27.9386 43.9112 27.9386 44.1673 27.811V27.6835C44.1673 27.6835 44.2953 27.6835 44.2953 27.811C44.2953 27.811 44.2953 27.811 44.4233 27.6835H44.5514C44.6794 27.6835 44.8074 27.6835 44.9355 27.5559V27.4283L45.0635 27.5559H45.1916C45.1916 27.811 45.3196 27.811 45.4476 27.811H45.5757C45.5757 27.811 45.5757 27.9386 45.7037 27.9386C45.4476 27.9386 45.7037 28.0662 45.7037 28.3213V28.4489C45.7037 28.704 45.5757 29.4695 45.5757 29.4695C45.5757 29.5971 45.5757 29.5971 45.5757 29.5971H45.4476C45.4476 29.7246 45.4476 29.7246 45.5757 29.8522C45.5757 29.8522 45.5757 29.8522 45.4476 29.8522L45.3196 29.9798V30.2349C45.1916 30.3625 45.1916 30.3625 45.0635 30.4901C45.0635 30.4901 45.1916 30.6177 45.1916 30.7452L45.3196 30.8728C45.3196 30.8728 45.3196 31.0004 45.1916 31.0004H45.3196C45.3196 31.1279 45.3196 31.1279 45.3196 31.2555H45.4476V31.3831C45.4476 31.3831 46.2159 32.2761 46.2159 33.0415C46.2159 33.0415 46.3439 33.1691 46.472 33.1691C46.472 33.1691 46.472 33.1691 46.6 33.0415V33.1691C46.472 33.1691 46.472 33.2967 46.3439 33.2967C46.472 33.6794 46.472 33.6794 46.6 35.9757C46.3439 36.7412 45.8318 37.2515 45.5757 37.8894C45.3196 38.3996 45.3196 38.3996 45.0635 39.1651C44.6794 40.0581 45.4476 41.0787 45.1916 41.9717C45.1916 41.9717 45.1916 41.9717 45.0635 42.0993C45.0635 42.2269 44.9355 42.3544 44.9355 42.3544C44.8074 42.9923 44.5514 43.5026 44.4233 44.1405C44.4233 44.3956 44.5514 44.6508 44.5514 44.7783L44.2953 45.9265C44.2953 46.0541 44.1673 46.1816 44.0392 46.3092L43.9112 46.4368C43.9112 46.4368 43.9112 46.8195 43.6551 46.9471H43.7831C43.7831 46.9471 43.7831 46.9471 43.7831 47.0747H43.9112V47.2022C43.9112 47.2022 43.9112 47.2022 44.0392 47.2022C44.5514 46.9471 44.5514 46.9471 44.9355 46.9471C44.9355 46.9471 44.9355 46.9471 45.0635 46.9471C45.0635 46.9471 45.0635 46.9471 45.1916 46.9471C45.1916 46.9471 45.3196 46.9471 45.3196 46.8195C45.3196 46.8195 45.4476 46.8195 45.4476 46.9471L45.5757 46.8195C45.5757 46.8195 45.7037 46.8195 45.7037 46.6919C45.7037 46.6919 45.7037 46.6919 45.8318 46.6919C46.0878 46.5644 47.1122 46.1816 48.9047 44.0129C49.0327 43.8853 49.1608 43.7577 49.1608 43.5026C49.0327 43.6302 49.0327 43.7577 48.9047 43.8853C49.0327 43.7577 49.0327 43.7577 49.2888 43.375C49.2888 43.375 49.2888 43.375 49.2888 43.2475C49.2888 43.2475 49.2888 43.2474 49.2888 43.1199C49.6729 42.7372 50.1851 42.6096 50.4412 42.0993C50.5692 41.9717 50.5692 41.8441 50.6973 41.589L50.8253 41.4614C50.8253 41.4614 50.8253 41.589 50.6973 41.589C50.8253 41.3338 50.8253 41.3338 51.2094 40.3133C51.3374 40.3133 52.3618 39.2927 53.13 38.1445C53.13 38.0169 53.258 37.8894 53.258 37.7618C53.258 37.6342 53.258 37.6342 53.258 37.5066C53.3861 37.2515 53.3861 36.9963 53.5141 36.7412C53.8982 35.9757 53.7702 35.0827 54.0263 34.3173C54.0263 34.1897 54.1543 34.1897 54.1543 33.9346V33.807C54.2823 33.4243 54.2823 33.4243 54.2823 33.4243C54.2823 33.2967 54.2823 33.1691 54.2823 33.1691V33.0415C54.7945 31.3831 55.4347 29.9798 55.8188 28.3213C55.9469 27.4283 56.0749 26.6629 55.9468 25.3871C55.9468 25.2596 55.9468 25.132 55.9468 25.0044V24.7493ZM37.1251 1.65843C37.1251 1.53085 37.1251 1.53085 37.1251 1.65843V1.65843ZM33.54 1.02056C33.668 1.02056 33.668 1.14813 33.7961 1.14813C33.7961 1.14813 33.7961 1.14813 33.668 1.14813C33.668 1.02056 33.54 1.02056 33.54 1.02056ZM33.9241 1.27571C33.7961 1.27571 33.7961 1.27571 33.7961 1.27571C33.7961 1.14813 33.7961 1.14813 33.9241 1.27571C33.7961 1.14813 33.9241 1.14813 33.9241 1.27571C33.9241 1.14813 33.9241 1.14813 33.9241 1.27571ZM34.4363 2.55144H34.3082C34.1802 2.42387 34.3082 2.55144 34.4363 2.55144ZM34.3082 1.65843C34.1802 1.53085 34.1802 1.53085 34.3082 1.65843C34.3082 1.53085 34.1802 1.53085 34.3082 1.65843C34.3082 1.53085 34.3082 1.53085 34.3082 1.65843ZM34.4363 1.786C34.3082 1.786 34.3082 1.65843 34.3082 1.65843L34.4363 1.786ZM34.5643 2.04115C34.6924 2.04115 34.6924 2.16872 34.5643 2.04115C34.6924 2.04115 34.6924 2.04115 34.5643 2.04115C34.6924 1.91357 34.6924 1.91357 34.6924 1.91357H34.8204C34.5643 2.16872 34.5643 2.16872 34.5643 2.04115ZM34.6924 2.67902C34.8204 2.67902 34.8204 2.67902 34.6924 2.67902C34.8204 2.55144 34.8204 2.55144 34.6924 2.67902ZM36.2288 1.53085C36.1008 1.53085 36.1008 1.53085 36.2288 1.53085H36.1008C35.9728 1.53085 35.9727 1.53085 35.9727 1.53085C35.9727 1.53085 35.9728 1.40328 36.2288 1.53085ZM38.5335 2.42387C38.6616 2.42387 38.6616 2.42387 38.7896 2.55144C38.6616 2.55144 38.6616 2.42387 38.5335 2.42387ZM39.0457 2.93416H38.9177C38.7896 2.80659 38.7896 2.80659 38.6616 2.80659C38.6616 2.80659 38.4055 2.67902 38.2775 2.67902L38.1494 2.55144C38.1494 2.55144 38.1494 2.55144 38.2775 2.55144C38.4055 2.55144 38.5335 2.67902 38.6616 2.67902H38.7896L39.0457 2.93416C38.9176 2.80659 39.0457 2.80659 39.0457 2.93416C39.0457 2.80659 39.0457 2.80659 39.0457 2.93416ZM36.4849 3.82718C36.3569 3.69961 36.3569 3.69961 36.4849 3.82718V3.82718ZM36.4849 7.65439C36.4849 7.52682 36.4849 7.52682 36.4849 7.65439C36.3569 7.52682 36.4849 7.52682 36.4849 7.52682C36.4849 7.52682 36.4849 7.52682 36.4849 7.65439C36.6129 7.65439 36.6129 7.65439 36.4849 7.65439ZM37.6373 9.18527C37.7653 9.18527 37.7653 9.18527 37.6373 9.18527V9.18527ZM43.399 8.67498C43.399 8.80255 43.399 8.80255 43.399 8.67498V8.67498ZM44.8074 9.95072C44.8074 10.0783 44.8074 10.0783 44.8074 9.95072C44.6794 10.0783 44.8074 10.0783 44.8074 9.95072C44.6794 10.0783 44.6794 9.95072 44.8074 9.95072ZM47.6243 9.18527C47.4963 9.18527 47.4963 9.18527 47.4963 9.18527C47.2402 8.93013 47.2402 8.93013 47.1122 8.93013C46.9841 8.80255 46.8561 8.80255 46.728 8.67498C46.6 8.67498 46.6 8.67498 46.472 8.67498C46.472 8.67498 46.472 8.67498 46.472 8.93013C46.2159 8.80255 45.8318 8.80255 45.5757 8.54741C45.1916 8.03711 45.1916 8.03711 45.0635 7.90954C44.9355 7.78196 44.8074 7.52682 44.6794 7.39924H44.8074C44.8074 7.27167 44.8074 7.27167 44.5514 7.01652C44.5514 6.88895 44.5514 6.88895 44.4233 6.76137V6.6338H44.5514C44.4233 6.50623 44.4233 6.50623 44.2953 6.37865C44.4233 6.50623 44.5514 6.50623 44.6794 6.6338C44.6794 6.6338 44.6794 6.6338 44.5514 6.6338C44.5514 6.76137 44.6794 6.76137 44.8074 6.76137C44.9355 6.76137 44.9355 6.76137 45.0635 6.88895V7.01652C45.0635 7.01652 45.0635 7.01652 45.0635 7.14409C45.1916 7.14409 45.3196 7.27167 45.4476 7.27167C45.4476 7.39924 45.5757 7.39924 45.7037 7.39924V7.27167C45.7037 7.27167 45.7037 7.27167 45.8318 7.27167C45.8318 7.27167 45.8318 7.27167 45.8318 7.14409H45.9598L45.8318 7.01652H45.7037C45.5757 6.88895 45.5757 6.88895 45.3196 6.76137C45.3196 6.76137 45.1916 6.76137 45.1916 6.6338H45.3196C45.3196 6.50623 45.3196 6.50623 45.3196 6.37865C45.3196 6.37865 45.3196 6.37865 45.3196 6.25108C45.3196 6.25108 45.3196 6.25108 45.4476 6.25108V6.12351C45.4476 6.12351 45.4476 6.12351 45.4476 5.99593C45.5757 5.99593 45.5757 5.99593 45.5757 6.25108C45.7037 6.37865 45.8318 6.37865 45.9598 6.50623C45.9598 6.6338 45.9598 6.6338 46.0878 6.76137H45.9598C45.9598 6.88895 46.472 7.14409 46.472 7.14409C46.8561 7.39924 46.8561 7.39924 47.4963 7.78196C47.4963 8.67498 47.7523 8.93013 47.6243 9.18527C47.7523 9.0577 47.7523 9.0577 47.6243 9.18527ZM49.6729 12.6298C49.801 12.6298 49.801 12.6298 49.6729 12.6298V12.7573C49.801 12.7573 49.801 12.6298 49.6729 12.6298Z" fill="white"/>
<path d="M22.0165 0.765409C22.0165 0.765409 22.0165 0.765409 21.6324 0.892983C21.7604 0.892983 21.7604 0.892983 21.8884 0.892983H21.7604C21.7604 0.892983 21.7604 0.892983 21.8884 0.892983C21.7604 0.892983 21.7604 0.892983 21.6324 0.892983C21.7604 0.892983 21.7604 0.892983 21.8884 0.765409H22.0165C22.1445 0.637836 22.1445 0.637836 22.2726 0.637836C22.2726 0.637836 22.0165 0.637836 21.8884 0.765409C21.8884 0.765409 21.8884 0.765409 21.7604 0.765409C21.7604 0.765409 21.7604 0.765409 21.8884 0.765409C21.7604 0.765409 21.6324 0.765409 21.6324 0.892983C21.6324 0.892983 21.6324 0.892983 21.5043 0.892983H21.3763C21.3763 0.892983 21.3763 0.892983 21.2482 0.892983H21.1202H20.9922C20.9922 0.892983 20.9922 0.892983 21.1202 0.892983H21.2482C21.3763 0.892983 21.3763 0.892983 22.2726 0.637836H22.1445C22.0165 0.637836 22.0165 0.637836 22.0165 0.765409C22.0165 0.637836 22.0165 0.637836 22.0165 0.637836C22.0165 0.637836 21.8884 0.637836 21.7604 0.637836C21.6324 0.637836 21.6324 0.637836 21.6324 0.637836C21.5043 0.637836 21.3763 0.637836 21.1202 0.765409C20.9922 0.765409 20.8641 0.765409 20.7361 0.892983H20.608C20.48 0.892983 20.48 0.892983 20.352 0.892983C20.0959 0.892983 20.0959 1.02056 20.0959 1.02056C19.8398 1.2757 19.8398 1.2757 19.7118 1.2757C19.7118 1.2757 19.5837 1.40328 19.4557 1.40328C19.3277 1.40328 19.3277 1.40328 19.1996 1.53085C18.8155 1.65843 18.8155 1.65842 18.8155 1.65842C18.6875 1.65842 18.6875 1.65842 18.3033 1.786H18.4314C18.5594 1.786 18.5594 1.65842 18.6875 1.65842C18.6875 1.65842 18.6875 1.65842 18.8155 1.65842C18.6875 1.65842 18.6875 1.786 18.5594 1.786C18.3033 1.91357 18.1753 1.91357 18.0473 2.04115H17.9192C17.6632 2.16872 17.4071 2.16872 17.151 2.29629C17.023 2.29629 16.8949 2.42387 16.7669 2.42387C13.3098 3.82718 10.3649 5.86836 7.80414 8.5474C7.6761 8.67498 7.54806 8.80255 7.42002 8.93013L7.29198 9.0577C7.16394 9.18527 7.0359 9.31285 6.90787 9.44042C6.77983 9.69557 6.65179 9.82314 6.52375 9.95071C6.52375 9.95071 6.52375 10.0783 6.39571 10.0783C6.39571 10.2059 6.26767 10.3334 6.13963 10.461C6.13963 10.461 6.13963 10.461 6.13963 10.5886C5.88355 10.7162 5.75551 10.8437 5.62747 11.0989C5.62747 11.0989 5.62747 11.2265 5.49944 11.2265C5.49944 11.354 5.3714 11.4816 5.24336 11.6092C5.24336 11.6092 5.24336 11.6092 5.11532 11.7367C5.11532 11.8643 4.98728 11.9919 4.85924 12.1195C4.85924 12.1195 4.85924 12.247 4.7312 12.247C4.7312 12.3746 4.60316 12.5022 4.60316 12.6298C4.60316 12.6298 4.60316 12.7573 4.47512 12.7573C4.34708 12.8849 4.21904 13.1401 4.21904 13.2676C4.21904 13.2676 4.21904 13.3952 4.09101 13.3952C3.96297 13.5228 3.96297 13.6504 3.83493 13.7779C3.83493 13.7779 3.83493 13.9055 3.70689 13.9055C3.57885 14.0331 3.45081 14.2882 3.45081 14.4158C3.45081 14.4158 3.45081 14.4158 3.45081 14.5434C3.32277 14.6709 3.32277 14.7985 3.19473 15.0537V15.1812C3.06669 15.3088 3.06669 15.564 2.93865 15.6915V15.8191C2.81061 15.9467 2.81061 16.2018 2.68257 16.3294C2.68257 16.3294 2.68257 16.3294 2.68257 16.457C2.55454 16.5845 2.55454 16.8397 2.4265 16.9673V17.0948C2.29846 17.2224 2.29846 17.4776 2.17042 17.6051C2.17042 17.7327 2.04238 17.8603 2.04238 17.9879V18.1154C2.04238 18.243 1.91434 18.243 1.91434 18.3706V18.4982C1.91434 18.6257 1.7863 18.6257 1.7863 18.7533V18.8809C1.7863 19.0084 1.65826 19.136 1.65826 19.2636C1.65826 19.2636 1.65826 19.2636 1.65826 19.3912C1.65826 19.5187 1.53022 19.6463 1.53022 19.6463V19.7739C1.53022 19.9015 1.53022 19.9015 1.40218 20.029V20.1566C1.40218 20.2842 1.40218 20.4118 1.27414 20.5393C1.27414 20.5393 1.27414 20.5393 1.27414 20.6669C1.27414 20.7945 1.14611 20.9221 1.14611 21.0496C1.01807 21.4323 1.01807 21.5599 1.01807 21.6875C1.01807 21.8151 1.01807 22.3254 1.01807 22.3254C1.01807 22.3254 1.14611 22.0702 1.27414 21.9426C1.27414 21.9426 1.27414 22.9632 1.40218 23.2184H1.53022C1.65826 23.6011 1.7863 23.6011 1.91434 23.6011C1.91434 23.6011 1.91434 23.6011 1.91434 23.4735C1.91434 23.6011 1.91434 23.7287 1.91434 23.7287C1.91434 23.8562 2.17042 25.5147 2.17042 25.5147C2.17042 25.3871 2.17042 25.3871 2.17042 25.2596C2.29846 25.3871 2.29846 25.3871 2.29846 25.5147C2.29846 25.5147 2.29846 25.5147 2.29846 25.6423C2.04238 25.5147 2.04238 25.5147 2.17042 26.025V25.8974C2.17042 25.8974 2.17042 25.8974 2.29846 26.1526C2.4265 26.1526 2.4265 26.1526 2.55454 26.1526C2.68257 26.4077 2.68257 26.4077 2.81061 26.6629C2.93865 26.5353 2.93865 26.5353 2.93865 26.5353C2.93865 26.4077 2.68257 26.1526 2.93865 26.025C2.93865 26.025 2.93865 26.025 3.19473 25.6423H3.32277C3.32277 25.7698 3.32277 25.7698 3.57885 26.025C3.45081 26.1526 3.45081 26.1526 3.70689 27.5559C3.70689 27.811 3.70689 27.811 3.70689 28.0662C3.57885 28.4489 3.57885 28.8316 3.57885 29.2143C3.32277 29.2143 3.32277 29.2143 3.32277 29.5971H3.19473C3.19473 29.9798 3.19473 29.9798 3.19473 29.9798C3.19473 30.1074 2.93865 30.1074 3.06669 30.2349V30.4901C3.06669 30.6176 3.06669 30.7452 3.06669 30.8728C3.06669 31.0004 2.93865 31.1279 2.93865 31.2555C2.93865 31.3831 3.06669 31.5107 3.06669 31.7658V31.8934C3.06669 31.8934 3.06669 31.8934 3.19473 32.1485L3.32277 32.021C3.45081 32.1485 3.45081 32.1485 3.45081 32.2761C3.32277 32.4037 3.32277 32.4037 3.32277 32.4037C3.32277 32.4037 3.32277 32.4037 3.32277 32.5313C3.19473 32.6588 3.19473 33.0415 3.19473 33.0415C3.06669 33.4243 3.45081 33.5518 3.45081 33.9346C3.32277 33.9346 3.45081 34.0621 3.45081 34.1897C3.45081 34.0621 3.45081 34.0621 3.45081 34.0621L3.70689 34.4449C3.70689 34.4449 3.70689 34.4449 3.83493 34.5724C3.96297 34.8276 3.96297 34.9552 4.09101 34.9552C4.60316 35.593 4.7312 36.486 5.24336 37.1239L5.3714 37.2515C5.75551 37.7618 5.75551 37.8894 5.75551 37.8894C5.75551 38.0169 5.75551 38.0169 5.75551 38.1445C6.13963 38.5272 6.65179 39.2927 7.29198 39.4202C7.42002 39.5478 7.54806 39.6754 7.6761 39.6754C7.93218 40.1857 8.44433 40.5684 8.70041 41.0787C8.82845 41.589 9.08453 41.9717 9.21257 42.3544C9.21257 42.3544 9.21257 42.3544 9.21257 42.482C9.21257 42.6096 9.34061 42.6096 9.34061 42.7371C9.46865 43.1199 9.85277 43.7577 9.85277 43.7577C10.493 45.161 10.493 45.161 10.621 45.2886V45.4162C10.8771 45.9265 10.8771 45.9265 11.5173 46.6919C11.6453 46.9471 11.6453 46.9471 11.7734 47.0747C11.7734 47.5849 12.4135 47.8401 12.5416 48.3504V48.478C12.5416 48.478 12.5416 48.478 12.9257 48.8607C12.9257 48.8607 12.9257 48.8607 13.1818 49.1158C13.3098 49.2434 13.3098 49.2434 13.4379 49.371C13.6939 49.7537 14.0781 50.1364 14.3341 50.3916C14.5902 50.6467 14.5902 50.6467 14.5902 50.6467C14.5902 50.5191 14.4622 50.5191 14.4622 50.3916V50.264C14.7183 50.3916 14.8463 50.5191 14.9743 50.6467C14.9743 50.6467 14.9743 50.6467 14.9743 50.7743H14.8463C14.8463 50.9019 14.9743 50.9019 14.9743 50.9019C14.8463 50.7743 14.8463 50.7743 14.9743 50.7743C14.9743 50.7743 14.9743 50.7743 15.1024 50.7743L15.2304 50.9019C15.2304 50.9019 15.3584 51.0294 15.2304 51.0294C15.2304 51.0294 15.1024 50.9019 14.9743 50.9019C14.9743 50.9019 14.9743 51.0294 15.1024 51.0294C15.1024 51.0294 14.9743 51.0294 14.9743 50.9019C15.1024 51.0294 15.1024 51.0294 15.3584 51.0294C15.3584 51.157 15.4865 51.157 15.6145 51.2846C15.6145 51.2846 15.6145 51.2846 15.4865 51.2846C15.4865 51.4122 15.4865 51.4122 15.6145 51.5397C15.9986 51.6673 15.9986 51.6673 16.1267 51.9225H15.9986L16.1267 52.05C16.1267 52.05 16.1267 52.05 15.9986 52.05C15.9986 52.05 16.1267 52.1776 16.2547 52.1776C16.3828 52.3052 16.3828 52.3052 16.3828 52.3052C16.3828 52.3052 16.3828 52.3052 16.5108 52.3052C16.5108 52.3052 16.5108 52.3052 16.3828 52.3052L16.2547 52.1776C16.2547 52.1776 16.2547 52.1776 16.1267 52.1776C16.2547 52.3052 16.3828 52.4327 16.6388 52.4327H16.7669C16.8949 52.4327 16.8949 52.4327 17.151 52.6879C17.023 52.6879 16.8949 52.5603 16.6388 52.4327C16.6388 52.4327 16.5108 52.4327 16.5108 52.3052C16.5108 52.3052 16.5108 52.3052 17.151 52.5603C17.151 52.6879 17.151 52.6879 17.4071 52.8155L17.279 52.6879C17.4071 52.6879 17.5351 52.8155 17.6632 52.8155H17.9192C17.9192 52.8155 17.9192 52.8155 18.0473 52.8155C18.0473 52.8155 18.0473 52.8155 18.0473 52.6879C18.0473 52.6879 17.9192 52.6879 17.9192 52.5603C18.0473 52.5603 18.0473 52.5603 18.1753 52.6879C18.1753 52.6879 18.1753 52.6879 18.0473 52.6879C18.0473 52.6879 18.0473 52.6879 17.9192 52.6879C18.1753 52.8155 18.3033 52.8155 18.5594 52.943C18.5594 52.943 18.5594 52.943 18.6875 52.943L18.8155 53.0706C18.8155 53.0706 18.8155 53.0706 18.6875 52.943C18.6875 52.943 18.6875 52.943 18.5594 52.943C18.5594 52.943 18.6875 52.943 18.8155 52.943V53.3258L18.6875 53.1982C18.6875 53.1982 18.6875 53.1982 18.8155 53.1982C19.1996 53.4533 19.1996 53.4533 19.1996 53.4533C19.4557 53.5809 19.4557 53.5809 19.5837 53.7085C19.4557 53.7085 19.4557 53.7085 19.1996 53.5809H19.0716C19.0716 53.5809 19.0716 53.5809 19.1996 53.5809C19.1996 53.5809 19.3277 53.5809 19.3277 53.7085C19.3277 53.7085 19.3277 53.7085 19.1996 53.7085C19.0716 53.5809 19.0716 53.5809 19.0716 53.5809C19.1996 53.7085 19.7118 53.8361 19.7118 53.8361H19.5837C19.7118 53.8361 19.9679 53.9636 20.0959 53.9636C19.9679 53.9636 19.9679 53.8361 19.8398 53.8361C20.0959 53.8361 20.0959 53.8361 20.0959 53.9636C20.0959 53.9636 20.0959 53.9636 19.9679 53.9636H19.8398C19.9679 53.9636 19.9679 53.9636 20.0959 53.9636C20.0959 53.9636 20.0959 53.9636 20.0959 53.8361C19.5837 53.8361 19.3277 53.3258 18.8155 53.4533C18.8155 53.4533 18.6875 53.4533 18.6875 53.3258C18.6875 53.3258 18.6875 53.3258 18.8155 53.3258C18.5594 53.1982 18.4314 53.1982 18.4314 53.1982L18.3033 53.0706C17.9192 52.8155 17.9192 52.05 17.151 51.9225C16.6388 51.6673 16.6388 51.6673 16.5108 51.4122C16.5108 51.4122 16.5108 51.4122 16.5108 51.2846H16.6388C16.5108 51.0294 16.2547 50.6467 16.2547 50.6467C16.2547 50.6467 16.2547 50.6467 16.3828 50.6467C16.2547 50.6467 16.2547 50.6467 16.1267 50.5191H16.2547C16.2547 50.5191 16.3828 50.5191 16.3828 50.6467C16.3828 50.5191 16.2547 50.3916 16.1267 50.3916C16.1267 50.3916 16.1267 50.3916 16.1267 50.5191H15.9986C15.7426 50.3916 15.7426 50.3916 15.6145 50.264C15.4865 50.264 15.4865 50.1364 15.3584 50.0089C15.3584 50.0089 15.3584 50.0088 15.3584 49.8813C15.6145 49.8813 15.8706 50.0089 15.8706 50.0089V49.8813C15.7426 49.7537 15.6145 49.6261 15.6145 49.4986C15.6145 49.371 15.4865 49.371 15.3584 49.2434C15.3584 49.2434 15.3584 49.2434 15.4865 49.2434C15.6145 49.2434 16.7669 49.371 16.3828 48.478C16.3828 48.3504 16.2547 48.3504 16.1267 48.2228L15.9986 48.0952C15.9986 48.0952 15.9986 47.9677 15.8706 47.9677C15.8706 47.8401 15.8706 47.7125 15.8706 47.7125H15.9986C16.1267 47.5849 16.1267 47.5849 16.3828 47.7125C16.3828 47.7125 16.3828 47.7125 16.5108 47.7125C16.8949 47.4574 16.7669 46.6919 16.7669 46.6919V46.5644C16.5108 46.3092 16.7669 45.9265 16.6388 45.6713C16.8949 45.7989 16.8949 45.7989 16.8949 45.9265C16.7669 46.0541 16.8949 46.3092 16.7669 46.4368C17.4071 46.1816 17.5351 44.6508 17.5351 44.6508L17.279 43.5026C17.279 43.5026 17.151 43.5026 17.151 43.375C17.151 43.2474 17.151 43.2474 17.4071 43.2474C17.4071 43.2474 17.7912 42.482 18.3033 42.6096C18.4314 42.482 18.4314 42.482 18.5594 42.3544V42.2269H18.6875C18.9435 42.0993 19.3277 42.2269 19.5837 42.0993C19.5837 41.8441 19.8398 41.589 19.8398 41.3338C19.9679 41.0787 20.0959 40.9511 20.0959 40.696C20.0959 40.696 20.0959 40.696 20.2239 40.4408C20.2239 40.1857 20.0959 40.0581 20.0959 39.9305C20.2239 39.5478 20.2239 39.5478 20.2239 39.5478C20.2239 39.4202 20.2239 39.4202 20.2239 39.2927C20.2239 39.1651 20.2239 39.1651 20.0959 37.8894C20.0959 37.6342 20.0959 37.3791 20.0959 37.1239C20.0959 37.1239 20.0959 37.1239 20.0959 36.9963C20.0959 36.9963 20.0959 36.9963 19.9679 36.9963C19.9679 36.9963 19.9679 36.9963 20.0959 36.9963C20.0959 36.9963 20.2239 36.9963 20.2239 37.1239C20.352 37.1239 20.352 37.1239 20.352 36.9963C20.352 36.9963 20.48 36.8688 20.48 36.7412C20.8641 35.9757 21.7604 35.4655 21.7604 34.4449V34.1897C21.7604 33.9346 21.7604 32.914 20.608 32.914C20.352 32.7864 19.8398 32.4037 19.3277 32.021V31.8934C19.0716 31.8934 18.8155 31.6382 18.5594 31.6382C18.8155 31.8934 18.8155 31.8934 18.8155 31.8934C18.8155 31.8934 18.8155 31.8934 18.4314 31.8934C18.1753 31.8934 18.1753 31.8934 18.1753 31.7658C18.0473 31.7658 18.0473 31.7658 17.4071 31.6382V31.7658C17.279 31.7658 17.279 31.7658 17.151 31.8934V32.021H17.023V32.1485L16.8949 32.2761C16.7669 31.3831 16.7669 31.3831 16.6388 31.3831V31.5107H16.5108V31.2555C16.3828 31.1279 16.3828 31.1279 16.2547 31.1279C16.1267 31.1279 16.1267 31.1279 16.1267 31.1279C15.9986 31.0004 15.9986 31.0004 15.8706 31.0004H15.7426C15.7426 31.0004 15.7426 31.0004 15.6145 30.8728C15.4865 30.8728 15.4865 30.8728 15.4865 30.8728C15.4865 30.8728 15.4865 30.8728 15.3584 30.7452C15.3584 30.7452 15.2304 30.7452 15.1024 30.8728C15.1024 31.0004 14.9743 31.1279 14.9743 31.2555H14.8463C14.7183 31.3831 14.5902 31.5107 14.5902 31.6382L14.4622 31.7658C14.4622 31.7658 14.4622 31.6382 14.4622 31.5107L14.5902 31.3831C14.5902 31.3831 14.5902 31.3831 14.7183 31.2555H14.5902C14.5902 31.2555 14.4622 31.2555 14.4622 31.3831C14.4622 31.3831 14.4622 31.3831 14.3341 31.2555H14.4622V31.1279C14.4622 31.1279 14.7183 31.1279 14.8463 31.1279C14.8463 31.0004 14.8463 30.8728 14.9743 30.4901V30.3625C14.8463 30.3625 14.7183 30.3625 14.7183 30.3625C14.7183 30.3625 14.7183 30.3625 14.5902 30.3625C14.3341 30.4901 14.2061 30.3625 13.95 30.4901V30.6176C13.95 30.6176 13.95 30.7452 13.95 30.8728C13.95 30.8728 13.95 30.8728 14.0781 30.8728C14.0781 30.8728 14.0781 30.8728 13.95 31.0004H13.822C13.822 31.0004 13.822 31.1279 13.6939 31.1279C13.4379 31.1279 13.3098 31.3831 13.0537 31.2555C13.1818 31.2555 13.1818 31.2555 13.3098 31.1279V31.0004C13.3098 31.0004 13.3098 31.0004 13.3098 31.1279C13.4379 31.0004 13.5659 31.0004 13.5659 30.7452H13.4379C13.4379 30.7452 13.4379 30.7452 13.3098 30.8728C13.3098 30.7452 13.3098 30.7452 13.3098 30.6176H13.4379V30.4901C13.5659 30.3625 13.6939 30.3625 13.822 30.1074H13.95C14.0781 29.9798 14.2061 29.5971 13.95 29.4695C13.95 29.4695 13.822 29.3419 13.6939 29.3419C13.6939 28.9592 13.5659 28.704 13.5659 28.3213C13.4379 28.1938 13.4379 28.1937 13.3098 28.0662C13.3098 27.811 13.3098 27.811 13.0537 27.811C12.9257 27.4283 12.6696 27.3007 12.5416 27.3007H12.4135C12.4135 27.3007 12.0294 27.0456 11.7734 27.0456V27.1732H11.6453C11.6453 27.1732 11.6453 27.1732 11.5173 27.0456C11.5173 27.0456 11.3892 27.0456 11.3892 27.1732H11.2612V27.0456C11.0051 27.0456 11.0051 27.0456 10.8771 27.0456C10.8771 27.1732 10.8771 27.1732 10.8771 27.3007H10.749C10.749 27.1732 10.749 27.1732 10.749 27.0456V26.918C10.749 26.918 10.621 26.7904 10.3649 26.5353C10.3649 26.5353 10.3649 26.5353 10.2369 26.6629L10.1088 26.5353C10.2369 26.1526 9.46865 25.5147 9.21257 25.6423C8.95649 25.7698 8.95649 25.7698 8.95649 25.6423C9.08453 25.3871 9.08453 25.3871 9.08453 25.2596H9.21257V25.132C8.95649 24.8768 8.95649 24.8768 8.57237 24.8768C8.57237 24.7493 8.44433 24.6217 8.3163 24.6217V24.4941C8.44433 24.4941 8.57237 24.4941 8.70041 24.3665C8.18826 24.3665 8.06022 24.3665 7.54806 24.7493C7.42002 24.7493 7.42002 24.7493 7.42002 24.7493C7.29198 24.7493 7.16394 24.4941 7.0359 24.4941C6.77983 24.4941 6.65179 24.6217 6.39571 24.6217V24.4941C6.39571 23.6011 5.49944 24.3665 5.49944 24.3665C5.24336 24.6217 5.75551 25.3871 5.24336 25.3871V25.2596C5.24336 25.132 5.24336 25.132 5.24336 25.132C5.24336 24.8768 5.3714 24.7493 5.3714 24.4941C5.3714 24.1114 5.3714 24.1114 5.3714 24.1114C5.75551 23.8562 5.49944 23.7287 5.49944 23.7287C5.3714 23.8562 5.3714 23.8562 5.3714 23.9838C5.11532 24.239 5.11532 24.239 4.98728 24.3665C4.85924 24.3665 4.7312 24.3665 4.7312 24.3665C4.7312 24.3665 4.7312 24.4941 4.7312 24.6217C4.7312 24.6217 4.60316 24.6217 4.60316 24.4941C4.34708 24.7493 3.96297 26.1526 3.96297 26.1526C3.57885 26.025 3.70689 25.5147 3.19473 25.5147C3.19473 25.5147 3.19473 25.5147 3.06669 25.5147C3.06669 25.5147 3.06669 25.5147 2.93865 25.5147C2.93865 25.5147 2.93865 25.5147 2.93865 25.6423C2.81061 25.7698 2.68257 25.8974 2.4265 26.025C2.4265 25.8974 2.29846 25.8974 2.29846 25.8974V25.7698C2.17042 24.8768 2.17042 24.8768 2.17042 24.239C2.17042 23.9838 2.29846 23.6011 2.29846 23.3459C2.4265 23.0908 2.4265 22.9632 2.4265 22.7081C2.55454 22.5805 2.55454 22.5805 2.4265 22.4529C2.4265 22.4529 2.29846 22.4529 2.29846 22.3254V22.1978L2.17042 22.0702C2.17042 22.0702 2.17042 22.0702 2.17042 21.9426H2.04238C2.04238 21.9426 2.04238 21.9426 2.04238 21.8151L1.91434 21.9426C1.7863 21.9426 1.7863 21.9426 1.65826 21.9426V22.0702C1.65826 22.0702 1.65826 22.0702 1.53022 22.0702C1.53022 21.9426 1.53022 21.9426 1.53022 21.8151C1.65826 21.6875 1.65826 21.4323 1.65826 21.1772C1.65826 21.0496 1.65826 21.0496 1.7863 20.922C1.7863 20.7945 1.7863 20.7945 1.91434 20.7945C1.91434 20.6669 1.91434 20.6669 2.04238 20.5393C2.04238 20.5393 2.04238 20.5393 2.04238 20.6669C2.04238 20.6669 2.04238 20.6669 2.04238 20.5393V20.4118C2.04238 20.2842 2.04238 20.2842 2.17042 20.1566C2.29846 19.7739 2.55454 19.3912 2.55454 19.136H2.4265C2.17042 19.2636 2.17042 19.3912 2.04238 19.6463C2.04238 19.7739 2.04238 19.7739 2.04238 19.7739C2.04238 19.9015 1.91434 20.029 1.91434 20.029C1.91434 20.1566 1.91434 20.1566 1.91434 20.1566C1.7863 20.2842 1.7863 20.4118 1.7863 20.4118V20.5393C1.65826 20.5393 1.65826 20.6669 1.53022 20.6669C1.53022 20.5393 1.53022 20.5393 1.53022 20.4118C1.53022 19.9015 1.7863 19.3912 1.91434 18.8809C2.04238 18.4982 2.04238 18.3706 2.17042 18.1154C2.17042 17.9879 2.17042 17.9879 2.29846 17.9879L2.04238 17.8603C2.29846 17.35 2.4265 16.9673 2.55454 16.457C2.68257 16.3294 2.68257 16.3294 2.68257 16.2018C2.81061 15.9467 2.93865 15.8191 3.06669 15.564C3.32277 15.3088 3.45081 15.0537 3.45081 14.9261H3.57885C3.57885 14.9261 3.57885 14.7985 3.70689 14.7985C3.70689 14.7985 3.70689 14.7985 3.70689 14.9261C3.70689 14.9261 3.70689 14.9261 3.83493 14.9261V15.0537C3.83493 15.0537 3.83493 14.9261 3.96297 14.9261C3.96297 15.0537 3.96297 15.0537 3.83493 15.1812C3.83493 15.1812 3.83493 15.1812 3.83493 15.0537C3.83493 15.0537 3.83493 15.0537 3.83493 15.1812V15.3088C3.83493 15.3088 3.83493 15.3088 3.96297 15.1812V15.0537C3.96297 15.0537 3.96297 14.9261 4.09101 14.9261C4.09101 14.9261 4.09101 14.9261 3.96297 14.7985V14.6709C3.96297 14.6709 4.09101 14.6709 4.09101 14.5434C4.09101 14.5434 4.09101 14.5434 4.21904 14.4158V14.5434C4.34708 14.5434 4.34708 14.5434 4.34708 14.4158C4.34708 14.4158 4.34708 14.4158 4.34708 14.5434C4.34708 14.6709 4.34708 14.6709 4.34708 14.7985C4.47512 14.7985 4.47512 14.6709 4.47512 14.6709C4.47512 14.6709 4.47512 14.6709 4.60316 14.6709C4.60316 15.1812 4.34708 15.6915 4.21904 16.2018C4.21904 16.2018 4.21904 16.2018 4.09101 16.9673C4.09101 16.9673 4.47512 16.7121 4.7312 15.4364C4.85924 15.1812 4.85924 14.9261 4.98728 14.6709L5.11532 14.4158V14.2882C5.11532 14.1606 5.11532 14.1606 5.24336 14.0331C5.3714 13.7779 5.62747 13.6504 5.75551 13.3952C5.88355 13.3952 6.13963 13.1401 6.39571 12.8849C6.52375 12.8849 6.52375 12.7573 6.65179 12.7573C6.65179 12.7573 6.65179 12.7573 6.77983 12.7573C6.90787 12.7573 7.42002 12.3746 7.42002 12.3746C7.42002 12.247 7.42002 12.247 7.54806 12.1195H7.6761C7.6761 12.1195 7.80414 12.1195 7.80414 11.9919C7.80414 11.9919 7.93218 11.9919 7.93218 11.8643H7.80414C7.80414 11.8643 7.6761 11.8643 7.6761 11.7367C8.06022 11.354 8.06022 11.354 8.06022 11.354H7.93218V11.4816C7.93218 11.4816 7.93218 11.4816 8.06022 11.4816C8.06022 11.4816 8.06022 11.4816 8.06022 11.354H8.18826C8.57237 10.9713 8.57237 10.9713 8.57237 10.9713C8.57237 10.9713 8.57237 10.9713 8.57237 11.0989C8.57237 10.9713 8.57237 10.9713 8.70041 10.8437C8.82845 10.7162 8.82845 10.7162 8.95649 10.5886C8.95649 10.5886 8.95649 10.5886 8.95649 10.7162C8.95649 10.7162 8.82845 10.7162 8.82845 10.8437C8.95649 10.7162 8.95649 10.7162 8.82845 10.8437C8.82845 10.8437 8.82845 10.8437 8.82845 10.9713V11.0989C8.70041 11.2265 8.70041 11.2265 8.57237 11.354C8.70041 11.2265 9.08453 10.7162 9.08453 10.7162C9.08453 10.7162 9.08453 10.7162 9.08453 10.5886L9.21257 10.461C9.21257 10.461 9.21257 10.461 9.21257 10.3334L9.34061 10.2059V10.3334C9.34061 10.3334 9.59669 10.2059 9.72473 9.95071C9.85277 10.0783 9.85277 10.0783 9.85277 10.0783C9.85277 10.0783 9.9808 10.0783 9.9808 9.95071C9.9808 9.95071 10.1088 9.95071 10.2369 9.95071C10.3649 9.95071 10.3649 9.95071 10.3649 9.95071C10.2369 9.95071 10.2369 9.95071 10.1088 10.0783C10.493 9.95071 10.493 9.95071 10.621 9.95071H10.749L10.8771 9.82314C10.8771 9.82314 10.8771 9.82314 11.0051 9.69557C11.1332 9.69557 11.1332 9.69557 11.1332 9.56799C11.1332 9.56799 11.1332 9.56799 11.0051 9.56799C11.0051 9.44042 11.0051 9.44042 11.0051 9.44042C11.0051 9.44042 11.0051 9.44042 11.0051 9.31285C11.1332 9.0577 12.0294 8.29226 12.2855 8.41983H12.4135C12.4135 8.41983 12.4135 8.41983 12.7977 8.29226C12.7977 8.16468 12.7977 8.16468 13.0537 8.16468C13.1818 8.16468 13.1818 8.16468 13.1818 8.03711C13.3098 8.03711 13.4379 7.90954 13.6939 7.78196C13.6939 7.78196 13.6939 7.78196 13.6939 7.90953C13.5659 7.90953 13.5659 7.90954 13.5659 8.03711C13.5659 8.03711 13.5659 8.03711 13.95 8.03711H13.822C13.822 8.03711 13.6939 8.03711 13.6939 8.16468C13.5659 8.16468 12.9257 8.41983 12.7977 8.67498C13.0537 8.67498 13.3098 8.41983 13.4379 8.29226C13.822 8.16468 14.3341 7.90953 14.3341 7.90953C14.7183 7.78196 14.9743 7.78196 15.1024 7.65439C15.1024 7.65439 15.1024 7.65439 14.9743 7.65439C14.8463 7.65439 14.8463 7.78196 14.7183 7.78196C14.8463 7.65439 15.1024 7.39924 15.1024 7.39924V7.27167C14.8463 7.39924 14.5902 7.65439 14.4622 7.78196H14.3341C14.3341 7.78196 14.3341 7.78196 13.95 7.78196C13.95 7.78196 13.95 7.78196 13.822 7.78196C13.822 7.78196 13.822 7.78196 13.822 7.65439H13.6939C13.6939 7.65439 13.822 7.52681 13.822 7.39924C13.822 7.39924 13.822 7.39924 13.6939 7.39924C13.822 7.39924 13.822 7.27167 13.95 7.14409C13.822 7.14409 13.822 7.14409 13.6939 7.14409C13.5659 7.14409 13.5659 7.14409 13.4379 7.14409C13.5659 7.01652 13.5659 7.01652 13.6939 7.01652C13.6939 7.01652 14.0781 7.01652 14.2061 6.6338C14.2061 6.6338 14.2061 6.6338 14.2061 6.50622C13.95 6.37865 13.5659 6.50623 12.0294 7.39924C12.1575 7.14409 14.0781 6.1235 14.0781 6.1235C14.2061 6.1235 14.8463 6.1235 15.2304 6.1235C15.3584 6.1235 15.4865 6.1235 15.4865 6.1235C15.4865 6.1235 15.4865 6.1235 15.6145 6.1235C15.7426 6.1235 15.7426 6.1235 15.7426 6.1235C16.5108 5.61321 16.7669 5.74078 16.7669 5.74078C17.023 5.99593 17.5351 5.23049 17.5351 5.23049C17.6632 5.23049 17.6632 5.23049 17.6632 5.10291V4.97534V4.84777C17.5351 4.84777 17.5351 4.84777 16.7669 5.10291C16.8949 4.97534 17.151 4.97534 17.151 4.84777C17.279 4.84777 17.4071 4.84777 17.6632 4.72019C17.6632 4.72019 17.5351 4.72019 17.5351 4.59262C17.4071 4.59262 17.4071 4.72019 17.279 4.72019L17.4071 4.59262H17.279C17.279 4.59262 17.4071 4.59262 17.4071 4.46505C17.4071 4.46505 17.4071 4.46505 17.4071 4.2099H17.5351H17.6632C17.6632 4.2099 17.6632 4.2099 17.5351 4.2099C17.5351 4.2099 17.6632 4.2099 17.6632 4.08232H17.5351C17.5351 4.08232 17.5351 4.08232 17.4071 4.08232C17.5351 4.08232 17.5351 3.95475 17.6632 3.95475C17.7912 3.95475 17.9192 3.82718 18.0473 3.57203C18.0473 3.57203 18.1753 3.57203 18.1753 3.44446C18.1753 3.44446 18.1753 3.44446 17.9192 3.57203C17.7912 3.57203 17.7912 3.57203 17.7912 3.6996C17.7912 3.44446 17.5351 3.57203 17.5351 3.57203C17.5351 3.57203 17.4071 3.57203 16.8949 3.82718C17.023 3.6996 17.023 3.6996 17.023 3.6996C17.023 3.6996 17.023 3.57203 17.151 3.57203C17.023 3.57203 17.023 3.57203 16.8949 3.6996C16.8949 3.6996 17.023 3.6996 17.151 3.57203C17.4071 3.44446 17.4071 3.44446 17.4071 3.44446C17.5351 3.31688 17.6632 3.31688 17.7912 3.18931H17.5351C17.5351 3.18931 17.6632 3.18931 17.6632 3.06174C17.6632 3.06174 17.6632 2.93416 17.7912 2.93416H17.5351C17.5351 2.93416 17.5351 2.93416 17.4071 2.93416C17.4071 2.93416 17.4071 2.93416 16.7669 3.18931H16.5108C15.4865 3.82718 15.4865 3.82718 15.4865 3.82718C15.3584 3.95475 15.3584 3.95475 15.1024 4.2099C14.9743 4.2099 14.9743 4.33747 14.8463 4.33747V4.46505C14.8463 4.46505 14.8463 4.46505 14.7183 4.46505C14.4622 4.59262 14.2061 4.72019 13.822 4.84777C13.822 4.84777 13.6939 4.84777 13.6939 4.97534C13.6939 4.97534 13.822 4.97534 13.822 4.84777H13.6939L13.5659 4.97534C13.6939 5.10291 13.6939 5.10291 12.6696 5.86836C12.6696 5.86836 12.6696 5.86836 12.6696 5.74078C12.5416 5.74078 12.5416 5.86836 12.4135 5.86836H12.2855C12.4135 5.74078 12.5416 5.61321 12.5416 5.48564C12.5416 5.48564 12.5416 5.48564 12.7977 5.23049C13.1818 5.10291 13.4379 4.84777 13.6939 4.72019C13.5659 4.72019 13.5659 4.59262 13.4379 4.72019C13.5659 4.46505 13.5659 4.46505 13.6939 4.33747C13.6939 4.33747 13.6939 4.33747 13.822 4.2099H13.6939V4.08232C13.95 3.95475 14.0781 3.82718 14.3341 3.6996H14.2061C14.2061 3.6996 14.2061 3.6996 14.0781 3.6996C14.5902 3.31688 14.5902 3.31688 16.6388 2.42387C16.6388 2.42387 16.6388 2.42387 16.7669 2.42387C16.7669 2.42387 16.7669 2.42387 16.6388 2.42387C16.6388 2.42387 16.7669 2.42387 16.7669 2.29629H16.8949C16.8949 2.29629 16.8949 2.29629 16.7669 2.42387C17.023 2.29629 17.5351 2.16872 17.5351 2.16872C17.7912 2.04115 18.0473 2.04115 18.3033 1.91357C18.3033 1.91357 18.4314 1.91357 18.5594 1.91357H18.4314C18.5594 1.91357 18.5594 1.786 18.6875 1.786H18.8155L18.6875 1.91357C18.6875 1.91357 18.6875 1.91357 18.8155 1.91357C19.0716 1.91357 19.0716 1.91357 19.0716 1.786C19.3277 1.65842 19.3277 1.65842 19.4557 1.65842C19.5837 1.53085 19.8398 1.53085 20.0959 1.40328H20.352C19.9679 1.40328 19.5837 1.65842 19.3277 1.786C19.3277 1.786 19.4557 1.786 19.4557 1.65842C19.3277 1.65842 19.0716 1.786 18.9435 1.91357C19.1996 1.786 19.5837 1.65843 19.8398 1.53085C19.7118 1.53085 19.4557 1.65842 19.3277 1.65842C19.5837 1.53085 19.8398 1.53085 19.9679 1.40328C19.9679 1.40328 19.9679 1.40328 20.2239 1.2757H20.352C20.352 1.2757 20.352 1.2757 20.48 1.2757C20.7361 1.14813 20.8641 1.14813 21.1202 1.02056H21.2482C21.3763 1.02056 21.3763 1.02056 21.5043 0.892983C21.6324 0.892983 21.6324 0.892983 21.7604 0.892983C21.3763 1.02056 20.8641 1.14813 20.8641 1.14813C20.8641 1.14813 20.8641 1.14813 20.7361 1.14813C20.7361 1.14813 20.6081 1.14813 20.352 1.2757C20.352 1.2757 20.352 1.2757 20.48 1.2757H20.352C20.352 1.2757 20.352 1.2757 20.48 1.2757C20.608 1.2757 20.7361 1.2757 20.7361 1.2757C20.8641 1.2757 20.8641 1.2757 20.8641 1.2757C20.8641 1.2757 20.8641 1.2757 20.9922 1.2757C20.9922 1.2757 20.9922 1.2757 21.1202 1.2757C20.9922 1.2757 20.9922 1.40328 20.8641 1.40328C20.7361 1.40328 20.7361 1.40328 20.7361 1.53085C20.7361 1.53085 20.7361 1.53085 20.608 1.53085C20.608 1.53085 20.608 1.53085 20.48 1.53085C20.48 1.53085 20.48 1.53085 20.352 1.53085C20.352 1.53085 20.48 1.53085 20.608 1.53085C20.7361 1.53085 20.7361 1.53085 20.7361 1.53085H20.608H20.48H20.352C20.352 1.53085 20.352 1.53085 20.48 1.53085L20.0959 1.65842L19.5837 1.786C19.4557 1.786 19.4557 1.91357 19.3277 1.91357C19.3277 1.91357 19.3277 1.91357 19.1996 1.91357H19.0716C19.0716 1.91357 19.0716 1.91357 18.9435 1.91357C18.9435 1.91357 18.8155 1.91357 18.8155 2.04115C18.8155 2.04115 18.5594 2.04115 18.4314 2.16872C18.5594 2.16872 18.5594 2.16872 18.6875 2.04115H18.8155C18.9435 1.91357 18.9435 1.91357 18.9435 1.91357C18.9435 1.91357 18.9435 1.91357 18.8155 1.91357H18.9435C18.9435 1.91357 18.9435 1.91357 18.8155 1.91357C18.8155 1.91357 18.8155 1.91357 18.9435 1.91357C18.9435 1.91357 18.9435 1.91357 19.0716 1.91357C18.8155 2.04115 18.8155 2.04115 18.8155 2.04115C18.6875 2.04115 18.6875 2.04115 18.5594 2.29629C18.6875 2.29629 18.6875 2.29629 18.8155 2.16872C18.6875 2.16872 18.6875 2.16872 18.6875 2.29629C18.6875 2.29629 18.6875 2.29629 18.8155 2.29629C18.8155 2.29629 18.8155 2.29629 18.9435 2.29629C19.0716 2.29629 19.1996 2.16872 19.1996 2.16872C19.1996 2.04115 19.3277 2.04115 19.3277 2.04115C19.3277 2.04115 19.3277 2.04115 19.4557 2.04115C19.4557 2.04115 19.4557 2.04115 19.3277 2.16872C19.3277 2.16872 19.3277 2.16872 19.4557 2.16872C19.4557 2.16872 19.4557 2.04115 19.5837 2.04115C19.7118 2.04115 19.7118 1.91357 19.8398 1.91357C19.9679 1.91357 19.9679 1.91357 19.9679 1.786C19.9679 1.786 20.0959 1.786 20.0959 1.65842C20.2239 1.65842 20.2239 1.53085 20.2239 1.53085C20.2239 1.53085 20.2239 1.53085 20.0959 1.53085L20.352 1.40328C20.352 1.40328 20.352 1.40328 20.48 1.40328C20.48 1.40328 20.48 1.40328 20.48 1.2757C20.48 1.2757 20.48 1.2757 20.7361 1.2757C20.7361 1.2757 20.7361 1.2757 20.608 1.2757C20.608 1.2757 20.608 1.2757 20.8641 1.2757C20.7361 1.40328 20.608 1.40328 20.48 1.40328L20.608 1.2757C20.608 1.2757 20.608 1.2757 20.7361 1.2757H20.8641C20.8641 1.2757 20.8641 1.2757 20.9922 1.14813C20.9922 1.14813 20.9922 1.14813 21.2482 1.02056C21.1202 1.02056 21.1202 1.14813 20.9922 1.02056C21.1202 1.02056 21.1202 1.02056 21.2482 0.892983H21.1202C21.2482 0.892983 21.2482 0.892983 21.2482 0.765409C21.2482 0.765409 21.2482 0.765409 21.3763 0.765409H21.2482C21.2482 0.765409 21.2482 0.765409 21.3763 0.765409C21.3763 0.765409 21.3763 0.765409 21.5043 0.765409H21.3763C21.5043 0.765409 21.5043 0.765409 21.5043 0.637836H21.6324C21.6324 0.637836 21.6324 0.637836 21.7604 0.637836C21.7604 0.637836 21.7604 0.637836 21.6324 0.637836C22.0165 0.510262 22.0165 0.510262 22.0165 0.510262C21.8884 0.510262 21.8884 0.510262 21.7604 0.637836L22.0165 0.510262C22.0165 0.510262 22.0165 0.510262 21.8884 0.510262C21.7604 0.510262 21.6324 0.637836 21.5043 0.637836C21.6324 0.510262 21.7604 0.510262 21.8884 0.510262H21.7604C21.7604 0.510262 21.7604 0.510262 21.6324 0.510262C21.6324 0.510262 21.7604 0.382688 21.7604 0.510262H21.8884C21.8884 0.510262 21.8884 0.510262 22.0165 0.510262V0.765409C21.7604 0.892983 21.7604 0.892983 21.6324 0.892983C21.7604 0.892983 21.7604 0.892983 21.8884 0.765409H22.0165C21.8884 0.892983 21.8884 0.892983 22.0165 0.765409C22.0165 0.892983 22.0165 0.892983 22.0165 0.765409ZM21.7604 0.765409C21.6324 0.765409 21.6324 0.765409 21.5043 0.765409H21.7604ZM18.8155 1.53085C18.6875 1.65843 18.6875 1.65843 18.8155 1.53085C18.6875 1.53085 18.6875 1.53085 18.6875 1.53085C18.6875 1.65843 18.6875 1.53085 18.8155 1.53085ZM3.19473 31.8934C3.19473 31.7658 3.19473 31.7658 3.19473 31.8934V31.8934ZM19.7118 53.7085C19.8398 53.8361 19.8398 53.7085 19.7118 53.7085C19.8398 53.8361 19.8398 53.8361 19.7118 53.7085ZM18.5594 53.3258C18.6875 53.3258 18.6875 53.3258 18.6875 53.3258H18.5594ZM18.3033 53.1982H18.5594C18.4314 53.1982 18.3033 53.1982 18.3033 53.1982ZM17.9192 52.5603C18.0473 52.5603 18.0473 52.6879 18.0473 52.6879C18.0473 52.5603 18.0473 52.5603 17.9192 52.5603C17.7912 52.5603 17.7912 52.5603 17.9192 52.5603ZM17.5351 52.8155C17.5351 52.8155 17.6632 52.943 17.7912 52.943C17.6632 52.943 17.5351 52.943 17.5351 52.8155ZM17.279 52.6879C17.4071 52.6879 17.4071 52.6879 17.279 52.6879C17.4071 52.8155 17.4071 52.8155 17.4071 52.8155C17.5351 52.8155 17.4071 52.8155 17.279 52.6879ZM16.5108 52.05C16.5108 52.1776 16.5108 52.1776 16.5108 52.05C16.3828 52.05 16.5108 52.1776 16.5108 52.05C16.3828 52.05 16.3828 52.05 16.5108 52.05ZM16.1267 51.9225C16.2547 51.9225 16.2547 51.9225 16.1267 51.9225V51.9225ZM19.1996 42.0993C19.0716 42.2269 19.1996 42.2269 19.1996 42.0993V42.0993ZM17.279 45.6713C17.279 45.5438 17.151 45.5438 17.279 45.6713V45.6713ZM13.95 50.0089C14.0781 50.0089 14.0781 50.0089 14.0781 50.0089C14.0781 50.1364 14.0781 50.1364 13.95 50.0089ZM14.4622 50.3916C14.3341 50.3916 14.3341 50.264 14.2061 50.3916C14.2061 50.3916 14.3341 50.3916 14.4622 50.3916C14.3341 50.5191 14.3341 50.5191 14.3341 50.5191L14.2061 50.3916C14.2061 50.3916 14.2061 50.264 14.0781 50.264V50.1364C14.0781 50.1364 14.0781 50.1364 14.2061 50.1364C14.2061 50.264 14.3341 50.264 14.4622 50.3916C14.3341 50.264 14.3341 50.264 14.4622 50.3916C14.4622 50.264 14.4622 50.264 14.4622 50.3916ZM15.6145 51.4122C15.6145 51.4122 15.6145 51.4122 15.7426 51.5397C15.7426 51.5397 15.8706 51.5397 15.8706 51.6673C15.8706 51.6673 15.8706 51.6673 15.7426 51.6673C15.6145 51.5397 15.6145 51.5397 15.6145 51.4122C15.4865 51.4122 15.4865 51.4122 15.6145 51.4122ZM13.95 31.3831C13.95 31.3831 14.0781 31.3831 14.2061 31.3831C14.2061 31.3831 14.0781 31.3831 14.0781 31.5107H13.95C13.822 31.6382 13.822 31.6382 13.95 31.3831ZM8.44433 25.0044C8.3163 25.0044 8.3163 25.0044 8.3163 25.0044C8.3163 25.0044 8.44433 24.8768 8.44433 25.0044ZM1.91434 24.239C1.7863 24.239 1.7863 24.3665 1.91434 24.239V24.239ZM1.65826 22.1978C1.53022 22.1978 1.53022 22.3254 1.65826 22.1978C1.53022 22.1978 1.53022 22.1978 1.65826 22.1978ZM2.93865 15.6915C2.93865 15.8191 2.93865 15.8191 2.93865 15.6915V15.6915ZM4.98728 16.3294C4.85924 16.3294 4.85924 16.3294 4.98728 16.3294V16.2018C4.98728 16.2018 4.98728 16.2018 4.98728 16.3294ZM13.1818 6.88895C13.0537 6.76137 13.0537 6.88895 13.1818 6.88895V6.88895ZM12.4135 5.99593C12.4135 6.1235 12.4135 6.1235 12.4135 5.99593V5.99593ZM15.8706 2.80659C15.9986 2.80659 15.9986 2.80659 15.8706 2.80659V2.80659ZM17.9192 1.91357C18.0473 1.91357 18.0473 1.91357 17.9192 1.91357V1.91357ZM18.0473 1.91357C17.9192 2.04115 18.0473 2.04115 18.0473 1.91357V1.91357ZM19.8398 1.40328C19.7118 1.40328 19.7118 1.40328 19.7118 1.40328H19.5837C19.7118 1.40328 19.8398 1.40328 19.8398 1.40328ZM20.352 1.91357C20.48 1.786 20.352 1.786 20.352 1.91357C20.352 1.786 20.352 1.786 20.352 1.91357ZM20.7361 1.2757C20.8641 1.14813 20.8641 1.14813 20.7361 1.2757V1.2757ZM20.9922 1.65842C20.8641 1.65842 20.8641 1.65842 20.9922 1.65842V1.65842ZM20.8641 1.02056C20.9922 1.02056 20.9922 1.02056 20.8641 1.02056V1.02056ZM21.1202 1.40328C20.9922 1.40328 20.9922 1.40328 21.1202 1.40328V1.40328ZM21.2482 1.2757C21.3763 1.2757 21.3763 1.2757 21.2482 1.2757V1.2757ZM21.5043 1.2757C21.3763 1.2757 21.3763 1.2757 21.5043 1.2757V1.2757ZM21.5043 1.14813C21.3763 1.14813 21.3763 1.14813 21.3763 1.14813H21.5043ZM21.8884 0.892983C21.7604 0.892983 21.7604 0.892983 21.8884 0.892983V0.892983Z" fill="white"/>
</svg>
