<svg width="328" height="490" viewBox="0 0 328 490" fill="none" xmlns="http://www.w3.org/2000/svg">
<g opacity="0.12" clip-path="url(#clip0_136_489)">
<path d="M253.067 490C253.746 480.959 254.425 471.918 255.043 462.878C256.339 444.301 255.907 425.785 254.425 407.208C252.574 383.677 247.697 360.766 241.957 337.916C241.834 337.421 241.71 336.987 241.525 336.368C241.093 336.554 240.723 336.554 240.599 336.74C224.489 354.573 205.17 368.321 185.356 381.572C174.431 388.879 164.494 397.301 156.593 408.013C155.914 409.004 155.235 409.995 154.001 411.729C163.198 407.766 171.716 404.608 181.098 407.27C180.974 407.704 180.912 408.013 180.851 408.013C169.37 409.623 160.111 415.692 150.853 422.256C145.853 425.785 142.891 430.182 140.607 435.507C135.422 447.335 130.484 459.224 130.546 472.476C130.546 476.686 130.793 480.959 130.793 485.17C130.793 486.78 130.422 488.39 130.237 490C130.052 490 129.805 490 129.62 490C129.435 487.895 129.126 485.727 129.064 483.622C129.003 476.686 129.064 469.689 129.064 462.568C126.163 462.32 123.818 462.32 121.534 461.825C118.88 461.329 116.843 461.453 115.362 464.178C114.251 466.283 111.967 467.584 112.276 470.556C112.893 476.996 113.14 483.498 113.572 489.938C112.955 489.938 112.337 489.938 111.72 489.938C111.35 483.436 111.041 476.996 110.609 470.494C110.424 468.017 110.671 466.036 112.769 464.178C114.312 462.754 115.485 460.524 115.979 458.419C116.72 454.951 117.09 451.298 117.09 447.706C117.09 441.081 116.781 434.393 116.535 427.767C116.164 427.705 115.856 427.705 115.485 427.643C113.448 438.356 108.202 447.706 103.079 457.057C102.708 457.738 102.647 458.853 102.955 459.596C106.967 469.318 108.017 479.473 107.461 489.876C107.029 489.876 106.659 489.876 106.227 489.876C106.967 485.913 104.93 483.932 101.783 481.64C73.2044 461.02 59.6252 432.969 61.3535 397.672C61.6004 392.037 63.02 386.464 63.8842 380.891C64.1928 379.219 64.6248 377.547 65.1804 375.07C66.0445 376.123 66.6617 376.556 66.9086 377.176C68.9455 383.182 72.8341 388.012 77.1548 392.471C84.932 400.459 92.0919 408.942 97.3384 418.912C102.894 429.377 105.177 440.337 101.844 451.979C101.536 453.156 100.98 454.27 100.672 455.509C100.486 456.19 100.672 456.933 100.918 457.738C102.708 454.084 105.733 451.236 105.116 446.282C103.326 432.721 102.153 419.036 100.425 405.413C100.116 403.183 98.5729 400.892 96.9681 399.158C91.1043 392.842 84.3764 387.207 79.1299 380.458C68.0196 366.277 57.4649 351.663 49.8111 335.13C47.9594 331.105 46.3546 327.018 45.1201 322.25C48.0829 324.107 51.0456 325.965 53.9466 327.823C54.0701 327.699 54.2553 327.513 54.3787 327.389C46.9719 320.763 39.565 314.199 32.0964 307.574C32.2816 307.388 32.4051 307.14 32.5902 306.954C33.4544 307.574 34.3802 308.069 35.1209 308.75C41.7871 314.571 48.2063 320.639 55.1194 326.151C58.4525 328.813 62.6497 330.361 66.3531 332.467C68.39 333.643 70.612 334.696 72.3403 336.182C74.9327 338.411 77.2165 341.012 79.6854 343.551C80.1175 339.093 80.6113 334.263 81.1051 329.495C81.352 329.433 81.5989 329.433 81.8458 329.371C83.8827 332.467 85.9195 335.563 88.0799 338.783C89.1292 330.981 90.1167 323.55 91.166 316.119C80.1792 314.633 71.6614 309.927 67.8345 298.409C60.3042 301.877 53.3911 305.406 48.0829 311.784C48.2681 311.103 48.4532 310.422 48.7001 309.741C53.5146 298.533 60.798 289.43 71.4762 283.3C76.1055 280.637 81.0434 279.584 86.2899 281.132C86.5985 281.752 86.7837 282.618 87.2775 282.866C93.6967 286.272 100.054 289.864 106.659 292.774C109.004 293.827 112.152 293.703 114.745 293.207C120.238 292.217 125.793 291.04 131.101 289.306C138.385 286.953 145.73 284.476 152.581 281.07C160.729 277.045 168.506 272.03 176.283 267.261C187.64 260.326 200.108 256.796 213.07 254.815C241.216 250.48 267.079 239.334 292.447 227.011C298.558 224.039 304.607 221.005 310.656 217.97C311.767 217.413 312.754 216.67 313.865 216.113C322.075 211.964 325.161 205.338 325.963 196.111C327.691 176.42 323.988 157.533 319.853 138.585C310.224 93.9998 297.447 50.4057 282.016 7.55467C281.152 5.13965 280.534 2.66272 279.856 0.247703C280.226 0.123857 280.596 -0.0619137 280.905 -0.18576C281.46 0.866938 282.263 1.91964 282.633 3.03426C288.744 21.054 295.225 38.9498 300.842 57.1553C311.026 90.2224 318.865 123.909 325.408 157.905C328.617 174.376 328.494 190.662 325.531 207.072C325.284 208.372 324.42 209.858 323.432 210.602C319.544 213.574 315.655 216.794 311.396 219.147C287.386 232.089 262.881 243.854 236.587 251.533C233.069 252.586 229.489 253.7 225.847 254.32C223.625 254.691 223.008 255.806 222.761 257.725C221.65 267.014 222.391 276.178 225.415 284.91C228.563 294.012 232.575 302.867 236.032 311.846C244.179 333.086 249.179 355.193 252.697 377.609C256.524 402.131 258.376 426.838 256.956 451.608C256.277 463.497 254.672 475.386 253.499 487.275C253.438 488.08 253.376 488.885 253.376 489.752C253.438 490 253.253 490 253.067 490ZM122.213 433.65C122.028 435.693 120.979 435.074 120.547 433.959C119.929 432.287 120.176 430.182 119.312 428.696C115.979 423.247 112.337 417.983 108.819 412.658C108.572 412.782 108.325 412.967 108.078 413.091C108.881 421.575 109.621 430.058 110.424 438.48C111.782 436.498 112.522 434.393 113.14 432.287C113.757 430.058 114.189 427.767 114.683 425.414C117.584 426.033 117.769 428.2 117.892 430.182C118.201 435.941 118.448 441.7 118.633 447.459C118.695 449.626 118.633 451.855 118.633 454.332C123.324 449.378 126.904 440.523 127.089 433.65C125.484 433.65 123.818 433.65 122.213 433.65C122.645 433.402 123.077 432.969 123.509 432.969C132.398 432.287 139.99 428.262 147.211 423.432C155.914 417.612 164.124 410.8 174.555 407.828C173.999 407.58 173.506 407.518 173.073 407.518C165.543 407.766 159.124 411.11 152.458 414.144C144.804 417.612 136.965 420.646 129.25 423.866C127.398 424.671 125.361 425.352 123.756 426.467C121.164 428.386 120.732 431.173 122.213 433.65ZM143.076 351.168C146.779 350.92 150.483 350.858 154.063 350.363C169.247 348.257 183.505 342.932 197.393 336.678C210.478 330.795 222.206 322.931 230.662 310.918C231.773 309.369 232.02 308.193 231.094 306.521C229.736 303.982 228.687 301.319 227.514 298.657C222.638 287.201 218.996 275.435 219.675 262.741C219.798 260.512 220.107 258.345 220.292 255.868C218.194 256.177 216.465 256.425 214.737 256.611C200.602 257.973 187.393 261.936 175.234 269.429C165.42 275.435 155.42 281.132 145.359 287.015C148.261 288.749 151.347 290.483 154.371 292.402C157.396 294.322 159.494 297.047 161.531 300.7C145.421 298.161 130.175 295.746 115.362 302.62C115.856 304.416 116.349 305.84 116.72 307.326C118.078 313.394 116.473 316.8 111.35 320.392C110.115 321.259 109.189 323.364 109.128 324.974C108.819 341.26 108.696 357.546 108.572 373.894C108.572 374.699 108.572 375.442 108.572 376.99C116.905 368.94 124.188 360.952 130.175 351.725C123.077 351.23 116.349 350.796 109.621 350.363C109.621 349.991 109.621 349.558 109.621 349.186C110.671 349.124 111.72 348.877 112.769 348.938C118.016 349.248 123.201 349.558 128.447 350.115C130.299 350.301 131.41 350.053 132.459 348.319C137.829 339.402 142.397 330.052 145.421 320.082C145.668 319.215 146.038 318.348 146.347 317.419C147.026 321.444 147.458 325.346 146.903 329.123C146.1 336.492 144.495 343.861 143.076 351.168C140.422 358.103 139.002 365.596 134.558 370.612C139.99 367.454 145.853 363.367 152.211 360.456C160.544 356.679 170.419 359.28 176.468 365.906C177.209 366.711 177.826 367.701 178.505 368.692C177.764 369.002 177.579 369.125 177.394 369.125C177.085 369.064 176.839 368.94 176.53 368.816C163.938 363.181 152.952 366.153 143.508 375.442C130.422 388.322 128.941 405.165 128.262 422.38C136.842 421.017 144.002 416.807 151.347 413.091C152.087 412.72 152.581 411.729 153.013 410.924C156.346 404.422 160.544 398.477 166.222 393.957C175.789 386.34 185.48 378.786 195.603 371.974C211.404 361.323 225.971 349.372 238.871 335.315C239.55 334.572 240.414 333.272 240.229 332.529C237.945 325.222 235.476 317.977 232.884 310.298C232.081 311.227 231.649 311.846 231.217 312.342C226.773 317.048 222.761 322.25 217.761 326.275C203.071 337.916 185.85 344.48 168.012 349.248C161.037 351.106 153.692 351.787 146.471 352.778C145.298 353.025 143.137 353.83 143.076 351.168ZM89.0674 414.02C94.0053 426.343 98.5729 438.604 100.795 451.608C102.276 446.034 103.079 440.461 101.906 434.764C100.363 427.272 97.4619 420.274 92.8326 414.33C84.1295 403.121 74.9327 392.347 65.921 381.448C61.4152 400.087 61.2918 417.178 69.7479 437.861C76.9696 455.571 95.3633 478.235 106.103 482.074C101.906 474.333 98.5729 466.655 93.9436 460.029C86.2282 449.007 83.5123 436.932 84.0061 423.866C84.1296 420.15 85.8578 416.807 89.0674 414.02ZM106.72 391.666C106.967 391.666 107.214 391.604 107.399 391.604C107.585 390.118 107.955 388.569 107.955 387.083C107.893 366.339 107.77 345.657 107.646 324.912C107.646 322.002 108.387 319.649 111.288 318.41C114.189 317.172 115.177 314.633 115.362 311.661C115.917 302.62 107.214 292.217 98.8198 291.102C96.1657 295.56 93.7584 299.833 91.166 303.982C88.8823 307.636 89.0057 310.484 92.2154 313.333C94.0671 314.943 96.2274 316.181 98.2643 317.481C100.425 318.844 101.659 320.578 101.844 323.24C102.276 330.114 102.894 336.987 103.387 343.861C104.375 358.66 105.239 373.46 106.165 388.26C106.288 389.498 106.535 390.613 106.72 391.666ZM47.0336 324.85C50.6753 341.074 82.4013 387.207 97.215 397.734C95.3015 393.152 94.1905 388.755 91.845 385.164C85.9813 376.185 80.5496 367.082 76.1672 357.236C74.1303 352.654 71.2293 348.443 68.2665 344.418C62.4645 336.616 55.5515 329.99 47.0336 324.85ZM109.128 386.093C112.09 380.953 116.905 378.971 121.843 377.237C130.237 374.265 136.039 368.63 138.508 360.023C140.792 352.22 142.829 344.356 144.804 336.492C145.359 334.386 145.421 332.219 145.606 330.052C145.853 327.946 145.977 325.779 146.1 323.674C145.359 324.169 145.051 324.726 144.866 325.284C137.891 343.861 127.83 360.518 113.201 373.956C109.498 377.423 107.646 380.705 109.128 386.093ZM173.135 365.224C168.753 361.323 163.63 359.28 157.766 360.332C148.137 362.004 140.854 367.887 133.941 374.327C125.176 382.501 122.398 392.656 124.003 404.36C124.373 406.961 124.373 409.685 124.188 412.348C123.941 416.435 123.386 420.584 122.954 424.795C126.966 422.751 126.781 422.751 127.274 418.788C128.324 410.738 128.879 402.502 130.978 394.762C135.977 376.866 150.729 360.828 173.135 365.224ZM91.2895 358.041C90.8574 358.227 90.4254 358.475 90.055 358.66C90.2402 367.825 91.3512 376.928 94.4374 385.597C97.4619 394.019 101.289 402.193 104.745 410.428C104.684 410.49 104.56 410.552 104.498 410.614C103.758 409.747 102.955 408.88 102.029 407.766C103.634 420.77 105.239 433.464 106.844 446.406C110.362 442.876 108.51 439.099 108.387 435.569C108.017 424.795 107.399 414.02 106.906 403.245C106.782 400.149 107.338 396.867 106.474 394.019C103.758 385.288 100.733 376.618 97.4002 368.135C95.9805 364.543 93.3881 361.385 91.2895 358.041ZM104.19 385.226C104.498 385.164 104.869 385.102 105.177 385.102C105.177 384.73 105.177 384.421 105.177 384.049C103.696 365.039 101.906 346.028 100.857 327.018C100.548 321.011 97.7088 318.163 92.7091 316.119C92.0302 320.268 91.3512 324.355 90.6105 328.38C89.4378 334.82 90.1168 340.765 93.6967 346.462C98.1408 353.521 99.9926 361.571 101.289 369.745C102.091 374.946 103.202 380.086 104.19 385.226ZM89.0674 415.94C88.7588 415.94 88.4502 415.94 88.1416 415.94C87.7095 416.93 87.2157 417.921 86.8454 418.974C85.0554 424.361 85.3023 429.81 85.9813 435.445C87.9564 451.608 99.1284 463.249 105.301 477.553C105.424 477.182 105.548 476.996 105.486 476.81C105.424 476.315 105.239 475.82 105.116 475.324C103.758 466.841 97.9557 459.472 98.9432 450.369C99.0667 449.192 98.7581 447.892 98.3877 446.716C95.3015 436.374 92.1536 426.157 89.0674 415.94ZM114.374 389.374C112.337 395.443 110.3 401.326 108.51 407.27C108.202 408.323 108.819 409.933 109.56 410.986C113.201 416.187 116.967 421.265 120.732 426.467C125.423 413.029 122.645 395.567 114.374 389.374ZM88.3268 356.184C88.8206 355.936 89.2526 355.626 89.7464 355.379C91.9067 357.732 94.3757 359.899 96.104 362.562C97.8939 365.224 99.005 368.382 100.672 371.85C99.005 356.803 92.7091 344.542 82.7099 334.201C79.0065 346.152 82.5247 366.277 89.4378 372.346C89.0057 366.958 88.6971 361.571 88.3268 356.184ZM141.656 428.51C137.706 430.12 133.755 431.73 129.867 433.402C129.25 433.65 128.632 434.517 128.571 435.136C127.645 443 124.127 449.626 119.436 455.756C118.51 456.933 118.139 458.481 117.399 460.091C122.09 460.091 126.04 460.091 129.805 460.091C131.533 454.58 132.953 449.193 134.928 443.991C136.903 438.727 139.372 433.712 141.656 428.51ZM84.4999 283.052C84.6233 282.742 84.7468 282.495 84.8085 282.185C73.5131 281.38 55.5515 294.322 53.5146 304.539C65.0569 297.666 76.9696 291.412 90.1167 288.006C88.1416 286.272 86.3516 284.662 84.4999 283.052ZM70.3034 299.524C73.3279 307.883 82.6482 314.571 91.0426 314.323C86.3516 309.679 88.0799 305.344 91.7833 301.134C84.8085 296.056 77.7103 296.861 70.3034 299.524ZM90.4254 381.386C90.7957 381.201 91.166 381.077 91.4747 380.891C90.9192 379.157 90.7957 376.866 89.623 375.689C82.463 368.321 80.4261 359.218 79.6237 349.496C79.5003 348.195 78.883 346.833 78.2658 345.595C73.3896 336.492 63.699 333.829 55.5515 328.194C55.7984 329.061 55.7366 329.371 55.9218 329.556C56.2921 330.052 56.7242 330.485 57.218 330.857C67.7728 339.65 75.1179 350.796 80.6113 363.305C83.4506 369.621 87.154 375.442 90.4254 381.386ZM109.93 295.684C111.35 297.232 113.016 299.09 114.559 300.824C121.04 298.347 127.336 295.932 133.694 293.517C138.014 291.845 142.397 291.226 146.964 292.712C148.384 293.145 149.989 293.084 151.47 293.207C150.791 292.093 149.865 291.659 149.248 291.04C145.853 287.572 142.273 287.387 137.706 288.997C132.644 290.73 127.089 291.164 121.781 292.402C117.831 293.269 113.88 294.57 109.93 295.684ZM108.634 399.158C110.115 395.753 111.103 393.152 112.399 390.613C112.955 389.498 114.004 387.95 114.806 387.95C115.794 387.95 116.967 389.251 117.707 390.241C119.189 392.285 120.423 394.452 122.028 397.053C122.583 387.764 125.855 380.21 132.027 373.956C127.953 375.813 124.25 377.671 120.423 379.281C111.35 383.12 108.14 388.136 108.634 399.158ZM97.7705 289.43C95.1164 289.244 93.3264 288.749 91.7216 289.12C88.8206 289.74 85.9813 290.607 83.2037 291.721C78.7596 293.455 74.4389 295.437 70.1183 297.294C70.18 297.604 70.2417 297.914 70.3034 298.223C77.9572 295.622 85.4257 295.127 92.7709 300.267C94.3757 296.799 95.8571 293.703 97.7705 289.43ZM159.371 298.842C157.457 296.056 154.803 294.632 151.408 294.322C149.495 294.136 147.52 293.95 145.606 293.455C139.496 291.845 134.249 294.322 129.805 295.994C139.187 296.861 149.248 297.852 159.371 298.842Z" fill="white"/>
<path d="M107.399 490C107.955 479.597 106.967 469.441 102.893 459.719C102.585 458.976 102.647 457.862 103.017 457.181C108.14 447.768 113.386 438.48 115.423 427.767C115.794 427.829 116.102 427.829 116.473 427.891C116.658 434.517 117.028 441.204 117.028 447.83C117.028 451.422 116.658 455.075 115.917 458.543C115.485 460.648 114.251 462.878 112.707 464.302C110.609 466.16 110.362 468.141 110.547 470.618C111.041 477.12 111.35 483.56 111.658 490.062C110.239 490 108.819 490 107.399 490Z" fill="white"/>
<path d="M87.0923 96.5386C93.5733 101.926 95.6719 108.738 93.9436 116.788C93.6967 117.84 93.9436 119.079 94.314 120.131C97.647 129.668 100.98 139.142 104.437 148.616C104.93 149.979 105.98 151.217 107.276 153.26C113.387 135.427 119.25 118.398 124.929 101.369C125.299 100.316 124.497 98.3963 123.633 97.4055C119.127 92.3278 115.794 86.6309 113.942 80.067C113.695 79.1381 113.572 78.1474 113.695 77.0327C119.25 81.4912 124.991 85.702 127.583 92.6374C128.694 95.7336 127.46 98.3963 126.225 101.369C123.941 106.756 122.707 112.515 120.732 118.026C116.781 129.048 112.708 140.071 108.634 151.031C108.387 151.712 108.202 152.332 107.708 153.694C108.881 153.384 109.807 153.446 110.115 153.013C111.535 150.722 113.14 148.492 114.004 146.015C120.917 125.643 127.645 105.27 134.496 84.897C135.422 82.1105 135.484 82.1724 133.57 81.2435C132.027 84.7112 130.484 88.1789 128.941 91.6467C128.694 91.5228 128.447 91.4609 128.2 91.337C129.373 88.0551 130.546 84.7732 131.595 81.4912C131.842 80.7481 132.089 79.7574 131.78 79.1381C129.003 73.6269 129.805 68.0538 131.595 62.6046C134.743 53.0064 138.508 43.5941 144.989 35.6679C145.668 34.801 146.471 33.996 147.952 32.324C149.433 37.5875 150.976 42.046 151.902 46.5664C154.433 59.3846 148.507 69.0446 140.175 77.8997C138.261 79.8812 136.533 82.3581 135.607 84.9589C128.818 104.279 122.275 123.661 115.67 142.981C115.609 143.229 115.67 143.538 115.67 142.981C123.448 136.789 131.595 130.225 139.866 123.599C139.866 123.723 140.113 124.156 139.99 124.404C136.286 132.33 132.953 140.442 128.694 147.997C125.361 153.942 120.176 158.029 112.399 157.719C112.831 158.834 113.14 159.7 113.572 160.877C112.461 161.249 111.473 161.62 109.868 162.177C109.868 169.67 109.807 177.287 109.93 184.903C109.93 185.832 110.486 186.823 110.918 187.752C111.905 189.795 113.263 191.653 114.004 193.758C115.547 197.969 113.88 200.694 109.313 201.87C109.313 203.233 109.313 204.657 109.313 206.081C109.313 207.505 109.313 208.868 109.313 210.292C113.942 206.329 118.263 202.428 122.83 198.836C125.793 196.483 126.781 196.916 128.509 200.384C131.101 205.71 129.003 213.388 123.448 217.413C120.547 219.457 117.152 220.757 114.127 222.305C125.855 220.509 137.767 219.642 149.804 222.305C145.113 216.98 143.384 210.663 142.829 203.976C142.273 197.35 142.397 190.724 144.063 183.417C152.087 193.635 161.099 202.49 157.396 216.856C159.865 214.503 161.284 210.044 160.729 207.382C159.679 202.428 158.568 197.536 157.766 192.52C157.396 189.919 157.704 187.256 157.704 184.532C149.433 176.606 147.582 166.141 147.026 155.304C147.273 155.18 147.582 155.056 147.828 154.932C148.507 155.799 149.186 156.666 149.742 157.471C149.495 151.65 149.372 145.768 148.939 139.947C148.693 136.17 148.075 132.392 147.396 128.615C146.964 126.262 147.828 124.9 149.989 125.333C154.124 126.262 158.383 127.253 162.272 128.986C165.605 130.411 167.457 133.569 168.136 137.718C170.234 134.745 172.024 132.021 173.999 129.42C180.295 121.184 188.319 120.998 195.109 128.986C199.368 133.94 201.158 139.885 201.898 146.263C202.022 147.254 202.022 148.245 202.084 149.359C206.528 149.359 210.725 148.926 214.86 149.483C219.613 150.102 223.44 152.765 226.279 156.666C228.008 159.081 228.008 161.311 225.909 163.602C223.008 166.884 220.292 170.351 217.083 174.191C221.774 175.119 221.897 178.03 221.712 181.188C221.28 187.071 219.181 191.777 213.379 194.13C212.638 194.44 211.898 194.873 211.219 195.306C204.121 200.322 196.343 200.632 188.196 198.65C186.961 198.341 185.295 198.836 184.06 199.393C179.554 201.561 175.049 203.79 170.666 206.205C168.815 207.258 166.778 208.558 165.605 210.23C162.642 214.565 160.173 219.209 157.087 224.41C162.087 224.844 166.778 225.587 171.469 225.711C191.652 226.144 210.169 220.262 227.205 209.611C228.131 209.053 228.995 207.877 229.18 206.824C233.192 189.362 237.204 171.899 240.97 154.375C242.019 149.545 242.328 144.591 243.068 139.08C236.279 143.538 229.983 147.625 223.687 151.712C223.502 151.465 223.317 151.217 223.131 151.031C223.749 150.474 224.304 149.917 224.921 149.421C229.983 145.892 235.106 142.486 240.105 138.832C241.34 137.965 242.574 136.417 242.821 134.993C244.488 125.643 245.846 116.292 247.265 106.942C247.389 106.199 247.019 105.332 246.71 104.589C246.031 102.979 245.229 101.431 244.488 99.8205C242.574 95.5478 240.352 92.0801 236.279 88.9839C226.279 81.3055 219.181 70.7165 212.268 60.1276C209.244 55.5453 206.775 50.3437 203.935 45.2041C198.442 50.963 193.134 56.8457 187.393 62.295C173.135 75.8562 158.815 89.2936 144.31 102.607C141.347 105.332 137.582 107.313 134.064 109.357C132.644 110.162 130.916 110.348 129.188 110.595C142.458 105.27 151.223 94.3094 161.099 84.897C175.234 71.3977 188.69 57.1553 202.331 43.0987C203.565 41.7983 204.553 39.8168 204.861 38.021C206.589 27.1225 208.133 16.2239 209.737 5.32542C209.861 4.45849 210.046 3.65349 210.231 2.78656C210.54 2.78656 210.91 2.78656 211.219 2.78656C211.28 3.83926 211.527 4.95388 211.404 6.00658C209.676 17.2766 207.824 28.5467 206.157 39.8787C205.972 41.3029 205.911 43.0987 206.589 44.2752C213.996 58.0222 222.329 71.0881 233.254 82.4201C234.612 83.7824 236.093 85.0209 238.13 86.8786C236.464 81.5531 235.044 77.0947 233.624 72.6362C233.81 72.5742 233.995 72.5123 234.18 72.4504C237.513 79.5716 240.784 86.7547 244.241 93.8759C252.821 111.772 261.277 129.791 266.338 149.112C267.758 154.561 268.622 160.196 269.918 165.707C270.535 168.308 271.461 170.785 272.387 173.633C276.214 171.59 279.794 169.918 283.868 171.714C273.93 171.218 268.745 178.959 262.511 184.408C248.747 196.483 234.55 207.753 218.44 216.484C202.577 225.03 185.418 227.754 167.765 227.135C161.593 226.949 155.482 224.968 149.372 223.605C136.903 220.819 124.435 221.748 111.967 223.853C104.066 225.215 96.2891 226.949 88.3268 228.497C88.8205 229.612 89.4378 230.541 89.623 231.594C90.3019 235.495 88.5119 237.538 84.6233 237.414C83.2037 237.352 81.784 237.229 79.6854 237.105C83.2654 240.263 86.9688 241.687 90.7957 241.439C97.5236 240.944 104.19 239.582 110.856 238.839C116.843 238.219 122.892 237.972 128.941 237.538C129.003 237.972 129.126 238.405 129.188 238.901C128.077 239.396 126.904 239.891 125.793 240.325C119.189 242.616 112.584 244.845 105.98 247.074C105.671 247.198 105.363 247.198 105.116 247.384C99.3136 251.843 91.9685 252.586 85.4875 255.496C80.7347 257.601 75.982 256.053 71.2293 255.372C67.279 254.815 63.4521 254.01 59.5018 252.957C61.909 253.143 64.3162 253.267 66.7234 253.576C71.1676 254.196 75.6117 254.939 80.0558 255.682C80.4261 255.744 80.9199 255.806 81.2902 255.682C87.2775 252.895 93.9436 252.09 99.8691 248.87C105.98 245.588 112.708 243.483 119.189 240.882C120.547 240.325 122.028 239.953 124.25 239.21C116.349 238.343 109.745 240.572 103.017 241.687C98.5729 242.43 94.0671 242.74 89.5612 242.74C85.6726 242.74 82.2161 241.006 79.2534 238.405C77.9572 237.291 76.5375 236.3 74.871 235.061C73.1427 241.068 72.402 247.074 68.8838 251.904C68.5134 251.781 68.0814 251.657 67.711 251.533C67.8345 250.604 67.7727 249.613 68.1431 248.808C74.5006 233.575 74.3155 217.847 71.2293 201.994C69.5627 193.449 67.0938 185.027 64.9952 176.482C64.6866 175.119 64.4397 173.757 64.131 172.395C64.4397 172.209 64.81 172.085 65.1186 171.899C65.6741 172.766 66.3531 173.571 66.6617 174.5C72.1551 192.52 76.8461 210.602 75.3648 229.736C75.3648 229.922 75.4265 230.107 75.4882 230.231C84.0678 228.374 92.6474 226.578 101.165 224.596C101.906 224.41 103.017 223.172 103.017 222.429C103.202 216.67 103.079 210.911 103.079 206.205C99.8074 204.1 96.5977 202.737 94.314 200.446C87.3392 193.511 82.4013 185.089 85.5492 175.181C87.8947 167.936 83.2654 163.664 81.4754 158.152C81.352 157.719 80.1792 157.347 79.4385 157.347C69.1307 157.162 63.8224 149.979 58.5759 142.548C65.6741 142.672 72.5872 143.291 78.5744 148.678C75.7968 140.504 73.2044 132.826 70.5503 125.147C70.3651 124.714 69.9948 124.28 69.6245 123.971C54.2552 108.552 50.6135 90.4082 57.1563 69.9735C58.2673 66.4438 59.7487 63.038 61.2918 59.6942C62.7114 56.598 64.4397 56.1645 67.0938 58.3938C68.6369 59.6942 69.8714 61.3661 71.4762 63.1C71.9082 60.3134 72.1551 57.4649 72.8958 54.8022C74.6241 48.7957 76.5992 42.851 78.451 36.8444C79.6854 33.0052 81.784 30.1567 86.475 29.8471C90.2402 37.7114 92.5857 46.2568 93.8202 55.0499C95.3015 65.5769 94.746 76.042 92.6474 86.4451C91.7833 90.4082 90.734 94.0617 87.0923 96.5386ZM91.2895 168.679C93.9436 166.884 96.104 168.803 98.1408 169.918C99.9925 170.971 101.597 172.519 103.511 174.067C103.511 169.856 103.511 166.079 103.511 161.93C98.326 161.93 93.2647 161.93 87.7712 161.93C89.0057 164.221 90.1785 166.388 91.3512 168.617C95.0546 177.101 98.7581 185.584 102.461 194.068C102.77 194.006 103.14 193.944 103.449 193.882C103.449 189.981 103.202 186.08 103.511 182.241C103.943 176.667 100.918 173.324 96.6595 170.785C95.0547 169.794 93.1412 169.361 91.2895 168.679ZM250.29 111.4C249.981 111.462 249.673 111.586 249.364 111.648C244.735 143.6 240.97 175.739 231.402 206.824C246.154 197.598 258.067 185.151 271.029 174.996C268.005 163.849 265.474 153.013 262.017 142.424C258.561 131.897 254.24 121.741 250.29 111.4ZM172.765 185.337C174.74 185.646 175.851 185.956 176.962 186.018C185.357 186.389 192.455 181.25 196.343 171.961C199.8 163.478 200.973 154.623 199.862 145.582C198.997 138.461 196.528 131.897 190.726 127.253C188.875 125.766 186.406 125.147 183.505 123.847C184.863 131.401 182.949 137.222 180.48 142.981C177.641 149.731 176.283 156.666 176.468 164.035C176.592 168.989 175.851 174.005 175.481 178.773C175.913 178.154 176.962 177.225 177.394 176.048C180.11 168.803 182.949 161.62 185.171 154.313C186.406 150.35 187.764 149.483 191.591 151.589C186.159 162.982 183.505 175.863 172.765 185.337ZM64.8717 58.5796C64.4397 58.6415 64.0076 58.7034 63.5755 58.7653C63.02 59.6942 62.2793 60.5611 61.909 61.5519C60.4276 65.2054 58.8228 68.735 57.7735 72.5123C52.4653 91.2751 56.3539 107.933 69.4393 122.423C69.8714 122.856 70.6738 123.351 71.1676 123.228C71.5996 123.104 71.97 122.237 72.0934 121.618C72.3403 120.441 72.4638 119.203 72.5255 117.964C73.2662 109.79 74.8093 101.554 74.4389 93.4424C74.0686 85.6401 72.0934 77.7758 70.18 70.1592C69.1924 66.1342 66.7234 62.4188 64.8717 58.5796ZM181.653 124.28C179.678 125.89 177.764 127.129 176.407 128.801C170.419 136.046 165.543 144.034 161.901 152.765C159.741 158.09 159.062 163.54 161.161 169.051C163.259 174.624 166.839 179.144 170.975 183.665C173.691 179.826 174.925 175.801 175.234 171.404C175.666 165.15 175.542 158.772 176.592 152.641C177.518 147.316 179.863 142.3 181.53 137.098C182.888 133.135 183.32 129.11 181.653 124.28ZM85.2406 95.7955C88.8823 94.619 89.9316 91.7086 90.6723 88.7363C93.4498 77.59 94.2522 66.32 92.3388 55.0499C91.1043 47.743 88.7588 40.5598 86.7837 32.6956C85.8578 33.6863 85.6726 33.8102 85.6109 33.996C85.1171 35.6679 84.5616 37.3398 84.1295 39.0118C80.7347 51.768 77.4017 64.5242 78.9447 77.9616C79.6854 84.3397 81.5371 90.3463 85.2406 95.7955ZM80.3644 106.137C80.1175 107.189 79.8706 108.552 79.5003 109.914C78.451 113.753 77.2782 117.593 76.2289 121.432C75.9203 122.608 75.5499 124.033 75.9203 125.085C78.7596 134.312 81.784 143.538 84.5616 152.765C85.4257 155.552 86.7837 155.923 89.3143 155.056C93.2647 153.756 97.3384 152.641 101.474 151.403C100.178 148.369 98.6346 144.653 96.9681 141.062C91.5364 129.358 89.0674 116.292 80.3644 106.137ZM191.899 181.683C192.023 182.055 192.146 182.364 192.27 182.736C194.8 181.621 197.516 180.816 199.923 179.392C204.614 176.668 209.367 174.438 214.922 174.5C215.663 174.5 216.589 173.819 217.083 173.2C219.551 170.042 221.773 166.76 224.242 163.602C226.465 160.753 226.588 159.267 224.119 156.604C218.872 151.093 212.33 150.102 205.17 151.031C202.824 151.341 202.022 152.27 201.898 154.747C201.405 164.778 198.689 174.005 191.899 181.683ZM187.085 197.474C192.763 198.588 198.257 199.889 203.627 197.66C206.836 196.359 209.799 194.44 212.947 193.015C218.502 190.476 219.922 185.646 220.23 180.135C220.354 177.473 219.119 176.11 216.404 176.11C211.774 176.048 207.577 177.225 203.442 179.268C198.936 181.559 194.121 183.355 189.369 185.151C186.961 186.08 184.431 186.699 181.777 187.504C189.862 192.086 189.862 192.086 187.085 197.474ZM149.68 127.438C150.051 136.108 150.359 144.467 150.853 152.889C150.976 154.87 151.717 156.852 152.211 158.834C152.273 159.143 152.273 159.391 152.334 159.824C151.779 159.577 151.285 159.329 150.853 159.081C150.791 159.205 150.668 159.267 150.606 159.391C153.754 162.921 156.902 166.388 160.235 170.042C158.136 162.177 158.013 158.957 160.544 152.703C162.025 148.988 163.753 145.334 165.914 141.99C167.518 139.452 167.148 137.408 165.914 135.117C163.074 129.977 155.976 126.695 149.68 127.438ZM147.643 37.4017C146.038 40.6218 144.495 43.7179 142.891 46.8141C138.261 55.6692 135.422 65.0815 134.311 74.9893C134.126 76.847 134.558 78.8285 134.805 81.1197C149.557 71.3977 154.865 52.6968 147.643 37.4017ZM144.681 187.752C144.434 190.724 144.125 193.263 144.002 195.802C143.631 202.675 144.495 209.363 147.149 215.803C148.631 219.333 150.791 221.995 154.988 221.934C159.556 208.187 154.495 197.474 144.681 187.752ZM136.718 129.048C124.805 135.427 116.288 144.405 110.115 156.48C115.547 156.604 120.238 155.923 123.818 152.208C130.052 145.768 133.2 137.47 136.718 129.048ZM109.436 221.067C116.473 220.2 122.707 218.094 126.534 211.53C129.188 206.948 128.879 203.047 125.176 198.526C121.164 201.994 117.337 205.71 113.201 208.93C108.942 212.212 108.757 216.36 109.436 221.067ZM82.2161 94.7428C72.2786 73.1935 79.0065 52.9445 83.6975 32.4479C82.4013 33.6244 81.2903 34.9248 80.6113 36.411C74.2537 50.158 71.6613 64.648 73.5748 79.6954C74.2537 85.4543 76.1672 90.9036 82.2161 94.7428ZM104.807 161.992C104.807 181.931 104.807 201.808 104.807 221.872C105.98 221.624 107.214 221.314 108.51 221.005C108.51 201.127 108.51 181.559 108.51 161.992C107.399 161.992 106.35 161.992 104.807 161.992ZM169.308 205.957C175.728 203.728 181.221 201.313 185.542 196.916C188.69 193.696 188.381 191.467 184.122 190.167C179.061 188.619 173.876 187.628 168.753 186.389C168.568 186.637 168.444 186.947 168.259 187.194C172.641 193.015 173.752 199.084 169.308 205.957ZM167.827 185.337C162.272 181.869 158.63 183.851 159.247 190.229C159.865 196.297 161.284 202.242 162.395 208.558C165.914 206.824 168.568 204.781 169.679 201.375C172.024 194.44 168.753 189.176 164.309 184.16C165.481 184.532 166.654 184.903 167.827 185.337ZM103.079 202.985C100.239 197.845 97.4002 193.015 94.9312 187.999C92.4005 182.922 90.3019 177.658 87.8947 172.147C82.6482 184.222 92.1536 203.233 103.079 202.985ZM149.001 159.948C148.693 160.072 148.446 160.134 148.137 160.258C149.804 165.336 151.223 170.537 153.198 175.491C154.186 177.844 156.161 179.826 157.889 181.869C158.321 182.426 159.494 182.674 160.235 182.55C162.087 182.241 163.938 181.683 166.099 181.126C161.408 173.324 155.914 166.079 149.001 159.948ZM102.338 199.455C102.708 199.27 103.079 199.084 103.387 198.96C97.8939 186.761 92.6474 174.438 86.8454 162.363C80.9816 150.164 79.1916 136.541 73.081 124.28C72.6489 125.271 72.5255 126.2 72.7724 127.067C79.0065 146.882 85.9813 166.45 94.9929 185.213C97.4001 190.043 99.9308 194.687 102.338 199.455ZM83.0802 97.4675C83.6358 99.3252 84.1295 100.997 84.6233 102.669C89.8081 119.079 95.0546 135.427 102.894 150.784C103.387 151.712 104.375 152.455 105.116 153.26C104.128 149.855 102.461 146.944 101.35 143.91C96.2891 129.234 91.3512 114.496 86.4133 99.8205C85.9195 98.1486 85.7344 96.4148 83.0802 97.4675ZM80.6113 156.357C78.451 148.307 72.5872 144.653 61.2918 144.282C66.2914 153.322 75.7351 158.586 80.6113 156.357ZM111.473 159.577C109.128 157.533 107.646 155.366 105.609 154.685C98.7581 152.332 92.6474 155.242 86.4133 158.09C89.623 160.32 101.597 161.063 111.473 159.577ZM76.9696 92.6994C75.8586 102.359 74.7475 112.205 73.6365 121.989C74.9327 120.751 76.0437 119.326 76.4141 117.778C78.0189 111.153 79.3768 104.527 80.7347 97.839C80.8582 97.0959 80.5496 95.9813 80.0558 95.424C79.0065 94.3094 77.6485 93.3186 76.9696 92.6994ZM145.977 37.8971C145.606 37.7114 145.174 37.5256 144.804 37.3398C142.335 42.046 139.434 46.5664 137.459 51.4584C134.99 57.5888 133.076 64.0288 131.348 70.4069C130.608 73.1935 131.101 76.1658 133.262 79.3239C133.2 63.7811 139.187 50.7153 145.977 37.8971ZM83.2037 236.671C87.4626 236.795 88.5736 235.804 88.5119 232.956C88.4502 229.922 86.2899 229.798 84.1913 230.045C81.9692 230.355 79.8089 230.912 77.6486 231.656C76.7844 231.965 76.1672 232.894 75.4882 233.575C76.2906 234.256 77.0313 235.185 77.9572 235.495C79.9941 236.176 82.1544 236.486 83.2037 236.671ZM115.362 79.6335C116.905 86.9405 122.151 95.4859 126.595 98.2725C126.904 89.6651 121.04 85.1447 115.362 79.6335ZM109.436 201.623C110.979 200.136 112.461 199.393 112.769 198.341C113.819 194.687 111.782 191.839 109.436 188.495C109.436 192.953 109.436 196.793 109.436 201.623ZM92.4622 115.301C94.0053 109.419 92.8943 104.217 88.1416 100.13C89.5612 105.208 90.9809 110.286 92.4622 115.301ZM186.159 155.242C183.937 161.682 181.962 167.441 180.048 173.2C180.419 173.324 180.727 173.447 181.098 173.571C183.196 168.246 185.356 162.921 187.332 157.533C187.455 157.1 186.776 156.357 186.159 155.242ZM82.6482 100.006C81.4137 104.279 82.6482 107.994 85.9195 111.834C84.6851 107.375 83.6975 103.722 82.6482 100.006Z" fill="white"/>
<path d="M86.4133 281.318C87.6477 280.08 88.8822 278.841 90.2401 277.479C86.3515 276.24 82.6481 274.816 81.0433 270.605C80.9198 270.234 80.1792 270.048 79.7471 269.862C72.8958 267.138 66.0444 264.475 59.0079 261.688C42.5277 283.362 30.1829 307.574 20.4306 333.21C35.3677 346.647 51.1073 359.094 64.5013 373.955C64.2544 374.203 64.0693 374.451 63.8224 374.699C49.2556 361.509 34.6888 348.381 19.9368 335.006C1.79 385.164 -1.66653 436.374 5.86377 488.638C-2.77755 448.635 -1.41963 408.695 7.71548 369.064C16.8506 329.494 32.2815 292.774 57.65 260.574C56.7859 259.707 55.4897 258.592 54.2552 257.354C54.0083 257.106 53.8848 256.673 53.6997 256.301C57.0328 255.372 61.6003 257.416 63.02 260.264C63.3903 261.069 64.0693 261.998 64.8717 262.369C69.8096 264.599 74.6857 267.385 79.9323 268.624C83.8209 269.553 88.2033 268.438 92.3387 268.066C95.2398 267.819 98.1408 267.261 101.104 266.89C101.165 267.261 101.227 267.633 101.289 268.005C98.2642 268.438 95.178 268.933 92.1536 269.367C89.0057 269.8 85.8577 270.172 82.4629 270.605C84.006 273.825 86.475 275.559 89.6229 275.931C95.3632 276.612 101.104 277.045 106.782 277.603C107.77 277.726 108.757 278.036 109.745 278.284C109.683 278.593 109.621 278.903 109.621 279.213C103.758 278.717 97.8939 278.222 91.9684 277.665C91.8449 277.85 91.7215 278.098 91.5363 278.284C93.0177 279.336 94.3756 280.823 95.9804 281.318C100.61 282.618 105.301 283.485 109.992 284.414C112.954 284.972 115.917 285.405 118.88 285.838C118.818 286.272 118.695 286.767 118.633 287.201C111.288 285.777 103.881 284.352 96.5359 282.804C95.4866 282.557 94.2522 282.061 93.5732 281.256C91.0425 278.532 88.7588 279.398 86.4133 281.318Z" fill="white"/>
<path d="M53.6379 43.3464C52.7737 48.486 51.2306 53.6876 51.2924 58.8272C51.3541 63.9669 53.0206 69.0446 53.5144 74.37C52.2182 70.8404 50.9838 67.3727 49.9344 64.4004C45.5521 73.3792 40.5524 82.6678 36.4169 92.2659C22.4674 124.59 39.2562 158.648 73.8215 168.556C76.0436 169.175 78.3274 169.67 80.6111 170.289C80.6111 170.599 80.5494 170.909 80.5494 171.156C78.0805 170.909 75.5498 170.785 73.1426 170.289C51.6627 166.017 33.2073 146.015 30.1829 124.095C28.3311 110.657 30.3063 98.0248 36.849 86.1355C42.8979 75.175 48.3296 64.0288 50.3665 51.5203C50.8603 48.6718 51.5393 45.8853 52.0948 43.0368C52.5886 43.1606 53.1441 43.2845 53.6379 43.3464Z" fill="white"/>
<path d="M145.977 162.921C145.051 162.673 143.878 162.735 143.137 162.177C137.212 157.781 130.607 159.143 124.126 159.639C121.596 159.824 119.127 159.948 116.596 159.701C126.595 158.834 136.903 154.127 145.977 162.921Z" fill="white"/>
<path d="M119.065 111.834C112.214 114.187 101.536 114.187 98.3259 111.834C105.177 111.834 112.09 111.834 119.065 111.834Z" fill="white"/>
<path d="M89.0673 414.02C85.8577 416.807 84.1294 420.15 84.006 423.866C83.5122 436.932 86.228 449.007 93.9435 460.029C98.6345 466.717 101.906 474.333 106.103 482.074C95.3631 478.235 76.9694 455.571 69.7478 437.86C61.2916 417.178 61.4151 400.087 65.9209 381.448C74.8708 392.347 84.1294 403.121 92.8324 414.33C97.4617 420.274 100.363 427.272 101.906 434.764C103.079 440.461 102.276 446.034 100.795 451.607C98.5728 438.604 94.0052 426.343 89.0673 414.02Z" fill="white"/>
<path d="M106.72 391.666C106.535 390.551 106.288 389.498 106.227 388.384C105.301 373.584 104.375 358.784 103.449 343.985C103.017 337.111 102.338 330.238 101.906 323.364C101.721 320.701 100.486 318.968 98.3259 317.605C96.2273 316.305 94.0669 315.066 92.277 313.456C89.0673 310.608 88.9439 307.759 91.2277 304.106C93.8201 299.957 96.2273 295.684 98.8814 291.226C107.214 292.279 115.979 302.682 115.423 311.784C115.238 314.695 114.312 317.296 111.35 318.534C108.449 319.773 107.646 322.064 107.708 325.036C107.831 345.78 107.955 366.463 108.017 387.207C108.017 388.693 107.646 390.241 107.461 391.728C107.214 391.666 106.967 391.666 106.72 391.666Z" fill="white"/>
<path d="M47.0334 324.85C55.5513 329.99 62.4644 336.616 68.2664 344.418C71.2292 348.443 74.1302 352.716 76.1671 357.236C80.5494 367.082 85.9811 376.185 91.8449 385.164C94.1904 388.755 95.3014 393.152 97.2149 397.734C82.4012 387.207 50.6751 341.012 47.0334 324.85Z" fill="white"/>
<path d="M109.128 386.092C107.708 380.705 109.56 377.423 113.325 373.956C127.953 360.518 138.014 343.861 144.989 325.284C145.174 324.726 145.421 324.169 146.224 323.674C146.038 325.779 145.915 327.946 145.73 330.052C145.483 332.219 145.421 334.386 144.927 336.492C142.89 344.356 140.854 352.22 138.632 360.023C136.101 368.63 130.361 374.265 121.966 377.237C116.905 378.971 112.029 380.953 109.128 386.092Z" fill="white"/>
<path d="M173.135 365.224C150.668 360.828 135.977 376.866 131.039 394.7C128.879 402.44 128.385 410.676 127.336 418.726C126.781 422.689 126.966 422.689 123.015 424.733C123.447 420.522 124.003 416.435 124.25 412.286C124.435 409.623 124.435 406.899 124.065 404.298C122.398 392.595 125.237 382.501 134.002 374.265C140.915 367.825 148.199 361.942 157.828 360.27C163.63 359.28 168.814 361.323 173.135 365.224Z" fill="white"/>
<path d="M91.2894 358.041C93.3262 361.385 95.9186 364.481 97.3383 368.073C100.671 376.556 103.696 385.226 106.412 393.957C107.276 396.805 106.72 400.087 106.844 403.183C107.338 413.958 107.955 424.733 108.325 435.507C108.449 439.037 110.3 442.876 106.782 446.344C105.177 433.402 103.572 420.77 101.968 407.704C102.955 408.818 103.696 409.685 104.437 410.552C104.498 410.49 104.622 410.428 104.683 410.367C101.227 402.069 97.4 393.957 94.3755 385.535C91.2894 376.866 90.1783 367.763 89.9932 358.599C90.487 358.475 90.919 358.227 91.2894 358.041Z" fill="white"/>
<path d="M104.19 385.226C103.202 380.086 102.091 374.884 101.289 369.683C99.9308 361.509 98.0791 353.459 93.6967 346.4C90.1168 340.703 89.4378 334.758 90.6106 328.318C91.3512 324.293 91.9685 320.206 92.7092 316.057C97.7088 318.101 100.548 321.011 100.857 326.956C101.906 345.966 103.696 364.977 105.177 383.987C105.177 384.359 105.177 384.668 105.177 385.04C104.807 385.164 104.498 385.226 104.19 385.226Z" fill="white"/>
<path d="M89.0673 415.94C92.2152 426.157 95.3014 436.374 98.3876 446.592C98.7579 447.768 99.0665 449.069 98.9431 450.245C97.9555 459.348 103.819 466.717 105.115 475.2C105.177 475.696 105.362 476.191 105.486 476.686C105.486 476.872 105.362 477.058 105.301 477.43C99.1282 463.187 87.9562 451.484 85.9811 435.322C85.3021 429.687 85.0552 424.299 86.8452 418.85C87.2156 417.797 87.7094 416.868 88.1414 415.816C88.3883 415.878 88.6969 415.94 89.0673 415.94Z" fill="white"/>
<path d="M114.374 389.375C122.707 395.567 125.484 413.029 120.732 426.405C116.966 421.265 113.14 416.125 109.56 410.924C108.881 409.933 108.202 408.261 108.51 407.208C110.238 401.326 112.337 395.443 114.374 389.375Z" fill="white"/>
<path d="M88.3268 356.183C88.6971 361.571 89.0675 366.958 89.4378 372.345C82.5248 366.277 79.0065 346.152 82.7099 334.201C92.7092 344.542 99.005 356.803 100.672 371.85C99.005 368.444 97.894 365.286 96.104 362.562C94.314 359.899 91.845 357.794 89.7464 355.378C89.2526 355.626 88.7589 355.936 88.3268 356.183Z" fill="white"/>
<path d="M122.213 433.65C120.732 431.173 121.102 428.386 123.694 426.59C125.299 425.414 127.336 424.733 129.188 423.99C136.903 420.77 144.742 417.735 152.396 414.268C159.062 411.233 165.481 407.89 173.012 407.642C173.506 407.642 173.999 407.704 174.493 407.951C164.062 410.924 155.853 417.673 147.149 423.556C139.928 428.386 132.336 432.411 123.448 433.092C123.016 433.154 122.583 433.526 122.151 433.774L122.213 433.65Z" fill="white"/>
<path d="M84.4997 283.052C86.3514 284.662 88.2031 286.334 90.1166 288.006C76.9694 291.412 65.0567 297.666 53.5144 304.539C55.5513 294.26 73.5129 281.318 84.8083 282.185C84.6849 282.433 84.6232 282.742 84.4997 283.052Z" fill="white"/>
<path d="M122.151 433.712C123.756 433.712 125.423 433.712 127.028 433.712C126.842 440.585 123.262 449.44 118.571 454.394C118.571 451.917 118.633 449.688 118.571 447.521C118.386 441.762 118.201 436.003 117.831 430.244C117.707 428.262 117.46 426.095 114.621 425.476C114.066 427.829 113.695 430.12 113.078 432.349C112.461 434.517 111.72 436.56 110.362 438.542C109.56 430.058 108.819 421.575 108.017 413.153C108.263 413.029 108.51 412.843 108.757 412.72C112.276 418.045 115.917 423.308 119.25 428.758C120.114 430.244 119.868 432.349 120.485 434.021C120.917 435.074 121.966 435.755 122.151 433.712C122.151 433.712 122.213 433.65 122.151 433.712Z" fill="white"/>
<path d="M70.3035 299.524C77.7103 296.861 84.8085 296.056 91.7833 301.134C88.0799 305.344 86.3516 309.679 91.0426 314.323C82.6482 314.571 73.3279 307.945 70.3035 299.524Z" fill="white"/>
<path d="M90.4252 381.386C87.1539 375.38 83.4504 369.559 80.6729 363.367C75.1177 350.858 67.8343 339.712 57.2796 330.919C56.7858 330.547 56.4154 330.052 55.9834 329.618C55.7982 329.433 55.8599 329.123 55.613 328.256C63.7606 333.891 73.4512 336.554 78.3274 345.657C78.9446 346.833 79.5619 348.195 79.6853 349.558C80.426 359.28 82.5246 368.444 89.6845 375.751C90.8573 376.928 90.919 379.219 91.5363 380.953C91.1659 381.077 90.7956 381.263 90.4252 381.386Z" fill="white"/>
<path d="M109.93 295.684C113.88 294.57 117.831 293.269 121.843 292.34C127.151 291.102 132.644 290.669 137.767 288.935C142.335 287.387 145.915 287.51 149.31 290.978C149.927 291.597 150.791 292.031 151.532 293.145C150.05 293.022 148.446 293.145 147.026 292.65C142.458 291.164 138.138 291.783 133.755 293.455C127.459 295.87 121.102 298.285 114.621 300.762C113.016 299.09 111.35 297.232 109.93 295.684Z" fill="white"/>
<path d="M108.634 399.158C108.14 388.198 111.35 383.12 120.423 379.281C124.25 377.671 128.015 375.813 132.027 373.956C125.855 380.21 122.583 387.764 122.028 397.053C120.361 394.452 119.188 392.223 117.707 390.241C116.966 389.251 115.794 387.888 114.806 387.95C113.942 387.95 112.954 389.56 112.399 390.613C111.103 393.09 110.115 395.753 108.634 399.158Z" fill="white"/>
<path d="M97.7704 289.43C95.7952 293.641 94.3756 296.799 92.7708 300.205C85.4257 295.065 77.9571 295.56 70.3033 298.161C70.2416 297.852 70.1799 297.542 70.1182 297.232C74.5006 295.375 78.8212 293.393 83.2036 291.659C85.9812 290.607 88.8205 289.678 91.7215 289.059C93.388 288.811 95.178 289.306 97.7704 289.43Z" fill="white"/>
<path d="M159.371 298.842C149.248 297.852 139.187 296.923 129.805 295.994C134.249 294.322 139.496 291.907 145.606 293.455C147.458 293.95 149.433 294.136 151.408 294.322C154.803 294.632 157.457 295.994 159.371 298.842Z" fill="white"/>
<path d="M172.765 185.337C183.443 175.863 186.159 162.982 191.59 151.527C187.764 149.421 186.406 150.288 185.171 154.251C182.887 161.62 180.11 168.803 177.394 175.986C176.962 177.163 175.913 178.092 175.48 178.711C175.851 173.943 176.592 168.989 176.468 163.973C176.283 156.604 177.641 149.669 180.48 142.919C182.887 137.222 184.863 131.34 183.505 123.785C186.406 125.085 188.936 125.705 190.726 127.191C196.528 131.835 198.997 138.399 199.861 145.52C200.972 154.561 199.8 163.416 196.343 171.899C192.516 181.188 185.356 186.389 176.962 185.956C175.851 185.956 174.74 185.646 172.765 185.337Z" fill="white"/>
<path d="M64.8717 58.5796C66.6617 62.4188 69.1306 66.0723 70.1799 70.1592C72.1551 77.7758 74.1302 85.6401 74.4389 93.4424C74.8092 101.554 73.2661 109.79 72.5254 117.964C72.402 119.203 72.3403 120.441 72.0934 121.618C71.9699 122.237 71.5378 123.166 71.1675 123.228C70.6737 123.351 69.8713 122.856 69.4392 122.423C56.3538 107.994 52.4652 91.2751 57.7734 72.5123C58.8228 68.735 60.4893 65.2054 61.9089 61.5519C62.341 60.5611 63.02 59.6942 63.5755 58.7653C64.0075 58.7034 64.4396 58.6415 64.8717 58.5796Z" fill="white"/>
<path d="M181.653 124.28C183.32 129.048 182.888 133.073 181.591 137.098C179.863 142.238 177.579 147.316 176.653 152.641C175.542 158.772 175.728 165.15 175.296 171.404C174.987 175.739 173.691 179.826 171.037 183.665C166.901 179.144 163.383 174.562 161.223 169.051C159.124 163.54 159.741 158.09 161.963 152.765C165.543 144.034 170.481 136.046 176.468 128.801C177.764 127.129 179.74 125.952 181.653 124.28Z" fill="white"/>
<path d="M85.2405 95.7955C81.5371 90.3463 79.7471 84.3397 79.0064 77.9616C77.4633 64.5242 80.7964 51.768 84.1912 39.0117C84.6232 37.3398 85.1788 35.6679 85.6726 33.9959C85.7343 33.8102 85.9194 33.6863 86.8453 32.6956C88.8205 40.5598 91.1042 47.681 92.4004 55.0499C94.3139 66.32 93.5732 77.652 90.7339 88.7362C89.9315 91.7086 88.8205 94.619 85.2405 95.7955Z" fill="white"/>
<path d="M191.899 181.683C198.689 174.005 201.405 164.778 201.837 154.747C201.96 152.27 202.763 151.341 205.108 151.031C212.268 150.102 218.811 151.093 224.057 156.604C226.588 159.205 226.403 160.753 224.181 163.602C221.712 166.76 219.428 170.042 217.021 173.2C216.527 173.819 215.601 174.5 214.86 174.5C209.305 174.438 204.553 176.668 199.862 179.392C197.454 180.754 194.8 181.621 192.208 182.736C192.146 182.364 192.023 182.055 191.899 181.683ZM225.23 161.187C221.341 157.038 215.231 157.595 211.342 162.487C215.601 158.648 220.23 158.09 225.23 161.187ZM204.491 170.413C204.306 170.227 204.059 170.042 203.874 169.856C201.343 172.642 198.812 175.429 196.282 178.216C196.467 178.401 196.652 178.525 196.837 178.711C199.368 175.924 201.96 173.138 204.491 170.413Z" fill="white"/>
<path d="M187.085 197.474C189.862 192.086 189.862 192.086 181.838 187.504C184.492 186.699 187.023 186.08 189.43 185.151C194.183 183.293 198.997 181.559 203.503 179.268C207.639 177.163 211.836 175.986 216.465 176.11C219.181 176.172 220.415 177.473 220.292 180.135C219.983 185.646 218.564 190.476 213.009 193.015C209.861 194.501 206.898 196.359 203.688 197.66C198.257 199.889 192.763 198.588 187.085 197.474Z" fill="white"/>
<path d="M149.68 127.438C155.976 126.695 163.074 129.977 165.852 135.179C167.086 137.47 167.457 139.513 165.852 142.052C163.691 145.396 161.963 149.112 160.482 152.765C158.013 158.957 158.075 162.239 160.173 170.104C156.902 166.45 153.754 162.982 150.544 159.453C150.606 159.329 150.729 159.267 150.791 159.143C151.285 159.391 151.717 159.577 152.273 159.886C152.211 159.453 152.211 159.205 152.149 158.896C151.717 156.914 150.915 154.932 150.791 152.951C150.359 144.467 150.051 136.108 149.68 127.438Z" fill="white"/>
<path d="M147.643 37.4017C154.865 52.6968 149.557 71.3358 134.743 81.1197C134.558 78.7666 134.064 76.847 134.249 74.9893C135.36 65.0815 138.199 55.6691 142.829 46.8141C144.495 43.7179 146.038 40.6218 147.643 37.4017Z" fill="white"/>
<path d="M144.68 187.752C154.495 197.474 159.494 208.187 155.05 221.872C150.853 221.934 148.631 219.271 147.211 215.741C144.557 209.363 143.693 202.613 144.063 195.74C144.187 193.263 144.434 190.724 144.68 187.752Z" fill="white"/>
<path d="M136.718 129.048C133.138 137.47 130.052 145.768 123.818 152.27C120.238 155.985 115.547 156.666 110.115 156.542C116.288 144.405 124.867 135.427 136.718 129.048Z" fill="white"/>
<path d="M109.436 221.067C108.757 216.36 108.942 212.212 113.14 208.93C117.337 205.71 121.164 201.994 125.114 198.526C128.817 203.047 129.126 206.948 126.472 211.53C122.707 218.032 116.473 220.2 109.436 221.067Z" fill="white"/>
<path d="M82.216 94.7428C76.1671 90.9036 74.2537 85.5163 73.5747 79.6954C71.6613 64.5861 74.2537 50.158 80.6112 36.411C81.2902 34.9248 82.4012 33.6863 83.6974 32.4479C78.9447 52.9445 72.2168 73.1935 82.216 94.7428Z" fill="white"/>
<path d="M104.807 161.992C106.412 161.992 107.399 161.992 108.51 161.992C108.51 181.559 108.51 201.189 108.51 221.005C107.276 221.314 105.98 221.562 104.807 221.872C104.807 201.87 104.807 181.993 104.807 161.992Z" fill="white"/>
<path d="M169.308 205.957C173.752 199.084 172.641 193.015 168.321 187.195C168.506 186.947 168.629 186.637 168.814 186.39C173.937 187.628 179.184 188.619 184.184 190.167C188.442 191.467 188.751 193.696 185.603 196.917C181.221 201.375 175.727 203.79 169.308 205.957Z" fill="white"/>
<path d="M167.827 185.337C166.654 184.965 165.481 184.532 164.309 184.16C168.753 189.176 172.024 194.44 169.679 201.375C168.506 204.781 165.913 206.824 162.395 208.558C161.284 202.242 159.803 196.297 159.247 190.229C158.63 183.851 162.272 181.869 167.827 185.337Z" fill="white"/>
<path d="M103.079 202.985C92.1536 203.233 82.6481 184.222 87.8947 172.147C90.3019 177.658 92.4005 182.922 94.9312 187.999C97.4001 193.015 100.239 197.845 103.079 202.985Z" fill="white"/>
<path d="M149.001 159.948C155.914 166.079 161.408 173.386 166.16 181.126C164 181.683 162.148 182.241 160.297 182.55C159.556 182.674 158.383 182.364 157.951 181.869C156.223 179.888 154.248 177.906 153.26 175.491C151.223 170.537 149.865 165.336 148.199 160.258C148.446 160.134 148.754 160.01 149.001 159.948Z" fill="white"/>
<path d="M102.338 199.455C99.9308 194.749 97.4001 190.043 95.0546 185.275C86.043 166.512 79.0682 146.944 72.8341 127.129C72.5872 126.262 72.7106 125.271 73.1427 124.342C79.2534 136.603 81.0433 150.164 86.9071 162.425C92.6474 174.5 97.9557 186.823 103.449 199.022C103.079 199.084 102.708 199.27 102.338 199.455Z" fill="white"/>
<path d="M83.0801 97.4675C85.7342 96.4148 85.9194 98.1486 86.4749 99.7586C91.4128 114.496 96.289 129.172 101.412 143.848C102.461 146.944 104.128 149.793 105.177 153.199C104.436 152.394 103.449 151.712 102.955 150.722C95.1162 135.365 89.8697 119.017 84.6849 102.607C84.1294 100.997 83.6356 99.3252 83.0801 97.4675Z" fill="white"/>
<path d="M91.2893 168.679C93.0793 169.361 95.0545 169.794 96.721 170.785C100.98 173.324 103.943 176.667 103.572 182.241C103.264 186.08 103.511 189.981 103.511 193.882C103.202 193.944 102.832 194.006 102.523 194.068C98.8196 185.584 95.1162 177.101 91.4128 168.617L91.2893 168.679Z" fill="white"/>
<path d="M80.6113 156.357C75.7351 158.648 66.2914 153.322 61.2917 144.282C72.5872 144.653 78.4509 148.307 80.6113 156.357Z" fill="white"/>
<path d="M111.473 159.577C101.597 161.063 89.623 160.32 86.4133 158.09C92.6474 155.18 98.7581 152.332 105.609 154.685C107.646 155.366 109.189 157.533 111.473 159.577Z" fill="white"/>
<path d="M76.9696 92.6994C77.7103 93.3186 79.0682 94.2475 80.1175 95.424C80.6113 95.9813 80.9199 97.0959 80.7965 97.839C79.4385 104.465 78.0189 111.153 76.4758 117.778C76.1055 119.388 74.9944 120.751 73.6982 121.989C74.7475 112.205 75.8586 102.421 76.9696 92.6994Z" fill="white"/>
<path d="M145.977 37.8971C139.187 50.7153 133.2 63.7811 133.2 79.3858C131.101 76.2277 130.546 73.1935 131.287 70.4688C133.015 64.0288 134.928 57.6507 137.397 51.5203C139.372 46.6283 142.273 42.1079 144.742 37.4017C145.174 37.5256 145.606 37.7113 145.977 37.8971Z" fill="white"/>
<path d="M83.2035 236.671C82.1542 236.424 79.9939 236.114 77.957 235.495C77.0311 235.185 76.2904 234.256 75.488 233.575C76.2287 232.894 76.846 231.965 77.6484 231.656C79.747 230.912 81.969 230.355 84.1911 230.046C86.2897 229.736 88.45 229.86 88.5117 232.956C88.5735 235.804 87.4624 236.795 83.2035 236.671Z" fill="white"/>
<path d="M115.362 79.6335C121.04 85.1447 126.904 89.6651 126.595 98.2725C122.151 95.424 116.905 86.9405 115.362 79.6335Z" fill="white"/>
<path d="M109.436 201.623C109.436 196.731 109.436 192.953 109.436 188.495C111.782 191.839 113.757 194.687 112.769 198.341C112.399 199.393 110.979 200.136 109.436 201.623Z" fill="white"/>
<path d="M92.4623 115.301C91.0426 110.224 89.623 105.208 88.1416 100.13C92.8943 104.279 93.9436 109.419 92.4623 115.301Z" fill="white"/>
<path d="M186.159 155.242C186.776 156.419 187.455 157.162 187.331 157.595C185.295 162.982 183.196 168.308 181.097 173.633C180.727 173.509 180.418 173.386 180.048 173.262C181.962 167.441 183.937 161.682 186.159 155.242Z" fill="white"/>
<path d="M82.6481 100.006C83.6974 103.722 84.685 107.375 85.9195 111.834C82.6481 107.994 81.4137 104.279 82.6481 100.006Z" fill="white"/>
<path d="M225.23 161.187C220.292 158.09 215.663 158.648 211.342 162.487C215.169 157.595 221.28 157.038 225.23 161.187Z" fill="white"/>
<path d="M204.491 170.413C201.96 173.2 199.429 175.986 196.837 178.773C196.652 178.587 196.467 178.463 196.281 178.278C198.812 175.491 201.343 172.704 203.873 169.918C204.059 170.042 204.244 170.227 204.491 170.413Z" fill="white"/>
</g>
<defs>
<clipPath id="clip0_136_489">
<rect width="328" height="490" fill="white"/>
</clipPath>
</defs>
</svg>
