<svg width="488" height="728" viewBox="0 0 488 728" fill="none" xmlns="http://www.w3.org/2000/svg">
<g clip-path="url(#clip0_62_127)">
<path d="M376.515 728C377.525 714.568 378.535 701.136 379.453 687.704C381.382 660.104 380.739 632.595 378.535 604.995C375.78 570.035 368.525 535.995 359.985 502.047C359.801 501.311 359.618 500.667 359.342 499.747C358.699 500.023 358.148 500.023 357.965 500.299C333.996 526.795 305.252 547.219 275.774 566.907C259.52 577.763 244.735 590.275 232.98 606.191C231.97 607.663 230.96 609.135 229.123 611.711C242.806 605.823 255.479 601.131 269.438 605.087C269.254 605.731 269.162 606.191 269.07 606.191C251.989 608.583 238.214 617.599 224.44 627.352C217.001 632.596 212.593 639.128 209.195 647.04C201.481 664.612 194.135 682.276 194.227 701.964C194.227 708.22 194.594 714.568 194.594 720.824C194.594 723.216 194.043 725.608 193.767 728C193.492 728 193.125 728 192.849 728C192.574 724.872 192.114 721.652 192.023 718.524C191.931 708.22 192.023 697.824 192.023 687.244C187.706 686.876 184.217 686.876 180.819 686.14C176.87 685.404 173.84 685.588 171.636 689.636C169.983 692.764 166.585 694.696 167.044 699.112C167.962 708.68 168.33 718.34 168.972 727.908C168.054 727.908 167.136 727.908 166.217 727.908C165.666 718.248 165.207 708.68 164.564 699.02C164.289 695.34 164.656 692.396 167.779 689.636C170.074 687.52 171.819 684.208 172.554 681.08C173.656 675.928 174.207 670.5 174.207 665.164C174.207 655.32 173.748 645.384 173.38 635.539C172.829 635.448 172.37 635.447 171.819 635.355C168.789 651.272 160.983 665.164 153.361 679.056C152.81 680.068 152.718 681.724 153.177 682.828C159.146 697.272 160.708 712.36 159.881 727.816C159.238 727.816 158.687 727.816 158.044 727.816C159.146 721.928 156.116 718.984 151.432 715.58C108.914 684.944 88.7105 643.268 91.2818 590.827C91.6492 582.455 93.7613 574.175 95.047 565.895C95.5061 563.411 96.149 560.927 96.9755 557.247C98.2611 558.811 99.1795 559.455 99.5468 560.375C102.577 569.299 108.363 576.475 114.791 583.099C126.362 594.967 137.015 607.571 144.82 622.383C153.085 637.932 156.483 654.216 151.524 671.512C151.065 673.26 150.239 674.916 149.779 676.756C149.504 677.768 149.779 678.872 150.147 680.068C152.81 674.64 157.31 670.408 156.391 663.048C153.728 642.9 151.983 622.567 149.412 602.327C148.953 599.015 146.657 595.611 144.269 593.035C135.545 583.651 125.535 575.279 117.73 565.251C101.2 544.183 85.4964 522.471 74.1091 497.907C71.3541 491.927 68.9664 485.855 67.1298 478.771C71.5378 481.531 75.9457 484.291 80.2619 487.051C80.4456 486.867 80.7211 486.591 80.9047 486.407C69.8848 476.563 58.8648 466.811 47.7531 456.967C48.0286 456.691 48.2122 456.323 48.4877 456.047C49.7734 456.967 51.1509 457.703 52.2529 458.715C62.1708 467.363 71.7214 476.379 82.0067 484.567C86.9657 488.523 93.2103 490.823 98.7203 493.951C101.751 495.699 105.057 497.263 107.628 499.471C111.485 502.783 114.883 506.647 118.556 510.419C119.199 503.795 119.934 496.619 120.668 489.535C121.036 489.443 121.403 489.443 121.77 489.351C124.801 493.951 127.831 498.551 131.045 503.335C132.607 491.743 134.076 480.703 135.637 469.663C119.291 467.455 106.618 460.463 100.924 443.35C89.7207 448.502 79.4354 453.746 71.5378 463.223C71.8133 462.211 72.0888 461.199 72.4561 460.187C79.6191 443.534 90.4553 430.01 106.342 420.902C113.23 416.946 120.577 415.382 128.382 417.682C128.841 418.602 129.117 419.89 129.852 420.258C139.402 425.318 148.861 430.654 158.687 434.978C162.177 436.542 166.86 436.358 170.717 435.622C178.89 434.15 187.155 432.402 195.053 429.826C205.889 426.33 216.817 422.65 227.011 417.59C239.133 411.61 250.704 404.158 262.275 397.074C279.172 386.77 297.722 381.526 317.007 378.582C358.883 372.142 397.361 355.582 435.104 337.274C444.196 332.858 453.195 328.35 462.195 323.842C463.848 323.014 465.317 321.91 466.97 321.082C479.184 314.918 483.776 305.074 484.969 291.366C487.541 262.109 482.031 234.049 475.878 205.897C461.552 139.657 442.543 74.8884 419.584 11.2241C418.299 7.63604 417.38 3.95602 416.37 0.368003C416.921 0.184002 417.472 -0.092 417.931 -0.276001C418.758 1.28801 419.952 2.85202 420.503 4.50803C429.594 31.2802 439.237 57.8683 447.593 84.9165C462.746 134.045 474.409 184.093 484.143 234.601C488.918 259.073 488.735 283.27 484.327 307.65C483.959 309.582 482.674 311.79 481.204 312.894C475.419 317.31 469.633 322.094 463.297 325.59C427.574 344.818 391.116 362.298 351.995 373.706C346.761 375.27 341.435 376.926 336.016 377.846C332.71 378.398 331.792 380.054 331.425 382.906C329.772 396.706 330.874 410.322 335.374 423.294C340.057 436.818 346.026 449.974 351.169 463.315C363.291 494.871 370.729 527.715 375.964 561.019C381.657 597.451 384.412 634.159 382.3 670.96C381.29 688.624 378.902 706.288 377.158 723.952C377.066 725.148 376.974 726.344 376.974 727.632C377.066 728 376.79 728 376.515 728ZM181.829 644.28C181.554 647.316 179.992 646.396 179.35 644.74C178.431 642.256 178.799 639.128 177.513 636.919C172.554 628.823 167.136 621.003 161.901 613.091C161.534 613.275 161.167 613.551 160.799 613.735C161.993 626.339 163.095 638.943 164.289 651.456C166.309 648.512 167.411 645.384 168.33 642.255C169.248 638.943 169.891 635.539 170.625 632.043C174.942 632.964 175.217 636.184 175.401 639.128C175.86 647.684 176.227 656.24 176.503 664.796C176.595 668.016 176.503 671.328 176.503 675.008C183.482 667.648 188.808 654.492 189.084 644.28C186.696 644.28 184.217 644.28 181.829 644.28C182.472 643.912 183.115 643.268 183.758 643.268C196.981 642.256 208.277 636.276 219.021 629.099C231.97 620.451 244.184 610.331 259.703 605.915C258.877 605.547 258.142 605.455 257.499 605.455C246.296 605.823 236.745 610.791 226.827 615.299C215.44 620.451 203.777 624.959 192.298 629.743C189.543 630.939 186.513 631.951 184.125 633.607C180.268 636.46 179.625 640.599 181.829 644.28ZM212.869 521.735C218.379 521.367 223.889 521.275 229.215 520.539C251.806 517.411 273.019 509.499 293.682 500.207C313.15 491.467 330.598 479.783 343.179 461.935C344.832 459.635 345.2 457.887 343.822 455.402C341.802 451.63 340.241 447.674 338.496 443.718C331.241 426.698 325.823 409.218 326.833 390.358C327.017 387.046 327.476 383.826 327.751 380.146C324.629 380.606 322.058 380.974 319.487 381.25C298.457 383.274 278.805 389.162 260.714 400.294C246.112 409.218 231.235 417.682 216.266 426.422C220.583 428.998 225.174 431.574 229.674 434.426C234.174 437.278 237.296 441.326 240.327 446.754C216.358 442.982 193.675 439.394 171.636 449.606C172.37 452.275 173.105 454.391 173.656 456.599C175.676 465.615 173.289 470.675 165.666 476.011C163.83 477.299 162.452 480.427 162.36 482.819C161.901 507.015 161.718 531.211 161.534 555.499C161.534 556.695 161.534 557.799 161.534 560.099C173.931 548.139 184.768 536.271 193.675 522.563C183.115 521.827 173.105 521.183 163.095 520.539C163.095 519.987 163.095 519.343 163.095 518.791C164.656 518.699 166.217 518.331 167.779 518.423C175.584 518.883 183.298 519.343 191.104 520.171C193.859 520.447 195.512 520.079 197.073 517.503C205.063 504.255 211.858 490.363 216.358 475.551C216.726 474.263 217.277 472.975 217.736 471.595C218.746 477.575 219.389 483.371 218.562 488.983C217.368 499.931 214.981 510.879 212.869 521.735C208.92 532.039 206.808 543.171 200.196 550.623C208.277 545.931 217.001 539.859 226.46 535.535C238.857 529.923 253.551 533.787 262.55 543.631C263.652 544.827 264.57 546.299 265.581 547.771C264.479 548.231 264.203 548.415 263.928 548.415C263.468 548.323 263.101 548.139 262.642 547.955C243.908 539.583 227.562 543.999 213.511 557.799C194.043 576.935 191.839 601.959 190.829 627.535C203.593 625.511 214.246 619.255 225.174 613.735C226.276 613.183 227.011 611.711 227.654 610.515C232.613 600.855 238.857 592.023 247.306 585.307C261.54 573.991 275.958 562.767 291.018 552.647C314.528 536.823 336.2 519.067 355.393 498.183C356.403 497.079 357.689 495.147 357.414 494.043C354.016 483.187 350.342 472.423 346.485 461.015C345.292 462.395 344.649 463.315 344.006 464.051C337.394 471.043 331.425 478.771 323.986 484.751C302.13 502.047 276.509 511.799 249.969 518.883C239.592 521.643 228.664 522.655 217.919 524.127C216.175 524.495 212.96 525.691 212.869 521.735ZM132.515 615.115C139.861 633.423 146.657 651.64 149.963 670.96C152.167 662.68 153.361 654.4 151.616 645.936C149.32 634.803 145.004 624.407 138.117 615.575C125.168 598.923 111.485 582.915 98.0775 566.723C91.3737 594.415 91.19 619.807 103.771 650.536C114.516 676.848 141.882 710.52 157.861 716.224C151.616 704.724 146.657 693.316 139.77 683.472C128.29 667.096 124.25 649.156 124.985 629.743C125.168 624.223 127.739 619.255 132.515 615.115ZM158.779 581.903C159.146 581.903 159.514 581.811 159.789 581.811C160.065 579.603 160.616 577.303 160.616 575.095C160.524 544.275 160.34 513.547 160.156 482.727C160.156 478.403 161.258 474.907 165.575 473.067C169.891 471.227 171.36 467.455 171.636 463.039C172.462 449.606 159.514 434.15 147.024 432.494C143.076 439.118 139.494 445.466 135.637 451.63C132.239 457.059 132.423 461.291 137.198 465.523C139.953 467.915 143.167 469.755 146.198 471.687C149.412 473.711 151.249 476.287 151.524 480.243C152.167 490.455 153.085 500.667 153.82 510.879C155.289 532.867 156.575 554.855 157.953 576.843C158.136 578.683 158.504 580.339 158.779 581.903ZM69.9766 482.635C75.3947 506.739 122.597 575.279 144.637 590.919C141.79 584.111 140.137 577.579 136.647 572.243C127.923 558.903 119.842 545.379 113.322 530.751C110.291 523.943 105.975 517.687 101.567 511.707C92.9348 500.115 82.6495 490.271 69.9766 482.635ZM162.36 573.623C166.768 565.987 173.931 563.043 181.278 560.467C193.767 556.051 202.4 547.679 206.073 534.891C209.471 523.299 212.501 511.615 215.44 499.931C216.266 496.803 216.358 493.583 216.634 490.363C217.001 487.235 217.185 484.015 217.368 480.887C216.266 481.623 215.807 482.451 215.532 483.279C205.155 510.879 190.186 535.627 168.421 555.591C162.911 560.743 160.157 565.619 162.36 573.623ZM257.591 542.619C251.071 536.823 243.449 533.787 234.725 535.351C220.399 537.835 209.563 546.575 199.277 556.143C186.237 568.287 182.105 583.375 184.492 600.763C185.043 604.627 185.043 608.675 184.768 612.631C184.4 618.703 183.574 624.867 182.931 631.123C188.9 628.087 188.625 628.087 189.359 622.199C190.921 610.239 191.747 598.003 194.869 586.503C202.308 559.915 224.256 536.087 257.591 542.619ZM135.821 531.947C135.178 532.223 134.535 532.591 133.984 532.867C134.26 546.483 135.913 560.007 140.504 572.887C145.004 585.399 150.698 597.543 155.84 609.779C155.749 609.871 155.565 609.963 155.473 610.055C154.371 608.767 153.177 607.479 151.8 605.823C154.187 625.143 156.575 644.004 158.963 663.232C164.197 657.988 161.442 652.376 161.258 647.132C160.708 631.123 159.789 615.115 159.055 599.107C158.871 594.507 159.697 589.631 158.412 585.399C154.371 572.427 149.871 559.547 144.912 546.943C142.8 541.607 138.943 536.915 135.821 531.947ZM155.014 572.335C155.473 572.243 156.024 572.151 156.483 572.151C156.483 571.599 156.483 571.139 156.483 570.587C154.279 542.343 151.616 514.099 150.055 485.855C149.596 476.931 145.371 472.699 137.933 469.663C136.923 475.827 135.913 481.899 134.811 487.879C133.066 497.447 134.076 506.279 139.402 514.743C146.014 525.231 148.769 537.191 150.698 549.335C151.892 557.063 153.545 564.699 155.014 572.335ZM132.515 617.967C132.056 617.967 131.596 617.967 131.137 617.967C130.494 619.439 129.76 620.911 129.209 622.475C126.546 630.479 126.913 638.576 127.923 646.948C130.862 670.96 147.484 688.256 156.667 709.508C156.851 708.956 157.034 708.68 156.942 708.404C156.851 707.668 156.575 706.932 156.391 706.196C154.371 693.592 145.739 682.644 147.208 669.12C147.392 667.372 146.933 665.44 146.382 663.692C141.79 648.328 137.106 633.148 132.515 617.967ZM170.166 578.499C167.136 587.515 164.105 596.255 161.442 605.087C160.983 606.651 161.901 609.043 163.003 610.607C168.421 618.335 174.023 625.879 179.625 633.607C186.604 613.643 182.472 587.699 170.166 578.499ZM131.413 529.187C132.147 528.819 132.79 528.359 133.525 527.991C136.739 531.487 140.412 534.707 142.984 538.663C145.647 542.619 147.3 547.311 149.779 552.463C147.3 530.107 137.933 511.891 123.056 496.527C117.546 514.283 122.781 544.183 133.066 553.199C132.423 545.195 131.964 537.191 131.413 529.187ZM210.756 636.643C204.879 639.036 199.002 641.428 193.216 643.912C192.298 644.28 191.38 645.568 191.288 646.488C189.91 658.172 184.676 668.016 177.697 677.124C176.319 678.872 175.768 681.172 174.666 683.564C181.645 683.564 187.523 683.564 193.125 683.564C195.696 675.376 197.808 667.372 200.747 659.644C203.685 651.824 207.359 644.372 210.756 636.643ZM125.719 420.534C125.903 420.074 126.086 419.706 126.178 419.246C109.373 418.05 82.6495 437.278 79.6191 452.458C96.7918 442.246 114.516 432.954 134.076 427.894C131.137 425.318 128.474 422.926 125.719 420.534ZM104.598 445.006C109.097 457.427 122.964 467.363 135.453 466.995C128.474 460.095 131.045 453.654 136.555 447.398C126.178 439.854 115.618 441.05 104.598 445.006ZM134.535 566.631C135.086 566.355 135.637 566.171 136.096 565.895C135.27 563.319 135.086 559.915 133.341 558.167C122.689 547.219 119.658 533.695 118.464 519.251C118.281 517.319 117.362 515.295 116.444 513.455C109.189 499.931 94.7715 495.975 82.6495 487.603C83.0169 488.891 82.925 489.351 83.2005 489.627C83.7515 490.363 84.3944 491.007 85.129 491.559C100.832 504.623 111.761 521.183 119.934 539.767C124.158 549.151 129.668 557.799 134.535 566.631ZM163.554 439.302C165.666 441.602 168.146 444.362 170.442 446.938C180.084 443.258 189.451 439.67 198.91 436.082C205.338 433.598 211.858 432.678 218.654 434.886C220.766 435.53 223.154 435.438 225.358 435.622C224.348 433.966 222.97 433.322 222.052 432.402C217.001 427.25 211.675 426.974 204.879 429.366C197.349 431.942 189.084 432.586 181.186 434.426C175.309 435.714 169.432 437.646 163.554 439.302ZM161.626 593.035C163.83 587.975 165.299 584.111 167.228 580.339C168.054 578.683 169.615 576.383 170.809 576.383C172.278 576.383 174.023 578.315 175.125 579.787C177.329 582.823 179.166 586.043 181.554 589.907C182.38 576.107 187.247 564.883 196.43 555.591C190.37 558.351 184.86 561.111 179.166 563.503C165.666 569.207 160.891 576.659 161.626 593.035ZM145.463 430.01C141.514 429.734 138.851 428.998 136.464 429.55C132.147 430.47 127.923 431.758 123.791 433.414C117.179 435.99 110.75 438.934 104.322 441.694C104.414 442.154 104.506 442.614 104.598 443.074C115.985 439.21 127.097 438.474 138.025 446.11C140.412 440.958 142.616 436.358 145.463 430.01ZM237.112 443.994C234.266 439.854 230.317 437.738 225.266 437.278C222.419 437.002 219.481 436.726 216.634 435.99C207.542 433.598 199.736 437.278 193.125 439.762C207.083 441.05 222.052 442.522 237.112 443.994Z" fill="white"/>
<path d="M159.789 728C160.616 712.544 159.146 697.456 153.085 683.012C152.626 681.908 152.718 680.252 153.269 679.24C160.891 665.256 168.697 651.456 171.727 635.539C172.278 635.631 172.738 635.632 173.289 635.724C173.564 645.568 174.115 655.504 174.115 665.348C174.115 670.684 173.564 676.112 172.462 681.264C171.819 684.392 169.983 687.704 167.687 689.82C164.565 692.58 164.197 695.524 164.473 699.204C165.207 708.864 165.666 718.432 166.126 728.092C164.013 728 161.901 728 159.789 728Z" fill="white"/>
<path d="M129.576 143.429C139.219 151.433 142.341 161.553 139.77 173.513C139.402 175.077 139.77 176.917 140.321 178.481C145.28 192.649 150.239 206.725 155.381 220.801C156.116 222.825 157.677 224.665 159.606 227.701C168.697 201.205 177.421 175.905 185.87 150.605C186.421 149.041 185.227 146.189 183.941 144.717C177.237 137.173 172.279 128.709 169.524 118.957C169.156 117.577 168.973 116.105 169.156 114.449C177.421 121.073 185.962 127.329 189.819 137.633C191.472 142.233 189.635 146.189 187.798 150.605C184.4 158.609 182.564 167.165 179.625 175.353C173.748 191.729 167.687 208.105 161.626 224.389C161.259 225.401 160.983 226.321 160.248 228.345C161.993 227.885 163.371 227.977 163.83 227.333C165.942 223.929 168.33 220.617 169.615 216.937C179.901 186.669 189.91 156.401 200.104 126.133C201.481 121.993 201.573 122.085 198.726 120.705C196.431 125.857 194.135 131.009 191.839 136.161C191.472 135.977 191.104 135.885 190.737 135.701C192.482 130.825 194.227 125.949 195.788 121.073C196.155 119.969 196.522 118.497 196.063 117.577C191.931 109.389 193.125 101.109 195.788 93.0125C200.471 78.7524 206.073 64.7683 215.715 52.9923C216.726 51.7043 217.919 50.5083 220.123 48.0243C222.327 55.8443 224.623 62.4683 226.001 69.1844C229.766 88.2285 220.95 102.581 208.553 115.737C205.706 118.681 203.134 122.361 201.757 126.225C191.655 154.929 181.921 183.725 172.095 212.429C172.003 212.797 172.095 213.257 172.095 212.429C183.666 203.229 195.788 193.477 208.093 183.633C208.093 183.817 208.461 184.461 208.277 184.829C202.767 196.605 197.808 208.657 191.472 219.881C186.513 228.713 178.799 234.785 167.228 234.325C167.871 235.981 168.33 237.269 168.973 239.017C167.32 239.569 165.85 240.121 163.463 240.949C163.463 252.081 163.371 263.397 163.554 274.714C163.554 276.094 164.381 277.566 165.024 278.946C166.493 281.982 168.513 284.742 169.615 287.87C171.911 294.126 169.432 298.174 162.636 299.922C162.636 301.946 162.636 304.062 162.636 306.178C162.636 308.294 162.636 310.318 162.636 312.434C169.524 306.546 175.952 300.75 182.747 295.414C187.155 291.918 188.625 292.562 191.196 297.714C195.053 305.626 191.931 317.034 183.666 323.014C179.35 326.05 174.299 327.982 169.799 330.282C187.247 327.614 204.971 326.326 222.878 330.282C215.899 322.37 213.328 312.986 212.501 303.05C211.675 293.206 211.858 283.362 214.338 272.506C226.276 287.686 239.684 300.842 234.174 322.186C237.847 318.69 239.959 312.066 239.133 308.11C237.572 300.75 235.919 293.482 234.725 286.03C234.174 282.166 234.633 278.21 234.633 274.161C222.327 262.385 219.572 246.837 218.746 230.737C219.113 230.553 219.572 230.369 219.94 230.185C220.95 231.473 221.96 232.761 222.787 233.957C222.419 225.309 222.236 216.569 221.593 207.921C221.225 202.309 220.307 196.697 219.297 191.085C218.654 187.589 219.94 185.565 223.154 186.209C229.307 187.589 235.643 189.061 241.429 191.637C246.388 193.753 249.143 198.445 250.153 204.609C253.275 200.193 255.938 196.145 258.877 192.281C268.244 180.045 280.182 179.769 290.284 191.637C296.62 198.997 299.283 207.829 300.385 217.305C300.569 218.777 300.569 220.249 300.661 221.905C307.273 221.905 313.518 221.261 319.67 222.089C326.741 223.009 332.435 226.965 336.659 232.761C339.231 236.349 339.231 239.661 336.108 243.065C331.792 247.941 327.752 253.093 322.976 258.797C329.956 260.177 330.139 264.501 329.864 269.193C329.221 277.934 326.099 284.926 317.466 288.422C316.364 288.882 315.262 289.526 314.252 290.17C303.691 297.622 292.12 298.082 279.998 295.138C278.162 294.678 275.682 295.414 273.846 296.242C267.142 299.462 260.438 302.774 253.918 306.362C251.163 307.926 248.132 309.858 246.388 312.342C241.98 318.782 238.306 325.682 233.715 333.41C241.153 334.054 248.132 335.158 255.112 335.342C285.141 335.986 312.691 327.246 338.037 311.422C339.414 310.594 340.7 308.846 340.976 307.282C346.945 281.338 352.914 255.393 358.516 229.357C360.077 222.181 360.536 214.821 361.638 206.633C351.536 213.257 342.169 219.329 332.802 225.401C332.527 225.033 332.251 224.665 331.976 224.389C332.894 223.561 333.721 222.733 334.639 221.997C342.169 216.753 349.791 211.693 357.23 206.265C359.067 204.977 360.903 202.677 361.271 200.561C363.75 186.669 365.77 172.777 367.883 158.885C368.066 157.781 367.515 156.493 367.056 155.389C366.046 152.997 364.852 150.697 363.75 148.305C360.903 141.957 357.597 136.805 351.536 132.205C336.659 120.797 326.099 105.065 315.813 89.3325C311.313 82.5244 307.64 74.7964 303.416 67.1604C295.243 75.7164 287.345 84.4565 278.805 92.5525C257.591 112.701 236.286 132.665 214.705 152.445C210.297 156.493 204.696 159.437 199.461 162.473C197.349 163.669 194.778 163.945 192.206 164.313C211.95 156.401 224.991 140.117 239.684 126.133C260.714 106.077 280.733 84.9165 301.028 64.0323C302.865 62.1003 304.334 59.1563 304.793 56.4883C307.365 40.2962 309.661 24.1041 312.048 7.91204C312.232 6.62403 312.507 5.42802 312.783 4.14001C313.242 4.14001 313.793 4.14001 314.252 4.14001C314.344 5.70402 314.711 7.36003 314.528 8.92404C311.956 25.6681 309.201 42.4122 306.722 59.2483C306.446 61.3643 306.355 64.0323 307.365 65.7804C318.385 86.2045 330.782 105.617 347.036 122.453C349.057 124.477 351.261 126.317 354.291 129.077C351.812 121.165 349.7 114.541 347.587 107.917C347.863 107.825 348.138 107.733 348.414 107.641C353.373 118.221 358.24 128.893 363.383 139.473C376.148 166.061 388.729 192.833 396.259 221.537C398.371 229.633 399.657 238.005 401.585 246.193C402.504 250.057 403.881 253.737 405.259 257.969C410.952 254.933 416.279 252.449 422.339 255.117C407.554 254.381 399.84 265.881 390.565 273.978C370.087 291.918 348.965 308.662 324.997 321.634C301.396 334.33 275.866 338.378 249.602 337.458C240.419 337.182 231.327 334.238 222.236 332.214C203.685 328.074 185.135 329.454 166.585 332.582C154.83 334.606 143.259 337.182 131.413 339.482C132.148 341.138 133.066 342.518 133.341 344.082C134.352 349.878 131.688 352.914 125.903 352.73C123.791 352.638 121.679 352.454 118.556 352.27C123.883 356.962 129.393 359.078 135.086 358.71C145.096 357.974 155.014 355.95 164.932 354.846C173.84 353.926 182.839 353.558 191.839 352.914C191.931 353.558 192.114 354.202 192.206 354.938C190.553 355.674 188.808 356.41 187.155 357.054C177.329 360.458 167.503 363.77 157.677 367.082C157.218 367.266 156.759 367.266 156.391 367.542C147.759 374.166 136.831 375.27 127.189 379.594C120.117 382.722 113.046 380.422 105.975 379.41C100.098 378.582 94.4042 377.386 88.5269 375.822C92.1084 376.098 95.6899 376.282 99.2713 376.742C105.883 377.662 112.495 378.766 119.107 379.87C119.658 379.962 120.393 380.054 120.944 379.87C129.852 375.73 139.77 374.534 148.586 369.75C157.677 364.874 167.687 361.746 177.329 357.882C179.35 357.054 181.554 356.502 184.86 355.398C173.105 354.11 163.279 357.422 153.269 359.078C146.657 360.182 139.953 360.642 133.25 360.642C127.464 360.642 122.321 358.066 117.913 354.202C115.985 352.546 113.873 351.074 111.393 349.234C108.822 358.158 107.72 367.082 102.485 374.258C101.935 374.074 101.292 373.89 100.741 373.706C100.924 372.326 100.833 370.854 101.384 369.658C110.842 347.026 110.567 323.658 105.975 300.106C103.496 287.41 99.8223 274.898 96.7 262.201C96.2409 260.177 95.8735 258.153 95.4144 256.129C95.8735 255.853 96.4245 255.669 96.8837 255.393C97.7102 256.681 98.7204 257.877 99.1795 259.257C107.353 286.03 114.332 312.894 112.128 341.322C112.128 341.598 112.22 341.874 112.312 342.058C125.076 339.298 137.841 336.63 150.514 333.686C151.616 333.41 153.269 331.57 153.269 330.466C153.545 321.91 153.361 313.354 153.361 306.362C148.494 303.234 143.718 301.21 140.321 297.806C129.944 287.502 122.597 274.99 127.28 260.269C130.77 249.505 123.883 243.157 121.219 234.969C121.036 234.325 119.291 233.773 118.189 233.773C102.853 233.497 94.9552 222.825 87.1494 211.785C97.7102 211.969 107.995 212.889 116.903 220.893C112.771 208.749 108.914 197.341 104.965 185.933C104.689 185.289 104.138 184.645 103.587 184.185C80.7211 161.277 75.303 134.321 85.0372 103.961C86.6902 98.7165 88.8942 93.6565 91.1901 88.6885C93.3022 84.0885 95.8735 83.4445 99.8223 86.7565C102.118 88.6885 103.955 91.1725 106.342 93.7485C106.985 89.6085 107.353 85.3765 108.455 81.4204C111.026 72.4964 113.965 63.6643 116.72 54.7403C118.556 49.0363 121.679 44.8042 128.658 44.3442C134.26 56.0283 137.749 68.7244 139.586 81.7884C141.79 97.4285 140.963 112.977 137.841 128.433C136.556 134.321 134.994 139.749 129.576 143.429ZM135.821 250.609C139.77 247.941 142.984 250.793 146.014 252.449C148.769 254.013 151.157 256.313 154.004 258.613C154.004 252.357 154.004 246.745 154.004 240.581C146.29 240.581 138.759 240.581 130.586 240.581C132.423 243.985 134.168 247.205 135.913 250.517C141.423 263.121 146.933 275.726 152.443 288.33C152.902 288.238 153.453 288.146 153.912 288.054C153.912 282.258 153.545 276.462 154.004 270.757C154.647 262.477 150.147 257.509 143.81 253.737C141.423 252.265 138.576 251.621 135.821 250.609ZM372.382 165.509C371.923 165.601 371.464 165.785 371.005 165.877C364.117 213.349 358.516 261.097 344.281 307.282C366.23 293.574 383.953 275.082 403.238 259.993C398.738 243.433 394.973 227.333 389.831 211.601C384.688 195.961 378.26 180.873 372.382 165.509ZM257.04 275.358C259.979 275.818 261.632 276.278 263.285 276.37C275.774 276.922 286.335 269.285 292.12 255.485C297.263 242.881 299.008 229.725 297.355 216.293C296.069 205.713 292.396 195.961 283.764 189.061C281.009 186.853 277.335 185.933 273.019 184.001C275.04 195.225 272.193 203.873 268.519 212.429C264.295 222.457 262.275 232.761 262.55 243.709C262.734 251.069 261.632 258.521 261.081 265.605C261.724 264.685 263.285 263.305 263.928 261.557C267.968 250.793 272.193 240.121 275.499 229.265C277.335 223.377 279.356 222.089 285.049 225.217C276.968 242.145 273.019 261.281 257.04 275.358ZM96.5164 87.0325C95.8735 87.1245 95.2307 87.2165 94.5879 87.3085C93.7614 88.6885 92.6594 89.9765 92.1084 91.4485C89.9044 96.8765 87.5167 102.121 85.9556 107.733C78.0579 135.609 83.8434 160.357 103.312 181.885C103.955 182.529 105.149 183.265 105.883 183.081C106.526 182.897 107.077 181.609 107.261 180.689C107.628 178.941 107.812 177.101 107.904 175.261C109.006 163.117 111.301 150.881 110.75 138.829C110.199 127.237 107.261 115.553 104.414 104.237C102.945 98.2565 99.2713 92.7365 96.5164 87.0325ZM270.264 184.645C267.326 187.037 264.479 188.877 262.458 191.361C253.551 202.125 246.296 213.993 240.878 226.965C237.664 234.877 236.653 242.973 239.776 251.161C242.898 259.441 248.224 266.157 254.377 272.874C258.418 267.169 260.254 261.189 260.714 254.657C261.356 245.365 261.173 235.889 262.734 226.781C264.111 218.869 267.601 211.417 270.081 203.689C272.101 197.801 272.744 191.821 270.264 184.645ZM126.821 142.325C132.239 140.577 133.801 136.253 134.903 131.837C139.035 115.277 140.229 98.5325 137.382 81.7884C135.545 70.9324 132.056 60.2603 129.117 48.5763C127.74 50.0483 127.464 50.2323 127.372 50.5083C126.638 52.9923 125.811 55.4763 125.168 57.9603C120.117 76.9124 115.158 95.8645 117.454 115.829C118.556 125.305 121.311 134.229 126.821 142.325ZM119.566 157.689C119.199 159.253 118.832 161.277 118.281 163.301C116.72 169.005 114.975 174.709 113.414 180.413C112.954 182.161 112.403 184.277 112.954 185.841C117.179 199.549 121.679 213.257 125.811 226.965C127.097 231.105 129.117 231.657 132.882 230.369C138.759 228.437 144.82 226.781 150.973 224.941C149.045 220.433 146.749 214.913 144.269 209.577C136.188 192.189 132.515 172.777 119.566 157.689ZM285.508 269.929C285.692 270.481 285.876 270.941 286.059 271.493C289.825 269.837 293.865 268.641 297.447 266.525C304.426 262.477 311.497 259.165 319.762 259.257C320.864 259.257 322.242 258.245 322.976 257.325C326.65 252.633 329.956 247.757 333.629 243.065C336.935 238.833 337.119 236.625 333.445 232.669C325.639 224.481 315.905 223.009 305.253 224.389C301.763 224.849 300.569 226.229 300.385 229.909C299.651 244.813 295.61 258.521 285.508 269.929ZM278.346 293.39C286.794 295.046 294.967 296.978 302.957 293.666C307.732 291.734 312.14 288.882 316.823 286.766C325.088 282.994 327.201 275.818 327.66 267.629C327.843 263.673 326.007 261.649 321.966 261.649C315.079 261.557 308.834 263.305 302.681 266.341C295.977 269.745 288.814 272.413 281.743 275.082C278.162 276.462 274.397 277.382 270.448 278.578C282.478 285.386 282.478 285.386 278.346 293.39ZM222.695 189.337C223.246 202.217 223.705 214.637 224.44 227.149C224.623 230.093 225.725 233.037 226.46 235.981C226.552 236.441 226.552 236.809 226.644 237.453C225.817 237.085 225.082 236.717 224.44 236.349C224.348 236.533 224.164 236.625 224.072 236.809C228.756 242.053 233.439 247.205 238.398 252.633C235.276 240.949 235.092 236.165 238.857 226.873C241.061 221.353 243.633 215.925 246.847 210.957C249.234 207.185 248.683 204.149 246.847 200.745C242.622 193.109 232.062 188.233 222.695 189.337ZM219.664 55.5683C217.277 60.3523 214.981 64.9524 212.593 69.5524C205.706 82.7085 201.481 96.6925 199.828 111.413C199.553 114.173 200.196 117.117 200.563 120.521C222.511 106.077 230.409 78.2924 219.664 55.5683ZM215.256 278.946C214.889 283.362 214.43 287.134 214.246 290.906C213.695 301.118 214.981 311.054 218.93 320.622C221.134 325.866 224.348 329.822 230.592 329.73C237.388 309.306 229.858 293.39 215.256 278.946ZM203.41 191.729C185.686 201.205 173.013 214.545 163.83 232.485C171.911 232.669 178.89 231.657 184.217 226.137C193.492 216.569 198.175 204.241 203.41 191.729ZM162.82 328.442C173.289 327.154 182.564 324.026 188.257 314.274C192.206 307.466 191.747 301.67 186.237 294.954C180.268 300.106 174.574 305.626 168.422 310.41C162.085 315.286 161.81 321.45 162.82 328.442ZM122.321 140.761C107.536 108.745 117.546 78.6604 124.525 48.2083C122.597 49.9563 120.944 51.8883 119.934 54.0963C110.475 74.5204 106.618 96.0485 109.465 118.405C110.475 126.961 113.322 135.057 122.321 140.761ZM155.932 240.673C155.932 270.297 155.932 299.83 155.932 329.638C157.677 329.27 159.514 328.81 161.442 328.35C161.442 298.818 161.442 269.745 161.442 240.673C159.789 240.673 158.228 240.673 155.932 240.673ZM251.898 305.994C261.448 302.682 269.621 299.094 276.05 292.562C280.733 287.778 280.274 284.466 273.938 282.534C266.407 280.234 258.693 278.762 251.071 276.922C250.796 277.29 250.612 277.75 250.336 278.118C256.857 286.766 258.51 295.782 251.898 305.994ZM249.694 275.358C241.429 270.205 236.011 273.15 236.929 282.626C237.847 291.642 239.959 300.474 241.612 309.858C246.847 307.282 250.796 304.246 252.449 299.186C255.938 288.882 251.071 281.062 244.459 273.609C246.204 274.161 247.949 274.714 249.694 275.358ZM153.361 301.578C149.137 293.942 144.912 286.766 141.239 279.314C137.474 271.77 134.352 263.949 130.77 255.761C122.964 273.702 137.107 301.946 153.361 301.578ZM221.685 237.637C221.225 237.821 220.858 237.913 220.399 238.097C222.878 245.641 224.991 253.369 227.929 260.729C229.399 264.225 232.337 267.169 234.909 270.206C235.551 271.034 237.296 271.401 238.398 271.217C241.153 270.757 243.908 269.929 247.122 269.101C240.143 257.509 231.97 246.745 221.685 237.637ZM152.259 296.334C152.81 296.058 153.361 295.782 153.82 295.598C145.647 277.474 137.841 259.165 129.209 241.225C120.485 223.101 117.822 202.861 108.73 184.645C108.087 186.117 107.904 187.497 108.271 188.785C117.546 218.225 127.923 247.297 141.331 275.174C144.912 282.35 148.677 289.25 152.259 296.334ZM123.607 144.809C124.434 147.569 125.168 150.053 125.903 152.537C133.617 176.917 141.423 201.205 153.085 224.021C153.82 225.401 155.289 226.505 156.391 227.701C154.922 222.641 152.443 218.317 150.79 213.809C143.259 192.005 135.913 170.109 128.566 148.305C127.831 145.821 127.556 143.245 123.607 144.809ZM119.934 232.301C116.72 220.341 107.995 214.913 91.1901 214.361C98.6285 227.793 112.679 235.613 119.934 232.301ZM165.85 237.085C162.361 234.049 160.157 230.829 157.126 229.817C146.933 226.321 137.841 230.645 128.566 234.877C133.341 238.189 151.157 239.293 165.85 237.085ZM114.516 137.725C112.863 152.077 111.21 166.705 109.557 181.241C111.485 179.401 113.138 177.285 113.689 174.985C116.077 165.141 118.097 155.297 120.117 145.361C120.301 144.257 119.842 142.601 119.107 141.773C117.546 140.117 115.526 138.645 114.516 137.725ZM217.185 56.3043C216.634 56.0283 215.991 55.7523 215.44 55.4763C211.767 62.4683 207.451 69.1844 204.512 76.4524C200.839 85.5605 197.992 95.1285 195.42 104.605C194.318 108.745 195.053 113.161 198.267 117.853C198.175 94.7605 207.083 75.3484 217.185 56.3043ZM123.791 351.626C130.127 351.81 131.78 350.338 131.688 346.106C131.597 341.598 128.382 341.414 125.26 341.782C121.954 342.242 118.74 343.07 115.526 344.174C114.24 344.634 113.322 346.014 112.312 347.026C113.505 348.038 114.607 349.418 115.985 349.878C119.015 350.89 122.23 351.35 123.791 351.626ZM171.636 118.313C173.931 129.169 181.737 141.865 188.349 146.005C188.808 133.217 180.084 126.501 171.636 118.313ZM162.82 299.554C165.116 297.346 167.32 296.242 167.779 294.678C169.34 289.25 166.309 285.018 162.82 280.05C162.82 286.674 162.82 292.378 162.82 299.554ZM137.566 171.305C139.861 162.565 138.208 154.837 131.137 148.765C133.25 156.309 135.362 163.853 137.566 171.305ZM276.968 230.645C273.662 240.213 270.723 248.769 267.877 257.325C268.428 257.509 268.887 257.693 269.438 257.877C272.56 249.965 275.774 242.053 278.713 234.049C278.896 233.405 277.886 232.301 276.968 230.645ZM122.964 148.581C121.128 154.929 122.964 160.449 127.831 166.153C125.995 159.529 124.525 154.101 122.964 148.581Z" fill="white"/>
<path d="M128.566 417.958C130.403 416.118 132.239 414.278 134.26 412.254C128.474 410.414 122.964 408.298 120.577 402.042C120.393 401.49 119.291 401.214 118.648 400.938C108.455 396.89 98.2612 392.934 87.7923 388.794C63.2729 420.994 44.9063 456.966 30.3967 495.055C52.6203 515.019 76.0377 533.511 95.9654 555.591C95.5981 555.959 95.3226 556.327 94.9552 556.695C73.2827 537.099 51.6101 517.595 29.662 497.723C2.66317 572.243 -2.47947 648.328 8.72414 725.976C-4.13247 666.544 -2.11214 607.203 11.4791 548.323C25.0704 489.535 48.0286 434.978 85.7719 387.138C84.4863 385.85 82.5578 384.194 80.7211 382.354C80.3538 381.986 80.1701 381.342 79.8946 380.79C84.8536 379.41 91.6492 382.446 93.7614 386.678C94.3124 387.874 95.3226 389.254 96.5164 389.806C103.863 393.118 111.118 397.258 118.924 399.098C124.709 400.478 131.229 398.822 137.382 398.27C141.698 397.902 146.014 397.074 150.422 396.522C150.514 397.074 150.606 397.626 150.698 398.178C146.198 398.822 141.606 399.558 137.107 400.202C132.423 400.846 127.74 401.398 122.689 402.042C124.985 406.826 128.658 409.402 133.341 409.954C141.882 410.966 150.422 411.61 158.871 412.438C160.34 412.622 161.81 413.082 163.279 413.45C163.187 413.91 163.095 414.37 163.095 414.83C154.371 414.094 145.647 413.358 136.831 412.53C136.647 412.806 136.464 413.174 136.188 413.45C138.392 415.014 140.413 417.222 142.8 417.958C149.688 419.89 156.667 421.178 163.646 422.558C168.054 423.386 172.462 424.03 176.87 424.674C176.778 425.318 176.595 426.054 176.503 426.698C165.575 424.582 154.555 422.466 143.627 420.166C142.065 419.798 140.229 419.062 139.219 417.866C135.454 413.818 132.056 415.106 128.566 417.958Z" fill="white"/>
<path d="M79.8028 64.4004C78.5172 72.0364 76.2214 79.7645 76.3132 87.4005C76.405 95.0365 78.8845 102.581 79.6192 110.493C77.6907 105.249 75.854 100.097 74.2929 95.6805C67.7727 109.021 60.3343 122.821 54.1815 137.081C33.4272 185.105 58.4058 235.705 109.832 250.425C113.138 251.345 116.536 252.081 119.934 253.001C119.934 253.461 119.842 253.921 119.842 254.289C116.169 253.921 112.404 253.737 108.822 253.001C76.8642 246.653 49.4062 216.937 44.9063 184.369C42.1514 164.405 45.09 145.637 54.8243 127.973C63.8239 111.689 71.9052 95.1285 74.9357 76.5444C75.6704 72.3124 76.6805 68.1724 77.507 63.9404C78.2417 64.1244 79.0682 64.3084 79.8028 64.4004Z" fill="white"/>
<path d="M217.185 242.053C215.807 241.685 214.062 241.777 212.96 240.949C204.144 234.417 194.318 236.441 184.676 237.177C180.911 237.453 177.237 237.637 173.472 237.269C188.349 235.981 203.685 228.989 217.185 242.053Z" fill="white"/>
<path d="M177.146 166.153C166.952 169.649 151.065 169.649 146.29 166.153C156.483 166.153 166.769 166.153 177.146 166.153Z" fill="white"/>
<path d="M132.515 615.115C127.74 619.255 125.168 624.223 124.985 629.743C124.25 649.156 128.291 667.096 139.77 683.472C146.749 693.408 151.616 704.724 157.861 716.224C141.882 710.52 114.516 676.848 103.771 650.536C91.1901 619.807 91.3738 594.415 98.0776 566.723C111.393 582.915 125.168 598.923 138.117 615.575C145.004 624.407 149.32 634.803 151.616 645.936C153.361 654.4 152.167 662.68 149.963 670.96C146.657 651.64 139.862 633.423 132.515 615.115Z" fill="white"/>
<path d="M158.779 581.903C158.504 580.247 158.136 578.683 158.044 577.027C156.667 555.039 155.289 533.051 153.912 511.063C153.269 500.851 152.259 490.639 151.616 480.427C151.341 476.471 149.504 473.895 146.29 471.871C143.167 469.939 139.953 468.099 137.29 465.707C132.515 461.475 132.331 457.242 135.729 451.814C139.586 445.65 143.167 439.302 147.116 432.678C159.514 434.242 172.554 449.698 171.727 463.223C171.452 467.547 170.074 471.411 165.666 473.251C161.35 475.091 160.157 478.495 160.248 482.911C160.432 513.731 160.616 544.459 160.708 575.279C160.708 577.487 160.157 579.787 159.881 581.995C159.514 581.903 159.146 581.903 158.779 581.903Z" fill="white"/>
<path d="M69.9767 482.635C82.6496 490.271 92.9349 500.115 101.567 511.707C105.975 517.687 110.291 524.035 113.322 530.751C119.842 545.379 127.923 558.903 136.647 572.243C140.137 577.579 141.79 584.111 144.637 590.919C122.597 575.279 75.3948 506.647 69.9767 482.635Z" fill="white"/>
<path d="M162.36 573.623C160.248 565.619 163.003 560.743 168.605 555.591C190.37 535.627 205.338 510.879 215.715 483.279C215.991 482.451 216.358 481.623 217.552 480.887C217.277 484.015 217.093 487.235 216.817 490.363C216.45 493.583 216.358 496.803 215.624 499.931C212.593 511.615 209.563 523.299 206.257 534.891C202.491 547.679 193.951 556.051 181.462 560.467C173.931 563.043 166.677 565.987 162.36 573.623Z" fill="white"/>
<path d="M257.591 542.619C224.164 536.087 202.308 559.915 194.961 586.411C191.747 597.911 191.012 610.147 189.451 622.107C188.625 627.995 188.9 627.995 183.023 631.031C183.666 624.775 184.492 618.703 184.86 612.539C185.135 608.583 185.135 604.535 184.584 600.671C182.105 583.283 186.329 568.287 199.369 556.051C209.654 546.483 220.491 537.743 234.817 535.259C243.449 533.787 251.163 536.823 257.591 542.619Z" fill="white"/>
<path d="M135.821 531.947C138.851 536.915 142.708 541.515 144.82 546.851C149.779 559.455 154.279 572.335 158.32 585.307C159.606 589.539 158.779 594.415 158.963 599.015C159.697 615.023 160.616 631.031 161.167 647.04C161.35 652.284 164.105 657.988 158.871 663.14C156.483 643.912 154.096 625.143 151.708 605.731C153.177 607.387 154.279 608.675 155.381 609.963C155.473 609.871 155.657 609.779 155.749 609.687C150.606 597.359 144.912 585.307 140.412 572.795C135.821 559.915 134.168 546.391 133.892 532.775C134.627 532.591 135.27 532.223 135.821 531.947Z" fill="white"/>
<path d="M155.014 572.335C153.545 564.699 151.892 556.971 150.698 549.243C148.677 537.099 145.922 525.139 139.402 514.651C134.076 506.187 133.066 497.355 134.811 487.787C135.913 481.807 136.831 475.735 137.933 469.571C145.371 472.607 149.596 476.931 150.055 485.763C151.616 514.007 154.279 542.251 156.483 570.495C156.483 571.047 156.483 571.507 156.483 572.059C155.932 572.243 155.473 572.335 155.014 572.335Z" fill="white"/>
<path d="M132.515 617.967C137.198 633.148 141.79 648.328 146.382 663.508C146.933 665.256 147.392 667.188 147.208 668.936C145.739 682.46 154.463 693.408 156.391 706.012C156.483 706.748 156.759 707.484 156.942 708.22C156.942 708.496 156.759 708.772 156.667 709.324C147.484 688.164 130.862 670.776 127.923 646.764C126.913 638.392 126.546 630.388 129.209 622.291C129.76 620.727 130.495 619.347 131.137 617.783C131.505 617.875 131.964 617.967 132.515 617.967Z" fill="white"/>
<path d="M170.166 578.499C182.564 587.699 186.696 613.643 179.625 633.516C174.023 625.879 168.33 618.243 163.003 610.515C161.993 609.043 160.983 606.559 161.442 604.995C164.014 596.255 167.136 587.515 170.166 578.499Z" fill="white"/>
<path d="M131.413 529.187C131.964 537.191 132.515 545.195 133.066 553.199C122.781 544.183 117.546 514.283 123.056 496.527C137.933 511.891 147.3 530.107 149.779 552.463C147.3 547.403 145.647 542.711 142.984 538.663C140.321 534.707 136.647 531.579 133.525 527.991C132.79 528.359 132.056 528.819 131.413 529.187Z" fill="white"/>
<path d="M181.829 644.28C179.625 640.6 180.176 636.46 184.033 633.792C186.421 632.043 189.451 631.031 192.206 629.927C203.685 625.143 215.348 620.635 226.735 615.483C236.653 610.975 246.204 606.007 257.408 605.639C258.142 605.639 258.877 605.731 259.612 606.099C244.092 610.515 231.878 620.543 218.93 629.283C208.185 636.46 196.89 642.44 183.666 643.452C183.023 643.544 182.38 644.096 181.737 644.464L181.829 644.28Z" fill="white"/>
<path d="M125.719 420.534C128.474 422.926 131.229 425.41 134.076 427.894C114.516 432.954 96.7919 442.246 79.6191 452.458C82.6496 437.186 109.373 417.958 126.178 419.246C125.995 419.614 125.903 420.074 125.719 420.534Z" fill="white"/>
<path d="M181.737 644.372C184.125 644.372 186.604 644.372 188.992 644.372C188.717 654.584 183.39 667.74 176.411 675.1C176.411 671.42 176.503 668.108 176.411 664.888C176.135 656.332 175.86 647.776 175.309 639.219C175.125 636.275 174.758 633.055 170.534 632.135C169.707 635.631 169.156 639.035 168.238 642.348C167.319 645.568 166.217 648.604 164.197 651.548C163.003 638.943 161.901 626.339 160.708 613.827C161.075 613.643 161.442 613.367 161.81 613.183C167.044 621.095 172.462 628.915 177.421 637.011C178.707 639.22 178.339 642.348 179.258 644.832C179.901 646.396 181.462 647.408 181.737 644.372C181.737 644.372 181.829 644.28 181.737 644.372Z" fill="white"/>
<path d="M104.598 445.006C115.618 441.05 126.178 439.854 136.555 447.398C131.046 453.654 128.474 460.095 135.453 466.995C122.964 467.363 109.097 457.519 104.598 445.006Z" fill="white"/>
<path d="M134.535 566.631C129.668 557.707 124.158 549.059 120.026 539.859C111.761 521.275 100.924 504.715 85.2209 491.651C84.4863 491.099 83.9353 490.363 83.2925 489.719C83.017 489.443 83.1088 488.983 82.7415 487.695C94.8634 496.067 109.281 500.023 116.536 513.547C117.454 515.295 118.373 517.319 118.556 519.343C119.658 533.787 122.781 547.403 133.433 558.259C135.178 560.007 135.27 563.411 136.188 565.987C135.637 566.171 135.086 566.447 134.535 566.631Z" fill="white"/>
<path d="M163.554 439.302C169.432 437.646 175.309 435.714 181.278 434.334C189.176 432.494 197.349 431.85 204.971 429.274C211.767 426.974 217.093 427.158 222.144 432.31C223.062 433.23 224.348 433.874 225.45 435.53C223.246 435.346 220.858 435.53 218.746 434.794C211.95 432.586 205.522 433.506 199.002 435.99C189.635 439.578 180.176 443.166 170.534 446.846C168.146 444.362 165.667 441.602 163.554 439.302Z" fill="white"/>
<path d="M161.626 593.035C160.891 576.751 165.667 569.207 179.166 563.503C184.86 561.111 190.461 558.351 196.431 555.591C187.247 564.883 182.38 576.107 181.554 589.907C179.074 586.043 177.329 582.731 175.125 579.787C174.023 578.315 172.278 576.291 170.809 576.383C169.524 576.383 168.054 578.775 167.228 580.339C165.299 584.019 163.83 587.975 161.626 593.035Z" fill="white"/>
<path d="M145.463 430.01C142.525 436.266 140.412 440.958 138.025 446.018C127.097 438.382 115.985 439.118 104.598 442.982C104.506 442.522 104.414 442.062 104.322 441.602C110.842 438.842 117.271 435.898 123.791 433.322C127.923 431.758 132.148 430.378 136.464 429.458C138.943 429.09 141.606 429.826 145.463 430.01Z" fill="white"/>
<path d="M237.112 443.994C222.052 442.522 207.083 441.142 193.125 439.762C199.736 437.278 207.542 433.69 216.634 435.99C219.389 436.726 222.327 437.002 225.266 437.278C230.317 437.738 234.266 439.762 237.112 443.994Z" fill="white"/>
<path d="M257.04 275.357C272.927 261.281 276.968 242.145 285.049 225.125C279.356 221.997 277.335 223.285 275.499 229.173C272.101 240.121 267.968 250.793 263.928 261.465C263.285 263.213 261.724 264.593 261.081 265.513C261.632 258.429 262.734 251.069 262.55 243.617C262.275 232.669 264.295 222.365 268.519 212.337C272.101 203.873 275.04 195.133 273.019 183.909C277.335 185.841 281.101 186.761 283.764 188.969C292.396 195.869 296.069 205.621 297.355 216.201C299.008 229.633 297.263 242.789 292.12 255.393C286.427 269.193 275.774 276.922 263.285 276.278C261.632 276.278 259.979 275.817 257.04 275.357Z" fill="white"/>
<path d="M96.5164 87.0325C99.1796 92.7365 102.853 98.1645 104.414 104.237C107.353 115.553 110.291 127.237 110.751 138.829C111.302 150.881 109.006 163.117 107.904 175.261C107.72 177.101 107.628 178.941 107.261 180.689C107.077 181.609 106.434 182.989 105.883 183.081C105.149 183.265 103.955 182.529 103.312 181.885C83.8435 160.449 78.058 135.609 85.9556 107.733C87.5168 102.121 89.9963 96.8765 92.1084 91.4485C92.7513 89.9765 93.7614 88.6885 94.5879 87.3085C95.2308 87.2165 95.8736 87.1245 96.5164 87.0325Z" fill="white"/>
<path d="M270.264 184.645C272.744 191.729 272.101 197.709 270.172 203.689C267.601 211.325 264.203 218.869 262.826 226.781C261.173 235.889 261.448 245.365 260.805 254.657C260.346 261.097 258.418 267.169 254.469 272.874C248.316 266.157 243.082 259.349 239.867 251.161C236.745 242.973 237.663 234.877 240.969 226.965C246.296 213.993 253.642 202.125 262.55 191.361C264.479 188.877 267.417 187.129 270.264 184.645Z" fill="white"/>
<path d="M126.821 142.325C121.311 134.229 118.648 125.305 117.546 115.829C115.25 95.8645 120.209 76.9124 125.26 57.9603C125.903 55.4763 126.729 52.9923 127.464 50.5083C127.556 50.2323 127.831 50.0483 129.209 48.5763C132.148 60.2603 135.545 70.8404 137.474 81.7884C140.321 98.5325 139.219 115.369 134.994 131.837C133.801 136.253 132.148 140.577 126.821 142.325Z" fill="white"/>
<path d="M285.508 269.929C295.61 258.521 299.651 244.813 300.294 229.909C300.477 226.229 301.671 224.849 305.161 224.389C315.813 223.009 325.548 224.481 333.353 232.669C337.119 236.533 336.843 238.833 333.537 243.065C329.864 247.757 326.466 252.633 322.884 257.325C322.15 258.245 320.772 259.257 319.67 259.257C311.405 259.165 304.334 262.477 297.355 266.525C293.773 268.55 289.825 269.838 285.968 271.494C285.876 270.942 285.692 270.481 285.508 269.929ZM335.098 239.477C329.313 233.313 320.221 234.141 314.436 241.409C320.772 235.705 327.66 234.877 335.098 239.477ZM304.242 253.185C303.967 252.909 303.6 252.633 303.324 252.357C299.559 256.497 295.794 260.637 292.029 264.777C292.304 265.053 292.58 265.237 292.855 265.513C296.62 261.373 300.477 257.233 304.242 253.185Z" fill="white"/>
<path d="M278.345 293.39C282.478 285.386 282.478 285.386 270.54 278.578C274.488 277.382 278.254 276.462 281.835 275.082C288.906 272.321 296.069 269.745 302.773 266.341C308.926 263.213 315.17 261.465 322.058 261.649C326.099 261.741 327.935 263.673 327.752 267.629C327.292 275.818 325.18 282.994 316.915 286.766C312.232 288.974 307.824 291.734 303.049 293.666C294.967 296.978 286.794 295.046 278.345 293.39Z" fill="white"/>
<path d="M222.695 189.337C232.062 188.233 242.623 193.109 246.755 200.837C248.592 204.241 249.143 207.277 246.755 211.049C243.541 216.017 240.97 221.537 238.766 226.965C235.092 236.165 235.184 241.041 238.306 252.725C233.439 247.297 228.756 242.145 223.98 236.901C224.072 236.717 224.256 236.625 224.348 236.441C225.082 236.809 225.725 237.085 226.552 237.545C226.46 236.901 226.46 236.533 226.368 236.073C225.725 233.129 224.531 230.185 224.348 227.241C223.705 214.637 223.246 202.217 222.695 189.337Z" fill="white"/>
<path d="M219.664 55.5683C230.409 78.2924 222.511 105.985 200.471 120.521C200.196 117.025 199.461 114.173 199.737 111.413C201.39 96.6925 205.614 82.7084 212.501 69.5524C214.981 64.9523 217.277 60.3523 219.664 55.5683Z" fill="white"/>
<path d="M215.256 278.946C229.858 293.39 237.296 309.306 230.684 329.638C224.44 329.73 221.134 325.774 219.021 320.53C215.073 311.054 213.787 301.026 214.338 290.814C214.522 287.134 214.889 283.362 215.256 278.946Z" fill="white"/>
<path d="M203.41 191.729C198.084 204.241 193.492 216.569 184.217 226.229C178.89 231.749 171.911 232.761 163.83 232.577C173.013 214.545 185.778 201.205 203.41 191.729Z" fill="white"/>
<path d="M162.82 328.442C161.81 321.45 162.085 315.286 168.33 310.41C174.574 305.626 180.268 300.106 186.145 294.954C191.655 301.67 192.114 307.466 188.166 314.274C182.564 323.934 173.289 327.154 162.82 328.442Z" fill="white"/>
<path d="M122.321 140.761C113.322 135.057 110.475 127.053 109.465 118.405C106.618 95.9565 110.475 74.5204 119.934 54.0963C120.944 51.8883 122.597 50.0483 124.525 48.2083C117.454 78.6604 107.444 108.745 122.321 140.761Z" fill="white"/>
<path d="M155.932 240.673C158.32 240.673 159.789 240.673 161.442 240.673C161.442 269.745 161.442 298.91 161.442 328.35C159.606 328.81 157.677 329.178 155.932 329.638C155.932 299.922 155.932 270.389 155.932 240.673Z" fill="white"/>
<path d="M251.898 305.994C258.51 295.782 256.857 286.766 250.428 278.118C250.704 277.75 250.887 277.29 251.163 276.922C258.785 278.762 266.591 280.234 274.029 282.534C280.366 284.466 280.825 287.778 276.142 292.562C269.621 299.186 261.448 302.774 251.898 305.994Z" fill="white"/>
<path d="M249.694 275.357C247.949 274.805 246.204 274.161 244.459 273.609C251.071 281.062 255.938 288.882 252.449 299.186C250.704 304.246 246.847 307.282 241.612 309.858C239.959 300.474 237.755 291.642 236.929 282.626C236.01 273.149 241.429 270.205 249.694 275.357Z" fill="white"/>
<path d="M153.361 301.578C137.107 301.946 122.964 273.702 130.77 255.761C134.352 263.949 137.474 271.77 141.239 279.314C144.912 286.766 149.137 293.942 153.361 301.578Z" fill="white"/>
<path d="M221.685 237.637C231.97 246.745 240.143 257.601 247.214 269.102C244 269.93 241.245 270.758 238.49 271.218C237.388 271.402 235.643 270.942 235 270.206C232.429 267.262 229.49 264.317 228.021 260.729C224.991 253.369 222.97 245.641 220.491 238.097C220.858 237.913 221.317 237.729 221.685 237.637Z" fill="white"/>
<path d="M152.259 296.334C148.677 289.342 144.912 282.35 141.423 275.266C128.015 247.389 117.638 218.317 108.363 188.877C107.995 187.589 108.179 186.117 108.822 184.737C117.913 202.953 120.577 223.101 129.301 241.317C137.841 259.257 145.739 277.566 153.912 295.69C153.361 295.782 152.81 296.058 152.259 296.334Z" fill="white"/>
<path d="M123.607 144.809C127.556 143.245 127.831 145.821 128.658 148.213C136.004 170.109 143.259 191.913 150.881 213.717C152.443 218.317 154.922 222.549 156.483 227.609C155.381 226.413 153.912 225.401 153.177 223.929C141.514 201.113 133.709 176.825 125.995 152.445C125.168 150.053 124.434 147.569 123.607 144.809Z" fill="white"/>
<path d="M135.821 250.609C138.484 251.621 141.423 252.265 143.902 253.737C150.239 257.509 154.647 262.477 154.096 270.757C153.636 276.461 154.004 282.258 154.004 288.054C153.545 288.146 152.994 288.238 152.534 288.33C147.024 275.725 141.514 263.121 136.004 250.517L135.821 250.609Z" fill="white"/>
<path d="M119.934 232.301C112.679 235.705 98.6285 227.793 91.1901 214.361C107.995 214.913 116.72 220.341 119.934 232.301Z" fill="white"/>
<path d="M165.85 237.085C151.157 239.293 133.341 238.189 128.566 234.877C137.841 230.553 146.933 226.321 157.126 229.817C160.157 230.829 162.452 234.049 165.85 237.085Z" fill="white"/>
<path d="M114.516 137.725C115.618 138.645 117.638 140.025 119.199 141.773C119.934 142.601 120.393 144.257 120.209 145.361C118.189 155.205 116.077 165.141 113.781 174.985C113.23 177.377 111.577 179.401 109.648 181.241C111.21 166.705 112.863 152.169 114.516 137.725Z" fill="white"/>
<path d="M217.185 56.3043C207.083 75.3484 198.175 94.7605 198.175 117.945C195.053 113.253 194.227 108.745 195.329 104.697C197.9 95.1285 200.747 85.6525 204.42 76.5444C207.359 69.2764 211.675 62.5603 215.348 55.5683C215.991 55.7523 216.634 56.0283 217.185 56.3043Z" fill="white"/>
<path d="M123.791 351.626C122.23 351.258 119.015 350.798 115.985 349.878C114.607 349.418 113.505 348.038 112.312 347.026C113.414 346.014 114.332 344.634 115.526 344.174C118.648 343.07 121.954 342.242 125.26 341.782C128.382 341.322 131.597 341.506 131.688 346.106C131.78 350.338 130.127 351.81 123.791 351.626Z" fill="white"/>
<path d="M171.636 118.313C180.084 126.501 188.808 133.217 188.349 146.005C181.737 141.773 173.931 129.169 171.636 118.313Z" fill="white"/>
<path d="M162.82 299.554C162.82 292.286 162.82 286.674 162.82 280.05C166.309 285.018 169.248 289.25 167.779 294.678C167.228 296.242 165.116 297.346 162.82 299.554Z" fill="white"/>
<path d="M137.566 171.305C135.453 163.761 133.341 156.309 131.137 148.765C138.208 154.929 139.77 162.565 137.566 171.305Z" fill="white"/>
<path d="M276.968 230.645C277.886 232.393 278.896 233.497 278.713 234.141C275.682 242.145 272.56 250.057 269.438 257.969C268.887 257.785 268.428 257.601 267.877 257.417C270.723 248.769 273.662 240.213 276.968 230.645Z" fill="white"/>
<path d="M122.964 148.581C124.525 154.101 125.995 159.529 127.831 166.153C122.964 160.449 121.128 154.929 122.964 148.581Z" fill="white"/>
<path d="M335.098 239.477C327.752 234.877 320.864 235.705 314.436 241.409C320.129 234.141 329.221 233.313 335.098 239.477Z" fill="white"/>
<path d="M304.242 253.185C300.477 257.325 296.712 261.465 292.855 265.605C292.58 265.329 292.304 265.145 292.029 264.869C295.794 260.729 299.559 256.589 303.324 252.449C303.599 252.633 303.875 252.909 304.242 253.185Z" fill="white"/>
</g>
<defs>
<clipPath id="clip0_62_127">
<rect width="488" height="728" fill="white"/>
</clipPath>
</defs>
</svg>
