<svg width="16" height="16" viewBox="0 0 16 16" fill="none" xmlns="http://www.w3.org/2000/svg">
<path d="M16 13.5197C16 13.5197 12.655 16 8.52864 16C4.40231 16 1.05727 14.8895 1.05727 13.5197C1.05727 12.1498 4.40231 11.0393 8.52864 11.0393C12.655 11.0393 16 13.5197 16 13.5197Z" fill="#98A8D6"/>
<path d="M2.5022 0C2.5022 0 -1.80367e-07 3.31583 0 7.40611C1.80367e-07 11.4964 1.12027 14.8122 2.5022 14.8122C3.88413 14.8122 5.00441 11.4964 5.00441 7.40611C5.00441 3.31583 2.5022 0 2.5022 0Z" fill="#98A8D6"/>
<path d="M11.9125 3.78007C11.9125 3.78007 11.3165 7.87859 8.3988 10.7709C5.48105 13.6631 2.32359 15.2225 1.34642 14.2539C0.369246 13.2853 1.9424 10.1554 4.86015 7.26311C7.7779 4.37085 11.9125 3.78007 11.9125 3.78007Z" fill="#98A8D6"/>
</svg>
