<svg width="60" height="92" viewBox="0 0 60 92" fill="none" xmlns="http://www.w3.org/2000/svg">
<path d="M60 31.0233C60 48.1569 30 92 30 92C30 92 0 48.1569 0 31.0233C0 13.8896 13.4315 0 30 0C46.5685 0 60 13.8896 60 31.0233Z" fill="#AB9EDC"/>
<path d="M44 39.6594C44 39.6594 38.1462 44 30.9251 44C23.704 44 17.8502 42.0566 17.8502 39.6594C17.8502 37.2621 23.704 35.3188 30.9251 35.3188C38.1462 35.3188 44 39.6594 44 39.6594Z" fill="white"/>
<path d="M20.3789 16C20.3789 16 16 21.8027 16 28.9607C16 36.1187 17.9605 41.9214 20.3789 41.9214C22.7972 41.9214 24.7577 36.1187 24.7577 28.9607C24.7577 21.8027 20.3789 16 20.3789 16Z" fill="white"/>
<path d="M36.8469 22.6151C36.8469 22.6151 35.804 29.7875 30.6979 34.849C25.5918 39.9105 20.0663 42.6394 18.3562 40.9443C16.6462 39.2492 19.3992 33.7719 24.5053 28.7104C29.6113 23.649 36.8469 22.6151 36.8469 22.6151Z" fill="white"/>
</svg>
