<svg width="300" height="252" viewBox="0 0 300 252" fill="none" xmlns="http://www.w3.org/2000/svg">
<g opacity="0.15">
<path d="M0 165.35C0 165.35 44.6252 221.73 113.322 240.191C182.019 258.652 242.663 255.076 248.774 232.204C254.885 209.331 204.149 175.823 135.452 157.362C66.7546 138.901 0 165.35 0 165.35Z" fill="#98A8D6"/>
<path d="M285.028 0C285.028 0 311.895 66.5595 293.648 134.855C275.401 203.151 241.959 253.504 218.952 247.321C195.945 241.138 192.086 180.762 210.332 112.466C228.579 44.1699 285.028 0 285.028 0Z" fill="#98A8D6"/>
<path d="M111.498 21.0147C111.498 21.0147 103.137 92.1144 138.811 153.461C174.485 214.807 220.095 254.971 240.685 243.17C261.274 231.368 249.046 172.07 213.372 110.724C177.698 49.3771 111.498 21.0147 111.498 21.0147Z" fill="#98A8D6"/>
</g>
</svg>
