<svg width="620" height="520" viewBox="0 0 620 520" fill="none" xmlns="http://www.w3.org/2000/svg">
<g opacity="0.15">
<path d="M620 341.199C620 341.199 527.775 457.539 385.801 495.633C243.827 533.727 118.496 526.348 105.867 479.15C93.2381 431.952 198.093 362.81 340.067 324.716C482.04 286.621 620 341.199 620 341.199Z" fill="#98A8D6"/>
<path d="M30.9412 0C30.9412 0 -24.5822 137.345 13.1273 278.273C50.8369 419.201 119.952 523.103 167.5 510.345C215.047 497.587 223.023 373 185.313 232.072C147.604 91.1443 30.9412 0 30.9412 0Z" fill="#98A8D6"/>
<path d="M389.571 43.3636C389.571 43.3636 406.85 190.077 333.124 316.665C259.398 443.253 165.137 526.131 122.585 501.779C80.0336 477.426 105.305 355.065 179.031 228.477C252.757 101.889 389.571 43.3636 389.571 43.3636Z" fill="#98A8D6"/>
</g>
</svg>
