<svg width="130" height="101" viewBox="0 0 130 101" fill="none" xmlns="http://www.w3.org/2000/svg">
<g opacity="0.13">
<path d="M129.218 27.2183C129.218 27.2183 125.111 54.8889 105.511 74.489C85.9109 94.089 64.7472 104.703 58.2403 98.1963C51.7335 91.6895 62.3476 70.5257 81.9476 50.9257C101.548 31.3256 129.218 27.2183 129.218 27.2183Z" fill="#EFBBF7"/>
<path d="M0.885454 27.1145C0.885454 27.1145 4.75018 54.7502 24.179 74.179C43.6079 93.6079 64.6793 104.037 71.2435 97.4726C77.8076 90.9084 67.3788 69.8369 47.9499 50.4081C28.5211 30.9793 0.885454 27.1145 0.885454 27.1145Z" fill="#EFBBF7"/>
<path d="M63.5398 0.370871C63.5398 0.370871 80.1768 22.6697 80.0558 50.2673C79.9348 77.8649 72.344 100.27 63.1015 100.31C53.8589 100.351 46.4644 78.0116 46.5854 50.4141C46.7065 22.8165 63.5398 0.370871 63.5398 0.370871Z" fill="#EFBBF7"/>
</g>
</svg>
