<svg width="158" height="16" viewBox="0 0 158 16" fill="none" xmlns="http://www.w3.org/2000/svg">
<path opacity="0.75" d="M6.38129 0H0V15.0531H6.38129V0Z" fill="#4F4F4F" fill-opacity="0.2"/>
<path opacity="0.75" d="M88.8748 0H82.4935V15.0531H88.8748V0Z" fill="#4F4F4F" fill-opacity="0.2"/>
<path opacity="0.75" d="M6.3813 0H0V10.8303H6.3813C9.35923 10.8303 11.7732 8.40589 11.7732 5.41514C11.7732 2.42439 9.35923 0 6.3813 0Z" fill="#4F4F4F" fill-opacity="0.2"/>
<path opacity="0.75" d="M27.5039 15.0531H17.3795V0L27.5039 15.0531Z" fill="#4F4F4F" fill-opacity="0.2"/>
<path opacity="0.75" d="M22.112 0H17.3795V10.8303H22.112C22.9062 10.8303 23.6595 10.6564 24.3386 10.3468C26.2051 9.49527 27.5039 7.60822 27.5039 5.41514C27.5039 2.42439 25.0899 0 22.112 0Z" fill="#4F4F4F" fill-opacity="0.2"/>
<path opacity="0.75" d="M68.2569 0L60.4062 15.0531H68.2569H76.1078L68.2569 0Z" fill="#4F4F4F" fill-opacity="0.2"/>
<path opacity="0.75" d="M60.1836 0L52.3329 15.0531H60.1836H68.0342L60.1836 0Z" fill="#4F4F4F" fill-opacity="0.2"/>
<path opacity="0.75" d="M40.959 15.0531C45.098 15.0531 48.4533 11.6833 48.4533 7.52654C48.4533 3.36975 45.098 0 40.959 0C36.82 0 33.4647 3.36975 33.4647 7.52654C33.4647 11.6833 36.82 15.0531 40.959 15.0531Z" fill="#4F4F4F" fill-opacity="0.2"/>
<path opacity="0.75" d="M149.19 0L141.34 15.0531H149.19H157.041L149.19 0Z" fill="#4F4F4F" fill-opacity="0.2"/>
<path opacity="0.75" d="M141.117 0L133.266 15.0531H141.117H148.968L141.117 0Z" fill="#4F4F4F" fill-opacity="0.2"/>
<path opacity="0.75" d="M122.158 15.0531C126.297 15.0531 129.652 11.6833 129.652 7.52655C129.652 3.36975 126.297 0 122.158 0C118.019 0 114.664 3.36975 114.664 7.52655C114.664 11.6833 118.019 15.0531 122.158 15.0531Z" fill="#4F4F4F" fill-opacity="0.2"/>
<path opacity="0.75" d="M107.965 2.48997C106.594 0.961412 104.607 0 102.397 0C101.853 0 101.323 0.0596168 100.813 0.170105C97.4347 0.900404 94.9026 3.91599 94.9026 7.52655C94.9026 11.1371 97.4347 14.1527 100.813 14.883C101.323 14.9935 101.853 15.0531 102.397 15.0531C104.607 15.0531 106.593 14.0917 107.965 12.5631L105.058 7.52655L107.965 2.48997Z" fill="#4F4F4F" fill-opacity="0.2"/>
<path opacity="0.75" d="M107.965 2.48997C106.594 0.961411 104.607 0 102.397 0C101.853 0 101.324 0.0596167 100.813 0.170105L105.058 7.52654L107.965 2.48997Z" fill="#4F4F4F" fill-opacity="0.2"/>
<path opacity="0.75" d="M100.813 14.8818C101.324 14.9923 101.853 15.0519 102.397 15.0519C104.607 15.0519 106.594 14.0905 107.965 12.562L105.059 7.52539L100.813 14.8818Z" fill="#4F4F4F" fill-opacity="0.2"/>
<path opacity="0.75" d="M35.6597 12.8493C37.0159 14.2114 38.8895 15.0538 40.959 15.0538C45.098 15.0538 48.4533 11.6841 48.4533 7.52721C48.4533 5.4488 47.6146 3.56711 46.2584 2.20508L35.6597 12.8493Z" fill="#4F4F4F" fill-opacity="0.2"/>
<path opacity="0.75" d="M116.859 12.8494C118.215 14.2114 120.088 15.0538 122.158 15.0538C126.297 15.0538 129.652 11.6841 129.652 7.52722C129.652 5.4488 128.813 3.56711 127.457 2.20508L116.859 12.8494Z" fill="#4F4F4F" fill-opacity="0.2"/>
</svg>
