<svg width="370" height="17" viewBox="0 0 370 17" fill="none" xmlns="http://www.w3.org/2000/svg">
<g clip-path="url(#clip0_62_52)">
<path d="M0 13.473V3.0946H2.16374L4.76023 10.6622C4.97661 11.3108 5.19298 11.9595 5.19298 12.1757C5.40936 11.7432 5.40936 11.3108 5.84211 10.4459L8.4386 3.0946H10.386V13.473H8.65497V4.82433L5.62573 13.473H4.32749L1.29825 4.60811V13.473H0Z" fill="white"/>
<path d="M17.3099 13.473V3.0946H24.883V4.39189H18.6082V7.63514H24.4503V8.93243H18.6082V12.6081H25.0994V13.473H17.3099Z" fill="white"/>
<path d="M32.8889 3.0946H39.3801V12.3919H40.2456V16.0676H38.9474V13.473H32.0234V15.8514H30.7252V12.3919H31.5907C32.4562 11.0946 32.8889 8.5 32.8889 4.60811V3.0946ZM37.8655 4.17568H34.1871V4.82433C34.1871 5.68919 34.1871 6.98649 33.9708 8.5C33.7544 10.0135 33.538 11.3108 33.1053 12.3919H38.0819V4.17568H37.8655Z" fill="white"/>
<path d="M46.7368 3.0946H48.0351V11.3108L53.6608 2.87838H54.9591V13.473H53.6608V5.25676L48.2515 13.473H46.9532V3.0946H46.7368Z" fill="white"/>
<path d="M62.3158 3.0946H63.614V7.63514C64.2632 7.63514 64.6959 7.41892 64.9123 7.2027C65.1287 6.98649 65.5614 6.33784 65.9942 5.47298C66.2105 4.82433 66.4269 4.39189 66.6433 3.95946C66.8597 3.74325 67.076 3.52703 67.5088 3.31081C67.9415 3.0946 68.1579 3.0946 68.5907 3.0946C69.0234 3.0946 69.4561 3.0946 69.4561 3.0946V4.39189H69.2398C69.0234 4.39189 69.0234 4.39189 69.0234 4.39189C68.5907 4.39189 68.1579 4.39189 67.9415 4.82433C67.7252 5.04054 67.5088 5.47297 67.2924 6.12162C66.8597 6.98649 66.6433 7.63514 66.4269 7.85135C66.2105 8.06757 65.7778 8.28379 65.5614 8.5C66.2105 8.71622 66.8597 9.36487 67.5088 10.4459L69.6725 13.9054H67.9415L66.2105 11.0946C65.7778 10.0135 65.345 9.36487 64.9123 9.14865C64.6959 8.93243 64.2632 8.71622 63.614 8.71622V13.473H62.3158V3.0946Z" fill="white"/>
<path d="M75.0819 8.5C75.0819 6.77027 75.5146 5.47297 76.5965 4.39189C77.462 3.31081 78.7602 2.87838 80.2749 2.87838C81.3567 2.87838 82.2222 3.0946 82.8714 3.52703C83.7368 3.95946 84.1696 4.60811 84.6023 5.47297C85.0351 6.33784 85.2515 7.2027 85.2515 8.28378C85.2515 9.36487 85.0351 10.2297 84.6023 11.0946C84.1696 11.9595 83.5205 12.6081 82.8714 13.0405C82.0059 13.473 81.1404 13.6892 80.2749 13.6892C79.193 13.6892 78.3275 13.473 77.6784 13.0405C76.8129 12.6081 76.3801 11.9595 75.9474 11.0946C75.2982 10.2297 75.0819 9.36487 75.0819 8.5ZM76.5965 8.5C76.5965 9.7973 77.0292 10.8784 77.6784 11.527C78.3275 12.1757 79.193 12.6081 80.2749 12.6081C81.3567 12.6081 82.2222 12.1757 82.8714 11.527C83.5205 10.8784 83.9532 9.7973 83.9532 8.28378C83.9532 7.41892 83.7368 6.77027 83.5205 6.12162C83.0877 5.47297 82.655 4.82433 82.2222 4.60811C81.5731 4.17568 80.924 4.17568 80.2749 4.17568C79.193 4.17568 78.3275 4.60811 77.6784 5.25676C77.0292 5.68919 76.5965 6.77027 76.5965 8.5Z" fill="white"/>
<path d="M91.3099 10.4459V9.14865H95.2047V10.4459H91.3099Z" fill="white"/>
<path d="M100.614 13.473L104.725 8.06757L101.047 3.0946H102.778L104.725 5.90541C105.158 6.55406 105.374 6.98649 105.591 7.2027C105.807 6.77027 106.023 6.33784 106.456 5.90541L108.62 3.0946H110.134L106.456 8.06757L110.351 13.473H108.62L106.023 9.7973C105.807 9.58108 105.807 9.36487 105.591 9.14865C105.374 9.58108 105.158 9.7973 105.158 10.0135L102.345 13.473H100.614Z" fill="white"/>
<path d="M116.409 3.0946H117.708V11.3108L123.333 3.0946H124.848V13.473H123.55V5.25676L117.924 13.473H116.626V3.0946H116.409Z" fill="white"/>
<path d="M131.988 13.473V3.0946H135.883C136.532 3.0946 137.181 3.0946 137.398 3.0946C137.83 3.0946 138.263 3.31081 138.696 3.52703C139.129 3.74325 139.345 4.17568 139.561 4.60811C139.778 5.04054 139.778 5.47297 139.778 6.12162C139.778 6.98649 139.561 7.85135 138.912 8.5C138.263 9.14865 137.398 9.36487 135.883 9.36487H133.07V13.6892H131.988V13.473ZM133.287 8.06757H136.099C136.965 8.06757 137.614 7.85135 138.047 7.63514C138.479 7.2027 138.48 6.77027 138.48 6.12162C138.48 5.68919 138.263 5.25676 138.047 5.04054C137.83 4.82433 137.614 4.60811 137.181 4.39189C136.965 4.39189 136.532 4.39189 135.883 4.39189H133.287V8.06757Z" fill="white"/>
<path d="M145.187 3.0946H146.702L150.164 9.58108L153.193 3.0946H154.491L150.596 11.3108C150.164 12.3919 149.731 13.0405 149.298 13.2568C149.082 13.473 148.433 13.6892 148 13.6892C147.567 13.6892 147.135 13.6892 146.702 13.473V12.1757C147.135 12.3919 147.567 12.6081 147.784 12.6081C148.216 12.6081 148.433 12.6081 148.649 12.1757C148.865 11.9595 149.082 11.527 149.515 10.6622L145.187 3.0946Z" fill="white"/>
<path d="M160.55 13.473V3.0946H164.444C165.094 3.0946 165.743 3.0946 165.959 3.0946C166.392 3.0946 166.825 3.31081 167.257 3.52703C167.69 3.74325 167.906 4.17568 168.123 4.60811C168.556 5.04054 168.772 5.47297 168.772 6.12162C168.772 6.98649 168.556 7.85135 167.906 8.5C167.257 9.14865 166.392 9.36487 164.877 9.36487H162.064V13.6892H160.55V13.473ZM162.064 8.06757H164.877C165.743 8.06757 166.392 7.85135 166.825 7.63514C167.257 7.2027 167.474 6.77027 167.474 6.12162C167.474 5.68919 167.257 5.25676 167.041 5.04054C166.825 4.82433 166.608 4.60811 166.175 4.39189C165.959 4.39189 165.526 4.39189 164.877 4.39189H162.281V8.06757H162.064Z" fill="white"/>
<path d="M175.263 3.0946H182.187V4.39189H176.778V13.473H175.263V3.0946Z" fill="white"/>
<path d="M188.246 3.0946H189.544V11.3108L195.17 2.87838H196.468V13.473H195.17V5.25676L189.544 13.473H188.246V3.0946Z" fill="white"/>
<path d="M211.181 13.473H209.883V9.14865C208.585 9.58108 207.503 9.7973 206.637 9.7973C205.988 9.7973 205.339 9.58108 204.69 9.36487C204.041 9.14865 203.608 8.71622 203.392 8.28379C203.175 7.85135 203.175 6.98649 203.175 6.12162V3.0946H204.474V6.12162C204.474 7.2027 204.69 8.06757 205.123 8.28379C205.556 8.71622 205.988 8.93243 206.637 8.93243C207.719 8.93243 208.585 8.71622 209.667 8.28379V3.0946H210.965V13.473H211.181Z" fill="white"/>
<path d="M218.538 13.473V3.0946H226.111V4.39189H219.836V7.63514H225.678V8.93243H219.836V12.6081H226.327V13.473H218.538Z" fill="white"/>
<path d="M240.608 9.7973L241.906 10.2297C241.69 11.3108 241.041 12.1757 240.392 12.8243C239.526 13.473 238.661 13.6892 237.579 13.6892C236.497 13.6892 235.415 13.473 234.766 13.0405C234.117 12.6081 233.468 11.9595 233.035 11.0946C232.602 10.2297 232.386 9.36487 232.386 8.28378C232.386 7.2027 232.602 6.33784 233.035 5.47297C233.468 4.60811 234.117 3.95946 234.766 3.52703C235.632 3.0946 236.497 2.87838 237.363 2.87838C238.444 2.87838 239.31 3.0946 239.959 3.74324C240.608 4.39189 241.257 5.04054 241.474 5.90541L240.175 6.33784C239.959 5.47297 239.526 5.04054 239.094 4.60811C238.661 4.17568 238.012 4.17568 237.363 4.17568C236.497 4.17568 235.848 4.39189 235.415 4.82433C234.766 5.25676 234.55 5.68919 234.333 6.33784C234.117 6.98649 233.901 7.63514 233.901 8.28378C233.901 9.14865 234.117 10.0135 234.333 10.6622C234.55 11.3108 234.982 11.7432 235.632 12.1757C236.281 12.6081 236.713 12.6081 237.363 12.6081C238.228 12.6081 238.877 12.3919 239.31 11.9595C240.175 11.527 240.392 10.6622 240.608 9.7973Z" fill="white"/>
<path d="M248.614 3.0946H249.912V7.63514C250.561 7.63514 250.994 7.41892 251.21 7.2027C251.427 6.98649 251.86 6.33784 252.292 5.47298C252.509 4.82433 252.725 4.39189 252.941 3.95946C253.158 3.74325 253.374 3.52703 253.807 3.31081C254.24 3.0946 254.456 3.0946 254.889 3.0946C255.322 3.0946 255.754 3.0946 255.754 3.0946V4.39189H255.538C255.322 4.39189 255.322 4.39189 255.322 4.39189C254.889 4.39189 254.456 4.39189 254.24 4.82433C254.023 5.04054 253.807 5.47297 253.591 6.12162C253.158 6.98649 252.941 7.63514 252.725 7.85135C252.509 8.06757 252.076 8.28379 251.86 8.5C252.509 8.71622 253.158 9.36487 253.807 10.4459L255.971 13.9054H254.24L252.509 11.0946C252.076 10.2297 251.643 9.7973 251.21 9.36487C250.994 9.14865 250.561 8.93243 249.912 8.93243V13.473H248.614V3.0946Z" fill="white"/>
<path d="M262.246 3.0946H263.544V11.3108L269.17 2.87838H270.468V13.473H269.17V5.25676L263.544 13.473H262.246V3.0946Z" fill="white"/>
<path d="M277.608 3.09459H278.906V11.3108L284.532 2.87838H286.047V13.473H284.749V5.25676L279.123 13.473H277.825V3.09459H277.608ZM282.801 0.5H283.667C283.667 1.14865 283.45 1.58108 283.018 1.7973C282.585 2.01351 282.152 2.22973 281.503 2.22973C280.854 2.22973 280.421 2.01351 279.988 1.7973C279.556 1.58108 279.339 0.932432 279.339 0.5H280.205C280.205 0.932432 280.421 1.14865 280.637 1.14865C280.854 1.36486 281.07 1.36486 281.503 1.36486C281.936 1.36486 282.152 1.36486 282.368 1.14865C282.801 1.14865 282.801 0.932432 282.801 0.5Z" fill="white"/>
<path d="M302.059 3.0946H303.357V12.3919H308.766V3.0946H310.064V12.3919H310.93V16.5H309.632V13.473H301.626V3.0946H302.059Z" fill="white"/>
<path d="M317.854 13.473V3.0946H325.427V4.39189H319.152V7.63514H324.994V8.93243H319.152V12.6081H325.643V13.473H317.854Z" fill="white"/>
<path d="M332.567 13.473V3.0946H333.866V7.41892H339.275V3.0946H340.573V13.473H339.275V8.5H333.866V13.473H332.567Z" fill="white"/>
<path d="M350.743 13.473V4.17568H347.281V3.0946H355.719V4.39189H352.257V13.473H350.743Z" fill="white"/>
<path d="M361.994 13.473V3.0946H365.889C366.538 3.0946 367.187 3.0946 367.403 3.0946C367.836 3.0946 368.269 3.31081 368.702 3.52703C369.134 3.74325 369.351 4.17568 369.567 4.60811C369.784 5.04054 369.784 5.47297 369.784 6.12162C369.784 6.98649 369.567 7.85135 368.918 8.5C368.269 9.14865 367.403 9.36487 365.889 9.36487H363.509V13.6892H361.994V13.473ZM363.509 8.06757H366.322C367.187 8.06757 367.836 7.85135 368.269 7.63514C368.702 7.2027 368.918 6.77027 368.918 6.12162C368.918 5.68919 368.702 5.25676 368.485 5.04054C368.269 4.82433 368.053 4.60811 367.62 4.39189C367.403 4.39189 366.971 4.39189 366.322 4.39189H363.509V8.06757Z" fill="white"/>
</g>
<defs>
<clipPath id="clip0_62_52">
<rect width="370" height="16" fill="white" transform="translate(0 0.5)"/>
</clipPath>
</defs>
</svg>
