<svg width="16" height="15" viewBox="0 0 16 15" fill="none" xmlns="http://www.w3.org/2000/svg">
<path d="M7.09371 0.584242C7.4362 -0.194748 8.5638 -0.194747 8.90629 0.584242L10.4363 4.06416C10.5791 4.38908 10.8918 4.6116 11.2514 4.64427L15.103 4.99418C15.9652 5.07251 16.3137 6.12294 15.6632 6.68271L12.7571 9.18333C12.4858 9.41681 12.3663 9.77685 12.4457 10.122L13.2962 13.8181C13.4866 14.6455 12.5743 15.2947 11.8298 14.8617L8.5038 12.9273C8.19324 12.7466 7.80676 12.7466 7.4962 12.9273L4.17019 14.8617C3.42566 15.2947 2.51341 14.6455 2.70379 13.8181L3.55426 10.122C3.63367 9.77685 3.51424 9.41681 3.2429 9.18333L0.336839 6.68271C-0.313691 6.12294 0.0347589 5.07251 0.896957 4.99418L4.74859 4.64427C5.10822 4.6116 5.42089 4.38908 5.56375 4.06416L7.09371 0.584242Z" fill="#EAA621"/>
</svg>
