<?xml version="1.0" encoding="utf-8"?><svg width="16" height="16" fill="none" xmlns="http://www.w3.org/2000/svg" viewBox="0 0 16 16"><path d="M16 13.52S12.655 16 8.529 16c-4.127 0-7.472-1.11-7.472-2.48 0-1.37 3.345-2.48 7.472-2.48 4.126 0 7.471 2.48 7.471 2.48z" fill="#98A8D6"/><path d="M2.502 0S0 3.316 0 7.406s1.12 7.406 2.502 7.406c1.382 0 2.502-3.316 2.502-7.406S2.502 0 2.502 0z" fill="#98A8D6"/><path d="M11.912 3.78S11.316 7.88 8.4 10.77c-2.918 2.893-6.075 4.453-7.053 3.484-.977-.969.596-4.099 3.514-6.99C7.778 4.37 11.912 3.78 11.912 3.78z" fill="#98A8D6"/></svg>