<?xml version="1.0" encoding="utf-8"?><svg width="60" height="92" fill="none" xmlns="http://www.w3.org/2000/svg" viewBox="0 0 60 92"><path d="M60 31.023C60 48.157 30 92 30 92S0 48.157 0 31.023C0 13.89 13.431 0 30 0c16.569 0 30 13.89 30 31.023z" fill="#AB9EDC"/><path d="M44 39.66S38.146 44 30.925 44c-7.221 0-13.075-1.943-13.075-4.34 0-2.398 5.854-4.341 13.075-4.341 7.221 0 13.075 4.34 13.075 4.34z" fill="#fff"/><path d="M20.379 16S16 21.803 16 28.96c0 7.159 1.96 12.961 4.379 12.961 2.418 0 4.379-5.802 4.379-12.96 0-7.158-4.38-12.961-4.38-12.961z" fill="#fff"/><path d="M36.847 22.615s-1.043 7.173-6.15 12.234c-5.105 5.062-10.63 7.79-12.34 6.095-1.71-1.695 1.042-7.172 6.148-12.234 5.106-5.061 12.342-6.095 12.342-6.095z" fill="#fff"/></svg>