<?xml version="1.0" encoding="utf-8"?><svg width="16" height="15" fill="none" xmlns="http://www.w3.org/2000/svg" viewBox="0 0 16 15"><path d="M7.094.584c.342-.779 1.47-.779 1.812 0l1.53 3.48a.985.985 0 00.815.58l3.852.35c.862.079 1.21 1.129.56 1.689l-2.906 2.5a.955.955 0 00-.311.939l.85 3.696c.19.828-.722 1.477-1.466 1.044l-3.326-1.935c-.31-.18-.697-.18-1.008 0L4.17 14.862c-.744.433-1.657-.216-1.466-1.044l.85-3.696a.955.955 0 00-.311-.939l-2.906-2.5c-.65-.56-.302-1.61.56-1.689l3.852-.35a.985.985 0 00.815-.58l1.53-3.48z" fill="#EAA621"/></svg>