<?xml version="1.0" encoding="utf-8"?><svg viewBox="0 0 60 92" xmlns="http://www.w3.org/2000/svg" xmlns:xlink="http://www.w3.org/1999/xlink"><style>:root>svg{display:none}:root>svg:target{display:block}</style><svg fill="none" viewBox="0 0 18 18" id="ic-go" xmlns="http://www.w3.org/2000/svg"><path d="M8 1h9m0 0v9m0-9L1 17" stroke="#222" stroke-width="2" stroke-linecap="round" stroke-linejoin="round"/></svg><svg fill="none" viewBox="0 0 18 18" id="ic-go-wh" xmlns="http://www.w3.org/2000/svg"><path d="M8 1h9m0 0v9m0-9L1 17" stroke="#fff" stroke-width="2" stroke-linecap="round" stroke-linejoin="round"/></svg><svg fill="none" viewBox="0 0 16 16" id="ic-marker" xmlns="http://www.w3.org/2000/svg"><path d="M16 13.52S12.655 16 8.529 16c-4.127 0-7.472-1.11-7.472-2.48 0-1.37 3.345-2.48 7.472-2.48 4.126 0 7.471 2.48 7.471 2.48z" fill="#98A8D6"/><path d="M2.502 0S0 3.316 0 7.406s1.12 7.406 2.502 7.406c1.382 0 2.502-3.316 2.502-7.406S2.502 0 2.502 0z" fill="#98A8D6"/><path d="M11.912 3.78S11.316 7.88 8.4 10.77c-2.918 2.893-6.075 4.453-7.053 3.484-.977-.969.596-4.099 3.514-6.99C7.778 4.37 11.912 3.78 11.912 3.78z" fill="#98A8D6"/></svg><svg fill="none" viewBox="0 0 10 6" id="ic_arrow-down" xmlns="http://www.w3.org/2000/svg"><path d="M1 1l4 4 4-4" stroke="#244190" stroke-linecap="round" stroke-linejoin="round"/></svg><svg fill="none" viewBox="0 0 26 14" id="ic_arrow-left" xmlns="http://www.w3.org/2000/svg"><path d="M7 1L1 7m0 0l6 6M1 7h24" stroke="#fff" stroke-width="2" stroke-linecap="round" stroke-linejoin="round"/></svg><svg fill="none" viewBox="0 0 26 14" id="ic_arrow-right" xmlns="http://www.w3.org/2000/svg"><path d="M1 7h24m0 0l-6-6m6 6l-6 6" stroke="#fff" stroke-width="2" stroke-linecap="round" stroke-linejoin="round"/></svg><svg viewBox="0 0 24 24" id="ic_close" xmlns="http://www.w3.org/2000/svg"><path d="M0 0h24v24H0V0z" fill="none"/><path d="M19 6.41L17.59 5 12 10.59 6.41 5 5 6.41 10.59 12 5 17.59 6.41 19 12 13.41 17.59 19 19 17.59 13.41 12 19 6.41z"/></svg><svg viewBox="0 0 24 24" id="ic_expand" xmlns="http://www.w3.org/2000/svg"><path d="M24 24H0V0h24v24z" fill="none" opacity=".87"/><path d="M16.59 8.59L12 13.17 7.41 8.59 6 10l6 6 6-6-1.41-1.41z"/></svg><svg fill="none" viewBox="0 0 60 92" id="ic_marker" xmlns="http://www.w3.org/2000/svg"><path d="M60 31.023C60 48.157 30 92 30 92S0 48.157 0 31.023C0 13.89 13.431 0 30 0c16.569 0 30 13.89 30 31.023z" fill="#AB9EDC"/><path d="M44 39.66S38.146 44 30.925 44c-7.221 0-13.075-1.943-13.075-4.34 0-2.398 5.854-4.341 13.075-4.341 7.221 0 13.075 4.34 13.075 4.34z" fill="#fff"/><path d="M20.379 16S16 21.803 16 28.96c0 7.159 1.96 12.961 4.379 12.961 2.418 0 4.379-5.802 4.379-12.96 0-7.158-4.38-12.961-4.38-12.961z" fill="#fff"/><path d="M36.847 22.615s-1.043 7.173-6.15 12.234c-5.105 5.062-10.63 7.79-12.34 6.095-1.71-1.695 1.042-7.172 6.148-12.234 5.106-5.061 12.342-6.095 12.342-6.095z" fill="#fff"/></svg><svg viewBox="0 0 24 24" id="ic_person" xmlns="http://www.w3.org/2000/svg"><path d="M0 0h24v24H0V0z" fill="none"/><path d="M12 2C6.48 2 2 6.48 2 12s4.48 10 10 10 10-4.48 10-10S17.52 2 12 2zM7.07 18.28c.43-.9 3.05-1.78 4.93-1.78s4.51.88 4.93 1.78C15.57 19.36 13.86 20 12 20s-3.57-.64-4.93-1.72zm11.29-1.45c-1.43-1.74-4.9-2.33-6.36-2.33s-4.93.59-6.36 2.33A7.95 7.95 0 014 12c0-4.41 3.59-8 8-8s8 3.59 8 8c0 1.82-.62 3.49-1.64 4.83zM12 6c-1.94 0-3.5 1.56-3.5 3.5S10.06 13 12 13s3.5-1.56 3.5-3.5S13.94 6 12 6zm0 5c-.83 0-1.5-.67-1.5-1.5S11.17 8 12 8s1.5.67 1.5 1.5S12.83 11 12 11z"/></svg><svg fill="none" viewBox="0 0 16 15" id="ic_star" xmlns="http://www.w3.org/2000/svg"><path d="M7.094.584c.342-.779 1.47-.779 1.812 0l1.53 3.48a.985.985 0 00.815.58l3.852.35c.862.079 1.21 1.129.56 1.689l-2.906 2.5a.955.955 0 00-.311.939l.85 3.696c.19.828-.722 1.477-1.466 1.044l-3.326-1.935c-.31-.18-.697-.18-1.008 0L4.17 14.862c-.744.433-1.657-.216-1.466-1.044l.85-3.696a.955.955 0 00-.311-.939l-2.906-2.5c-.65-.56-.302-1.61.56-1.689l3.852-.35a.985.985 0 00.815-.58l1.53-3.48z" fill="#EAA621"/></svg><svg viewBox="0 0 24 24" id="ic_up" xmlns="http://www.w3.org/2000/svg"><path d="M0 0h24v24H0V0z" fill="none"/><path d="M4 12l1.41 1.41L11 7.83V20h2V7.83l5.58 5.59L20 12l-8-8-8 8z"/></svg></svg>